G04 #@! TF.FileFunction,Legend,Top*
%FSLAX46Y46*%
G04 Gerber Fmt 4.6, Leading zero omitted, Abs format (unit mm)*
G04 Created by KiCad (PCBNEW 4.0.1-stable) date 25.01.2016 0:45:01*
%MOMM*%
G01*
G04 APERTURE LIST*
%ADD10C,0.100000*%
%ADD11C,0.200000*%
%ADD12C,0.150000*%
%ADD13C,0.127000*%
%ADD14C,0.300000*%
%ADD15C,0.149860*%
%ADD16C,0.158750*%
%ADD17C,0.160020*%
G04 APERTURE END LIST*
D10*
D11*
X112200000Y-93800000D02*
X112200000Y-98700000D01*
X111300000Y-92900000D02*
X112200000Y-93800000D01*
X111300000Y-87000000D02*
X111300000Y-92900000D01*
X111500000Y-86800000D02*
X111300000Y-87000000D01*
X111700000Y-86600000D02*
X111500000Y-86800000D01*
X113700000Y-84600000D02*
X111700000Y-86600000D01*
X113700000Y-80700000D02*
X113700000Y-84600000D01*
X109600000Y-80700000D02*
X113700000Y-80700000D01*
X109600000Y-72900000D02*
X109600000Y-80700000D01*
X118300000Y-64300000D02*
X118300000Y-54200000D01*
X115200000Y-64300000D02*
X118300000Y-64300000D01*
X115200000Y-68600000D02*
X115200000Y-64300000D01*
X114300000Y-68600000D02*
X115200000Y-68600000D01*
X114300000Y-69300000D02*
X114300000Y-68600000D01*
X113800000Y-69800000D02*
X114300000Y-69300000D01*
X109200000Y-69800000D02*
X113800000Y-69800000D01*
X109200000Y-71300000D02*
X109200000Y-69800000D01*
X103900000Y-71300000D02*
X109200000Y-71300000D01*
X103900000Y-71000000D02*
X103900000Y-71300000D01*
X97800000Y-71000000D02*
X100200000Y-71000000D01*
X97800000Y-67500000D02*
X97800000Y-71000000D01*
X100200000Y-71000000D02*
X102800000Y-71000000D01*
X97800000Y-60200000D02*
X97800000Y-67500000D01*
X97600000Y-60200000D02*
X97800000Y-60200000D01*
D12*
X104300000Y-60850000D02*
X104300000Y-58750000D01*
X104300000Y-58750000D02*
X107500000Y-58750000D01*
X107500000Y-58750000D02*
X107500000Y-60850000D01*
X107500000Y-60850000D02*
X104300000Y-60850000D01*
X105200000Y-78300000D02*
X109000000Y-78300000D01*
X109000000Y-78300000D02*
X109000000Y-80300000D01*
X109000000Y-80300000D02*
X105200000Y-80300000D01*
X105200000Y-80300000D02*
X105200000Y-78300000D01*
X111600000Y-84500000D02*
X110800000Y-84500000D01*
X110800000Y-84500000D02*
X110800000Y-81500000D01*
X110800000Y-81500000D02*
X112400000Y-81500000D01*
X112400000Y-81500000D02*
X112400000Y-84500000D01*
X112400000Y-84500000D02*
X111600000Y-84500000D01*
X99400000Y-90300000D02*
X95400000Y-90300000D01*
X95400000Y-90300000D02*
X95400000Y-77300000D01*
X95400000Y-77300000D02*
X103400000Y-77300000D01*
X103400000Y-77300000D02*
X103400000Y-90300000D01*
X103400000Y-90300000D02*
X99400000Y-90300000D01*
X97650000Y-90550000D02*
X97650000Y-90300000D01*
X101150000Y-90300000D02*
X101150000Y-90550000D01*
X97500000Y-75700000D02*
X97500000Y-74900000D01*
X97500000Y-74900000D02*
X100500000Y-74900000D01*
X100500000Y-74900000D02*
X100500000Y-76500000D01*
X100500000Y-76500000D02*
X97500000Y-76500000D01*
X97500000Y-76500000D02*
X97500000Y-75700000D01*
X108600000Y-77500000D02*
X108600000Y-78300000D01*
X108600000Y-78300000D02*
X105600000Y-78300000D01*
X105600000Y-78300000D02*
X105600000Y-76700000D01*
X105600000Y-76700000D02*
X108600000Y-76700000D01*
X108600000Y-76700000D02*
X108600000Y-77500000D01*
X101100000Y-71300000D02*
X101900000Y-71300000D01*
X101900000Y-71300000D02*
X101900000Y-74300000D01*
X101900000Y-74300000D02*
X100300000Y-74300000D01*
X100300000Y-74300000D02*
X100300000Y-71300000D01*
X100300000Y-71300000D02*
X101100000Y-71300000D01*
X102600000Y-93600000D02*
X103400000Y-93600000D01*
X103400000Y-93600000D02*
X103400000Y-96600000D01*
X103400000Y-96600000D02*
X101800000Y-96600000D01*
X101800000Y-96600000D02*
X101800000Y-93600000D01*
X101800000Y-93600000D02*
X102600000Y-93600000D01*
X110100000Y-94000000D02*
X110100000Y-94600000D01*
X109800000Y-94300000D02*
X110400000Y-94300000D01*
X112000000Y-95600000D02*
G75*
G03X112000000Y-95600000I-3200000J0D01*
G01*
X114800000Y-67500000D02*
X114800000Y-68300000D01*
X114800000Y-68300000D02*
X111800000Y-68300000D01*
X111800000Y-68300000D02*
X111800000Y-66700000D01*
X111800000Y-66700000D02*
X114800000Y-66700000D01*
X114800000Y-66700000D02*
X114800000Y-67500000D01*
X111800000Y-61500000D02*
X111800000Y-60700000D01*
X111800000Y-60700000D02*
X114800000Y-60700000D01*
X114800000Y-60700000D02*
X114800000Y-62300000D01*
X114800000Y-62300000D02*
X111800000Y-62300000D01*
X111800000Y-62300000D02*
X111800000Y-61500000D01*
X108100000Y-68000000D02*
X108900000Y-68000000D01*
X108900000Y-68000000D02*
X108900000Y-71000000D01*
X108900000Y-71000000D02*
X107300000Y-71000000D01*
X107300000Y-71000000D02*
X107300000Y-68000000D01*
X107300000Y-68000000D02*
X108100000Y-68000000D01*
X111500000Y-72000000D02*
X112300000Y-72000000D01*
X112300000Y-72000000D02*
X112300000Y-75000000D01*
X112300000Y-75000000D02*
X110700000Y-75000000D01*
X110700000Y-75000000D02*
X110700000Y-72000000D01*
X110700000Y-72000000D02*
X111500000Y-72000000D01*
X101800000Y-62300000D02*
X101800000Y-63100000D01*
X101800000Y-63100000D02*
X98800000Y-63100000D01*
X98800000Y-63100000D02*
X98800000Y-61500000D01*
X98800000Y-61500000D02*
X101800000Y-61500000D01*
X101800000Y-61500000D02*
X101800000Y-62300000D01*
X111500000Y-79400000D02*
X110700000Y-79400000D01*
X110700000Y-79400000D02*
X110700000Y-76400000D01*
X110700000Y-76400000D02*
X112300000Y-76400000D01*
X112300000Y-76400000D02*
X112300000Y-79400000D01*
X112300000Y-79400000D02*
X111500000Y-79400000D01*
X102800000Y-59800000D02*
X102800000Y-60600000D01*
X102800000Y-60600000D02*
X99800000Y-60600000D01*
X99800000Y-60600000D02*
X99800000Y-59000000D01*
X99800000Y-59000000D02*
X102800000Y-59000000D01*
X102800000Y-59000000D02*
X102800000Y-59800000D01*
X122600000Y-81300000D02*
X122600000Y-82100000D01*
X122600000Y-82100000D02*
X119600000Y-82100000D01*
X119600000Y-82100000D02*
X119600000Y-80500000D01*
X119600000Y-80500000D02*
X122600000Y-80500000D01*
X122600000Y-80500000D02*
X122600000Y-81300000D01*
X109400000Y-60900000D02*
X108600000Y-60900000D01*
X108600000Y-60900000D02*
X108600000Y-57900000D01*
X108600000Y-57900000D02*
X110200000Y-57900000D01*
X110200000Y-57900000D02*
X110200000Y-60900000D01*
X110200000Y-60900000D02*
X109400000Y-60900000D01*
X124700000Y-70700000D02*
X125500000Y-70700000D01*
X125500000Y-70700000D02*
X125500000Y-73700000D01*
X125500000Y-73700000D02*
X123900000Y-73700000D01*
X123900000Y-73700000D02*
X123900000Y-70700000D01*
X123900000Y-70700000D02*
X124700000Y-70700000D01*
X110200000Y-63200000D02*
X111000000Y-63200000D01*
X111000000Y-63200000D02*
X111000000Y-66200000D01*
X111000000Y-66200000D02*
X109400000Y-66200000D01*
X109400000Y-66200000D02*
X109400000Y-63200000D01*
X109400000Y-63200000D02*
X110200000Y-63200000D01*
X115700000Y-68100000D02*
X115700000Y-67300000D01*
X115700000Y-67300000D02*
X118700000Y-67300000D01*
X118700000Y-67300000D02*
X118700000Y-68900000D01*
X118700000Y-68900000D02*
X115700000Y-68900000D01*
X115700000Y-68900000D02*
X115700000Y-68100000D01*
X105900000Y-68000000D02*
X106700000Y-68000000D01*
X106700000Y-68000000D02*
X106700000Y-71000000D01*
X106700000Y-71000000D02*
X105100000Y-71000000D01*
X105100000Y-71000000D02*
X105100000Y-68000000D01*
X105100000Y-68000000D02*
X105900000Y-68000000D01*
X115700000Y-66500000D02*
X115700000Y-65700000D01*
X115700000Y-65700000D02*
X118700000Y-65700000D01*
X118700000Y-65700000D02*
X118700000Y-67300000D01*
X118700000Y-67300000D02*
X115700000Y-67300000D01*
X115700000Y-67300000D02*
X115700000Y-66500000D01*
X101800000Y-65500000D02*
X101800000Y-66300000D01*
X101800000Y-66300000D02*
X98800000Y-66300000D01*
X98800000Y-66300000D02*
X98800000Y-64700000D01*
X98800000Y-64700000D02*
X101800000Y-64700000D01*
X101800000Y-64700000D02*
X101800000Y-65500000D01*
X105500000Y-57400000D02*
X106600000Y-57400000D01*
X106600000Y-57400000D02*
X106600000Y-58600000D01*
X106600000Y-58600000D02*
X104400000Y-58600000D01*
X104400000Y-58600000D02*
X104400000Y-57400000D01*
X104400000Y-57400000D02*
X105500000Y-57400000D01*
X105500000Y-54000000D02*
X106600000Y-54000000D01*
X106600000Y-54000000D02*
X106600000Y-55200000D01*
X106600000Y-55200000D02*
X104400000Y-55200000D01*
X104400000Y-55200000D02*
X104400000Y-54000000D01*
X104400000Y-54000000D02*
X105500000Y-54000000D01*
X136000000Y-75900000D02*
X136100000Y-75900000D01*
X136100000Y-75900000D02*
X136100000Y-74500000D01*
X136100000Y-74500000D02*
X136000000Y-74500000D01*
X136000000Y-75900000D02*
X132000000Y-75900000D01*
X132000000Y-75900000D02*
X132000000Y-74500000D01*
X132000000Y-74500000D02*
X136000000Y-74500000D01*
X136000000Y-74500000D02*
X136000000Y-75900000D01*
X134381000Y-74819000D02*
X134381000Y-75581000D01*
X133619000Y-75200000D02*
X133619000Y-75581000D01*
X133619000Y-75581000D02*
X134381000Y-75200000D01*
X134381000Y-75200000D02*
X133619000Y-74819000D01*
X133619000Y-74819000D02*
X133619000Y-75200000D01*
X136000000Y-80300000D02*
X136100000Y-80300000D01*
X136100000Y-80300000D02*
X136100000Y-78900000D01*
X136100000Y-78900000D02*
X136000000Y-78900000D01*
X136000000Y-80300000D02*
X132000000Y-80300000D01*
X132000000Y-80300000D02*
X132000000Y-78900000D01*
X132000000Y-78900000D02*
X136000000Y-78900000D01*
X136000000Y-78900000D02*
X136000000Y-80300000D01*
X134381000Y-79219000D02*
X134381000Y-79981000D01*
X133619000Y-79600000D02*
X133619000Y-79981000D01*
X133619000Y-79981000D02*
X134381000Y-79600000D01*
X134381000Y-79600000D02*
X133619000Y-79219000D01*
X133619000Y-79219000D02*
X133619000Y-79600000D01*
X136100000Y-84700000D02*
X136200000Y-84700000D01*
X136200000Y-84700000D02*
X136200000Y-83300000D01*
X136200000Y-83300000D02*
X136100000Y-83300000D01*
X136100000Y-84700000D02*
X132100000Y-84700000D01*
X132100000Y-84700000D02*
X132100000Y-83300000D01*
X132100000Y-83300000D02*
X136100000Y-83300000D01*
X136100000Y-83300000D02*
X136100000Y-84700000D01*
X134481000Y-83619000D02*
X134481000Y-84381000D01*
X133719000Y-84000000D02*
X133719000Y-84381000D01*
X133719000Y-84381000D02*
X134481000Y-84000000D01*
X134481000Y-84000000D02*
X133719000Y-83619000D01*
X133719000Y-83619000D02*
X133719000Y-84000000D01*
X135800000Y-89100000D02*
X135900000Y-89100000D01*
X135900000Y-89100000D02*
X135900000Y-87700000D01*
X135900000Y-87700000D02*
X135800000Y-87700000D01*
X135800000Y-89100000D02*
X131800000Y-89100000D01*
X131800000Y-89100000D02*
X131800000Y-87700000D01*
X131800000Y-87700000D02*
X135800000Y-87700000D01*
X135800000Y-87700000D02*
X135800000Y-89100000D01*
X134181000Y-88019000D02*
X134181000Y-88781000D01*
X133419000Y-88400000D02*
X133419000Y-88781000D01*
X133419000Y-88781000D02*
X134181000Y-88400000D01*
X134181000Y-88400000D02*
X133419000Y-88019000D01*
X133419000Y-88019000D02*
X133419000Y-88400000D01*
X127800000Y-63100000D02*
X128000000Y-63100000D01*
X128000000Y-63100000D02*
X128000000Y-64700000D01*
X128000000Y-64700000D02*
X127800000Y-64700000D01*
X127600000Y-63100000D02*
X127750000Y-63100000D01*
X127750000Y-63100000D02*
X127750000Y-64700000D01*
X127750000Y-64700000D02*
X127600000Y-64700000D01*
X127600000Y-64700000D02*
X127850000Y-64700000D01*
X127850000Y-64700000D02*
X127850000Y-63100000D01*
X127850000Y-63100000D02*
X127750000Y-63100000D01*
X124600000Y-63900000D02*
X124600000Y-63100000D01*
X124600000Y-63100000D02*
X127600000Y-63100000D01*
X127600000Y-63100000D02*
X127600000Y-64700000D01*
X127600000Y-64700000D02*
X124600000Y-64700000D01*
X124600000Y-64700000D02*
X124600000Y-63800000D01*
X112500000Y-98000000D02*
X112500000Y-98100000D01*
X112500000Y-98100000D02*
X113900000Y-98100000D01*
X113900000Y-98100000D02*
X113900000Y-98000000D01*
X112500000Y-98000000D02*
X112500000Y-94000000D01*
X112500000Y-94000000D02*
X113900000Y-94000000D01*
X113900000Y-94000000D02*
X113900000Y-98000000D01*
X113900000Y-98000000D02*
X112500000Y-98000000D01*
X113581000Y-96381000D02*
X112819000Y-96381000D01*
X113200000Y-95619000D02*
X112819000Y-95619000D01*
X112819000Y-95619000D02*
X113200000Y-96381000D01*
X113200000Y-96381000D02*
X113581000Y-95619000D01*
X113581000Y-95619000D02*
X113200000Y-95619000D01*
X116900000Y-98000000D02*
X116900000Y-98100000D01*
X116900000Y-98100000D02*
X118300000Y-98100000D01*
X118300000Y-98100000D02*
X118300000Y-98000000D01*
X116900000Y-98000000D02*
X116900000Y-94000000D01*
X116900000Y-94000000D02*
X118300000Y-94000000D01*
X118300000Y-94000000D02*
X118300000Y-98000000D01*
X118300000Y-98000000D02*
X116900000Y-98000000D01*
X117981000Y-96381000D02*
X117219000Y-96381000D01*
X117600000Y-95619000D02*
X117219000Y-95619000D01*
X117219000Y-95619000D02*
X117600000Y-96381000D01*
X117600000Y-96381000D02*
X117981000Y-95619000D01*
X117981000Y-95619000D02*
X117600000Y-95619000D01*
X121300000Y-98000000D02*
X121300000Y-98100000D01*
X121300000Y-98100000D02*
X122700000Y-98100000D01*
X122700000Y-98100000D02*
X122700000Y-98000000D01*
X121300000Y-98000000D02*
X121300000Y-94000000D01*
X121300000Y-94000000D02*
X122700000Y-94000000D01*
X122700000Y-94000000D02*
X122700000Y-98000000D01*
X122700000Y-98000000D02*
X121300000Y-98000000D01*
X122381000Y-96381000D02*
X121619000Y-96381000D01*
X122000000Y-95619000D02*
X121619000Y-95619000D01*
X121619000Y-95619000D02*
X122000000Y-96381000D01*
X122000000Y-96381000D02*
X122381000Y-95619000D01*
X122381000Y-95619000D02*
X122000000Y-95619000D01*
X125700000Y-98000000D02*
X125700000Y-98100000D01*
X125700000Y-98100000D02*
X127100000Y-98100000D01*
X127100000Y-98100000D02*
X127100000Y-98000000D01*
X125700000Y-98000000D02*
X125700000Y-94000000D01*
X125700000Y-94000000D02*
X127100000Y-94000000D01*
X127100000Y-94000000D02*
X127100000Y-98000000D01*
X127100000Y-98000000D02*
X125700000Y-98000000D01*
X126781000Y-96381000D02*
X126019000Y-96381000D01*
X126400000Y-95619000D02*
X126019000Y-95619000D01*
X126019000Y-95619000D02*
X126400000Y-96381000D01*
X126400000Y-96381000D02*
X126781000Y-95619000D01*
X126781000Y-95619000D02*
X126400000Y-95619000D01*
D11*
X105100000Y-85000000D02*
X105100000Y-81000000D01*
X105100000Y-81000000D02*
X109100000Y-81000000D01*
X109100000Y-81000000D02*
X109100000Y-85000000D01*
X109100000Y-85000000D02*
X105100000Y-85000000D01*
D12*
X98600000Y-74500000D02*
X98600000Y-73200000D01*
X98600000Y-73200000D02*
X97500000Y-73200000D01*
X97500000Y-74500000D02*
X97500000Y-71300000D01*
X97500000Y-71300000D02*
X99900000Y-71300000D01*
X99900000Y-71300000D02*
X99900000Y-74500000D01*
X99900000Y-74500000D02*
X97500000Y-74500000D01*
X120850000Y-71350000D02*
X121550000Y-72050000D01*
X121550000Y-74800000D02*
X121550000Y-78250000D01*
X121550000Y-78250000D02*
X114650000Y-78250000D01*
X114650000Y-78250000D02*
X114650000Y-71350000D01*
X114650000Y-71350000D02*
X121550000Y-71350000D01*
X121550000Y-71350000D02*
X121550000Y-74800000D01*
X104050000Y-67100000D02*
X102900000Y-65950000D01*
X102900000Y-61700000D02*
X108300000Y-61700000D01*
X108300000Y-61700000D02*
X108300000Y-67100000D01*
X108300000Y-67100000D02*
X102900000Y-67100000D01*
X102900000Y-67100000D02*
X102900000Y-61700000D01*
X104000000Y-85800000D02*
X110200000Y-85800000D01*
X110200000Y-85800000D02*
X110200000Y-92200000D01*
X110200000Y-92200000D02*
X104000000Y-92200000D01*
X104000000Y-92200000D02*
X104000000Y-85800000D01*
X101700000Y-69700000D02*
X101700000Y-70800000D01*
X101700000Y-70800000D02*
X100500000Y-70800000D01*
X100500000Y-70800000D02*
X100500000Y-68600000D01*
X100500000Y-68600000D02*
X101700000Y-68600000D01*
X101700000Y-68600000D02*
X101700000Y-69700000D01*
X109200000Y-72600000D02*
X108100000Y-72600000D01*
X108100000Y-72600000D02*
X108100000Y-71400000D01*
X108100000Y-71400000D02*
X110300000Y-71400000D01*
X110300000Y-71400000D02*
X110300000Y-72600000D01*
X110300000Y-72600000D02*
X109200000Y-72600000D01*
X105600000Y-56300000D02*
X105600000Y-57400000D01*
X105600000Y-57400000D02*
X104400000Y-57400000D01*
X104400000Y-57400000D02*
X104400000Y-55200000D01*
X104400000Y-55200000D02*
X105600000Y-55200000D01*
X105600000Y-55200000D02*
X105600000Y-56300000D01*
D13*
X129819000Y-76724000D02*
X129819000Y-73676000D01*
X129819000Y-73676000D02*
X130581000Y-73676000D01*
X130581000Y-73676000D02*
X130581000Y-76724000D01*
X130581000Y-76724000D02*
X129819000Y-76724000D01*
X129819000Y-81124000D02*
X129819000Y-78076000D01*
X129819000Y-78076000D02*
X130581000Y-78076000D01*
X130581000Y-78076000D02*
X130581000Y-81124000D01*
X130581000Y-81124000D02*
X129819000Y-81124000D01*
X129819000Y-85524000D02*
X129819000Y-82476000D01*
X129819000Y-82476000D02*
X130581000Y-82476000D01*
X130581000Y-82476000D02*
X130581000Y-85524000D01*
X130581000Y-85524000D02*
X129819000Y-85524000D01*
X129819000Y-89924000D02*
X129819000Y-86876000D01*
X129819000Y-86876000D02*
X130581000Y-86876000D01*
X130581000Y-86876000D02*
X130581000Y-89924000D01*
X130581000Y-89924000D02*
X129819000Y-89924000D01*
X111676000Y-91819000D02*
X114724000Y-91819000D01*
X114724000Y-91819000D02*
X114724000Y-92581000D01*
X114724000Y-92581000D02*
X111676000Y-92581000D01*
X111676000Y-92581000D02*
X111676000Y-91819000D01*
X116076000Y-91819000D02*
X119124000Y-91819000D01*
X119124000Y-91819000D02*
X119124000Y-92581000D01*
X119124000Y-92581000D02*
X116076000Y-92581000D01*
X116076000Y-92581000D02*
X116076000Y-91819000D01*
X120476000Y-91819000D02*
X123524000Y-91819000D01*
X123524000Y-91819000D02*
X123524000Y-92581000D01*
X123524000Y-92581000D02*
X120476000Y-92581000D01*
X120476000Y-92581000D02*
X120476000Y-91819000D01*
X124876000Y-91819000D02*
X127924000Y-91819000D01*
X127924000Y-91819000D02*
X127924000Y-92581000D01*
X127924000Y-92581000D02*
X124876000Y-92581000D01*
X124876000Y-92581000D02*
X124876000Y-91819000D01*
D12*
X127600000Y-76700000D02*
X126800000Y-76700000D01*
X126800000Y-76700000D02*
X126800000Y-73700000D01*
X126800000Y-73700000D02*
X128400000Y-73700000D01*
X128400000Y-73700000D02*
X128400000Y-76700000D01*
X128400000Y-76700000D02*
X127600000Y-76700000D01*
X127600000Y-81100000D02*
X126800000Y-81100000D01*
X126800000Y-81100000D02*
X126800000Y-78100000D01*
X126800000Y-78100000D02*
X128400000Y-78100000D01*
X128400000Y-78100000D02*
X128400000Y-81100000D01*
X128400000Y-81100000D02*
X127600000Y-81100000D01*
X127600000Y-85500000D02*
X126800000Y-85500000D01*
X126800000Y-85500000D02*
X126800000Y-82500000D01*
X126800000Y-82500000D02*
X128400000Y-82500000D01*
X128400000Y-82500000D02*
X128400000Y-85500000D01*
X128400000Y-85500000D02*
X127600000Y-85500000D01*
X124900000Y-87600000D02*
X124900000Y-86800000D01*
X124900000Y-86800000D02*
X127900000Y-86800000D01*
X127900000Y-86800000D02*
X127900000Y-88400000D01*
X127900000Y-88400000D02*
X124900000Y-88400000D01*
X124900000Y-88400000D02*
X124900000Y-87600000D01*
X124200000Y-63900000D02*
X124200000Y-64700000D01*
X124200000Y-64700000D02*
X121200000Y-64700000D01*
X121200000Y-64700000D02*
X121200000Y-63100000D01*
X121200000Y-63100000D02*
X124200000Y-63100000D01*
X124200000Y-63100000D02*
X124200000Y-63900000D01*
X111700000Y-89600000D02*
X111700000Y-88800000D01*
X111700000Y-88800000D02*
X114700000Y-88800000D01*
X114700000Y-88800000D02*
X114700000Y-90400000D01*
X114700000Y-90400000D02*
X111700000Y-90400000D01*
X111700000Y-90400000D02*
X111700000Y-89600000D01*
X116100000Y-89600000D02*
X116100000Y-88800000D01*
X116100000Y-88800000D02*
X119100000Y-88800000D01*
X119100000Y-88800000D02*
X119100000Y-90400000D01*
X119100000Y-90400000D02*
X116100000Y-90400000D01*
X116100000Y-90400000D02*
X116100000Y-89600000D01*
X120500000Y-89600000D02*
X120500000Y-88800000D01*
X120500000Y-88800000D02*
X123500000Y-88800000D01*
X123500000Y-88800000D02*
X123500000Y-90400000D01*
X123500000Y-90400000D02*
X120500000Y-90400000D01*
X120500000Y-90400000D02*
X120500000Y-89600000D01*
X124900000Y-89600000D02*
X124900000Y-88800000D01*
X124900000Y-88800000D02*
X127900000Y-88800000D01*
X127900000Y-88800000D02*
X127900000Y-90400000D01*
X127900000Y-90400000D02*
X124900000Y-90400000D01*
X124900000Y-90400000D02*
X124900000Y-89600000D01*
X105600000Y-75500000D02*
X105600000Y-74700000D01*
X105600000Y-74700000D02*
X108600000Y-74700000D01*
X108600000Y-74700000D02*
X108600000Y-76300000D01*
X108600000Y-76300000D02*
X105600000Y-76300000D01*
X105600000Y-76300000D02*
X105600000Y-75500000D01*
X108600000Y-73900000D02*
X108600000Y-74700000D01*
X108600000Y-74700000D02*
X105600000Y-74700000D01*
X105600000Y-74700000D02*
X105600000Y-73100000D01*
X105600000Y-73100000D02*
X108600000Y-73100000D01*
X108600000Y-73100000D02*
X108600000Y-73900000D01*
X104500000Y-93600000D02*
X105300000Y-93600000D01*
X105300000Y-93600000D02*
X105300000Y-96600000D01*
X105300000Y-96600000D02*
X103700000Y-96600000D01*
X103700000Y-96600000D02*
X103700000Y-93600000D01*
X103700000Y-93600000D02*
X104500000Y-93600000D01*
X100700000Y-96600000D02*
X99900000Y-96600000D01*
X99900000Y-96600000D02*
X99900000Y-93600000D01*
X99900000Y-93600000D02*
X101500000Y-93600000D01*
X101500000Y-93600000D02*
X101500000Y-96600000D01*
X101500000Y-96600000D02*
X100700000Y-96600000D01*
X101800000Y-63900000D02*
X101800000Y-64700000D01*
X101800000Y-64700000D02*
X98800000Y-64700000D01*
X98800000Y-64700000D02*
X98800000Y-63100000D01*
X98800000Y-63100000D02*
X101800000Y-63100000D01*
X101800000Y-63100000D02*
X101800000Y-63900000D01*
X95900000Y-63200000D02*
X96700000Y-63200000D01*
X96700000Y-63200000D02*
X96700000Y-66200000D01*
X96700000Y-66200000D02*
X95100000Y-66200000D01*
X95100000Y-66200000D02*
X95100000Y-63200000D01*
X95100000Y-63200000D02*
X95900000Y-63200000D01*
X95900000Y-66800000D02*
X96700000Y-66800000D01*
X96700000Y-66800000D02*
X96700000Y-69800000D01*
X96700000Y-69800000D02*
X95100000Y-69800000D01*
X95100000Y-69800000D02*
X95100000Y-66800000D01*
X95100000Y-66800000D02*
X95900000Y-66800000D01*
X115730000Y-85470000D02*
X123350000Y-85470000D01*
X115730000Y-82930000D02*
X123350000Y-82930000D01*
X115730000Y-85470000D02*
X115476000Y-85470000D01*
X115476000Y-85470000D02*
X115476000Y-82930000D01*
X115476000Y-82930000D02*
X115730000Y-82930000D01*
X115730000Y-82930000D02*
X115603000Y-82930000D01*
X115603000Y-82930000D02*
X115603000Y-85470000D01*
X123350000Y-82930000D02*
X123350000Y-85470000D01*
X115730000Y-85470000D02*
X115730000Y-82930000D01*
X123370000Y-85730000D02*
X123624000Y-85730000D01*
X123624000Y-85730000D02*
X123624000Y-88270000D01*
X123624000Y-88270000D02*
X123370000Y-88270000D01*
X123370000Y-88270000D02*
X123497000Y-88270000D01*
X123497000Y-88270000D02*
X123497000Y-85730000D01*
X123370000Y-88270000D02*
X113210000Y-88270000D01*
X113210000Y-88270000D02*
X113210000Y-85730000D01*
X113210000Y-85730000D02*
X123370000Y-85730000D01*
X123370000Y-85730000D02*
X123370000Y-88270000D01*
X131390000Y-76130000D02*
X136470000Y-76130000D01*
X131390000Y-78670000D02*
X136470000Y-78670000D01*
X136597000Y-76130000D02*
X136470000Y-76130000D01*
X136470000Y-78670000D02*
X136724000Y-78670000D01*
X136724000Y-78670000D02*
X136724000Y-76130000D01*
X136724000Y-76130000D02*
X136597000Y-76130000D01*
X136597000Y-76130000D02*
X136597000Y-78543000D01*
X131390000Y-78670000D02*
X131390000Y-76130000D01*
X136470000Y-76130000D02*
X136470000Y-78670000D01*
X131390000Y-80530000D02*
X136470000Y-80530000D01*
X131390000Y-83070000D02*
X136470000Y-83070000D01*
X136597000Y-80530000D02*
X136470000Y-80530000D01*
X136470000Y-83070000D02*
X136724000Y-83070000D01*
X136724000Y-83070000D02*
X136724000Y-80530000D01*
X136724000Y-80530000D02*
X136597000Y-80530000D01*
X136597000Y-80530000D02*
X136597000Y-82943000D01*
X131390000Y-83070000D02*
X131390000Y-80530000D01*
X136470000Y-80530000D02*
X136470000Y-83070000D01*
X131390000Y-84930000D02*
X136470000Y-84930000D01*
X131390000Y-87470000D02*
X136470000Y-87470000D01*
X136597000Y-84930000D02*
X136470000Y-84930000D01*
X136470000Y-87470000D02*
X136724000Y-87470000D01*
X136724000Y-87470000D02*
X136724000Y-84930000D01*
X136724000Y-84930000D02*
X136597000Y-84930000D01*
X136597000Y-84930000D02*
X136597000Y-87343000D01*
X131390000Y-87470000D02*
X131390000Y-84930000D01*
X136470000Y-84930000D02*
X136470000Y-87470000D01*
X131390000Y-89330000D02*
X136470000Y-89330000D01*
X131390000Y-91870000D02*
X136470000Y-91870000D01*
X136597000Y-89330000D02*
X136470000Y-89330000D01*
X136470000Y-91870000D02*
X136724000Y-91870000D01*
X136724000Y-91870000D02*
X136724000Y-89330000D01*
X136724000Y-89330000D02*
X136597000Y-89330000D01*
X136597000Y-89330000D02*
X136597000Y-91743000D01*
X131390000Y-91870000D02*
X131390000Y-89330000D01*
X136470000Y-89330000D02*
X136470000Y-91870000D01*
X134130000Y-62764000D02*
X134130000Y-62510000D01*
X134130000Y-62510000D02*
X136670000Y-62510000D01*
X136670000Y-62510000D02*
X136670000Y-62764000D01*
X136670000Y-62764000D02*
X136670000Y-62637000D01*
X136670000Y-62637000D02*
X134130000Y-62637000D01*
X136670000Y-62764000D02*
X136670000Y-72924000D01*
X136670000Y-72924000D02*
X134130000Y-72924000D01*
X134130000Y-72924000D02*
X134130000Y-62764000D01*
X134130000Y-62764000D02*
X136670000Y-62764000D01*
X116670000Y-93390000D02*
X116670000Y-98470000D01*
X114130000Y-93390000D02*
X114130000Y-98470000D01*
X116670000Y-98597000D02*
X116670000Y-98470000D01*
X114130000Y-98470000D02*
X114130000Y-98724000D01*
X114130000Y-98724000D02*
X116670000Y-98724000D01*
X116670000Y-98724000D02*
X116670000Y-98597000D01*
X116670000Y-98597000D02*
X114257000Y-98597000D01*
X114130000Y-93390000D02*
X116670000Y-93390000D01*
X116670000Y-98470000D02*
X114130000Y-98470000D01*
X121070000Y-93390000D02*
X121070000Y-98470000D01*
X118530000Y-93390000D02*
X118530000Y-98470000D01*
X121070000Y-98597000D02*
X121070000Y-98470000D01*
X118530000Y-98470000D02*
X118530000Y-98724000D01*
X118530000Y-98724000D02*
X121070000Y-98724000D01*
X121070000Y-98724000D02*
X121070000Y-98597000D01*
X121070000Y-98597000D02*
X118657000Y-98597000D01*
X118530000Y-93390000D02*
X121070000Y-93390000D01*
X121070000Y-98470000D02*
X118530000Y-98470000D01*
X125470000Y-93390000D02*
X125470000Y-98470000D01*
X122930000Y-93390000D02*
X122930000Y-98470000D01*
X125470000Y-98597000D02*
X125470000Y-98470000D01*
X122930000Y-98470000D02*
X122930000Y-98724000D01*
X122930000Y-98724000D02*
X125470000Y-98724000D01*
X125470000Y-98724000D02*
X125470000Y-98597000D01*
X125470000Y-98597000D02*
X123057000Y-98597000D01*
X122930000Y-93390000D02*
X125470000Y-93390000D01*
X125470000Y-98470000D02*
X122930000Y-98470000D01*
X129870000Y-93390000D02*
X129870000Y-98470000D01*
X127330000Y-93390000D02*
X127330000Y-98470000D01*
X129870000Y-98597000D02*
X129870000Y-98470000D01*
X127330000Y-98470000D02*
X127330000Y-98724000D01*
X127330000Y-98724000D02*
X129870000Y-98724000D01*
X129870000Y-98724000D02*
X129870000Y-98597000D01*
X129870000Y-98597000D02*
X127457000Y-98597000D01*
X127330000Y-93390000D02*
X129870000Y-93390000D01*
X129870000Y-98470000D02*
X127330000Y-98470000D01*
X92230000Y-92010000D02*
X92230000Y-86930000D01*
X94770000Y-92010000D02*
X94770000Y-86930000D01*
X92230000Y-86803000D02*
X92230000Y-86930000D01*
X94770000Y-86930000D02*
X94770000Y-86676000D01*
X94770000Y-86676000D02*
X92230000Y-86676000D01*
X92230000Y-86676000D02*
X92230000Y-86803000D01*
X92230000Y-86803000D02*
X94643000Y-86803000D01*
X94770000Y-92010000D02*
X92230000Y-92010000D01*
X92230000Y-86930000D02*
X94770000Y-86930000D01*
X92330000Y-73730000D02*
X92330000Y-81350000D01*
X94870000Y-73730000D02*
X94870000Y-81350000D01*
X92330000Y-73730000D02*
X92330000Y-73476000D01*
X92330000Y-73476000D02*
X94870000Y-73476000D01*
X94870000Y-73476000D02*
X94870000Y-73730000D01*
X94870000Y-73730000D02*
X94870000Y-73603000D01*
X94870000Y-73603000D02*
X92330000Y-73603000D01*
X94870000Y-81350000D02*
X92330000Y-81350000D01*
X92330000Y-73730000D02*
X94870000Y-73730000D01*
X92330000Y-62730000D02*
X92330000Y-62476000D01*
X92330000Y-62476000D02*
X94870000Y-62476000D01*
X94870000Y-62476000D02*
X94870000Y-62730000D01*
X94870000Y-62730000D02*
X94870000Y-62603000D01*
X94870000Y-62603000D02*
X92330000Y-62603000D01*
X94870000Y-62730000D02*
X94870000Y-72890000D01*
X94870000Y-72890000D02*
X92330000Y-72890000D01*
X92330000Y-72890000D02*
X92330000Y-62730000D01*
X92330000Y-62730000D02*
X94870000Y-62730000D01*
X111776000Y-66532000D02*
X111776000Y-62468000D01*
X111776000Y-62468000D02*
X114824000Y-62468000D01*
X114824000Y-62468000D02*
X114824000Y-66532000D01*
X114824000Y-66532000D02*
X111776000Y-66532000D01*
X105100000Y-61257143D02*
X105185714Y-61285714D01*
X105214286Y-61314286D01*
X105242857Y-61371429D01*
X105242857Y-61457143D01*
X105214286Y-61514286D01*
X105185714Y-61542857D01*
X105128572Y-61571429D01*
X104900000Y-61571429D01*
X104900000Y-60971429D01*
X105100000Y-60971429D01*
X105157143Y-61000000D01*
X105185714Y-61028571D01*
X105214286Y-61085714D01*
X105214286Y-61142857D01*
X105185714Y-61200000D01*
X105157143Y-61228571D01*
X105100000Y-61257143D01*
X104900000Y-61257143D01*
X105785714Y-61571429D02*
X105500000Y-61571429D01*
X105500000Y-60971429D01*
X105985714Y-61571429D02*
X105985714Y-60971429D01*
X106328571Y-61571429D01*
X106328571Y-60971429D01*
X106928571Y-61571429D02*
X106585714Y-61571429D01*
X106757142Y-61571429D02*
X106757142Y-60971429D01*
X106699999Y-61057143D01*
X106642857Y-61114286D01*
X106585714Y-61142857D01*
X104071429Y-58928571D02*
X104071429Y-59271428D01*
X104071429Y-59100000D02*
X103471429Y-59100000D01*
X103557143Y-59157143D01*
X103614286Y-59214285D01*
X103642857Y-59271428D01*
X107000000Y-79614286D02*
X106971429Y-79642857D01*
X106885715Y-79671429D01*
X106828572Y-79671429D01*
X106742857Y-79642857D01*
X106685715Y-79585714D01*
X106657143Y-79528571D01*
X106628572Y-79414286D01*
X106628572Y-79328571D01*
X106657143Y-79214286D01*
X106685715Y-79157143D01*
X106742857Y-79100000D01*
X106828572Y-79071429D01*
X106885715Y-79071429D01*
X106971429Y-79100000D01*
X107000000Y-79128571D01*
X107571429Y-79671429D02*
X107228572Y-79671429D01*
X107400000Y-79671429D02*
X107400000Y-79071429D01*
X107342857Y-79157143D01*
X107285715Y-79214286D01*
X107228572Y-79242857D01*
X104971429Y-79685714D02*
X104971429Y-80028571D01*
X104971429Y-79857143D02*
X104371429Y-79857143D01*
X104457143Y-79914286D01*
X104514286Y-79971428D01*
X104542857Y-80028571D01*
X104371429Y-79314285D02*
X104371429Y-79257142D01*
X104400000Y-79199999D01*
X104428571Y-79171428D01*
X104485714Y-79142857D01*
X104600000Y-79114285D01*
X104742857Y-79114285D01*
X104857143Y-79142857D01*
X104914286Y-79171428D01*
X104942857Y-79199999D01*
X104971429Y-79257142D01*
X104971429Y-79314285D01*
X104942857Y-79371428D01*
X104914286Y-79399999D01*
X104857143Y-79428571D01*
X104742857Y-79457142D01*
X104600000Y-79457142D01*
X104485714Y-79428571D01*
X104428571Y-79399999D01*
X104400000Y-79371428D01*
X104371429Y-79314285D01*
X104571429Y-78599999D02*
X104971429Y-78599999D01*
X104571429Y-78857142D02*
X104885714Y-78857142D01*
X104942857Y-78828570D01*
X104971429Y-78771428D01*
X104971429Y-78685713D01*
X104942857Y-78628570D01*
X104914286Y-78599999D01*
X113214286Y-84100000D02*
X113242857Y-84128571D01*
X113271429Y-84214285D01*
X113271429Y-84271428D01*
X113242857Y-84357143D01*
X113185714Y-84414285D01*
X113128571Y-84442857D01*
X113014286Y-84471428D01*
X112928571Y-84471428D01*
X112814286Y-84442857D01*
X112757143Y-84414285D01*
X112700000Y-84357143D01*
X112671429Y-84271428D01*
X112671429Y-84214285D01*
X112700000Y-84128571D01*
X112728571Y-84100000D01*
X112728571Y-83871428D02*
X112700000Y-83842857D01*
X112671429Y-83785714D01*
X112671429Y-83642857D01*
X112700000Y-83585714D01*
X112728571Y-83557143D01*
X112785714Y-83528571D01*
X112842857Y-83528571D01*
X112928571Y-83557143D01*
X113271429Y-83900000D01*
X113271429Y-83528571D01*
X113171429Y-82000000D02*
X113171429Y-82342857D01*
X113171429Y-82171429D02*
X112571429Y-82171429D01*
X112657143Y-82228572D01*
X112714286Y-82285714D01*
X112742857Y-82342857D01*
X112771429Y-81485714D02*
X113171429Y-81485714D01*
X112771429Y-81742857D02*
X113085714Y-81742857D01*
X113142857Y-81714285D01*
X113171429Y-81657143D01*
X113171429Y-81571428D01*
X113142857Y-81514285D01*
X113114286Y-81485714D01*
X99550000Y-87014286D02*
X99521429Y-87042857D01*
X99435715Y-87071429D01*
X99378572Y-87071429D01*
X99292857Y-87042857D01*
X99235715Y-86985714D01*
X99207143Y-86928571D01*
X99178572Y-86814286D01*
X99178572Y-86728571D01*
X99207143Y-86614286D01*
X99235715Y-86557143D01*
X99292857Y-86500000D01*
X99378572Y-86471429D01*
X99435715Y-86471429D01*
X99521429Y-86500000D01*
X99550000Y-86528571D01*
X99750000Y-86471429D02*
X100121429Y-86471429D01*
X99921429Y-86700000D01*
X100007143Y-86700000D01*
X100064286Y-86728571D01*
X100092857Y-86757143D01*
X100121429Y-86814286D01*
X100121429Y-86957143D01*
X100092857Y-87014286D01*
X100064286Y-87042857D01*
X100007143Y-87071429D01*
X99835715Y-87071429D01*
X99778572Y-87042857D01*
X99750000Y-87014286D01*
X97385713Y-88071429D02*
X97042856Y-88071429D01*
X97214284Y-88071429D02*
X97214284Y-87471429D01*
X97157141Y-87557143D01*
X97099999Y-87614286D01*
X97042856Y-87642857D01*
X97757142Y-87471429D02*
X97814285Y-87471429D01*
X97871428Y-87500000D01*
X97899999Y-87528571D01*
X97928570Y-87585714D01*
X97957142Y-87700000D01*
X97957142Y-87842857D01*
X97928570Y-87957143D01*
X97899999Y-88014286D01*
X97871428Y-88042857D01*
X97814285Y-88071429D01*
X97757142Y-88071429D01*
X97699999Y-88042857D01*
X97671428Y-88014286D01*
X97642856Y-87957143D01*
X97614285Y-87842857D01*
X97614285Y-87700000D01*
X97642856Y-87585714D01*
X97671428Y-87528571D01*
X97699999Y-87500000D01*
X97757142Y-87471429D01*
X98328571Y-87471429D02*
X98385714Y-87471429D01*
X98442857Y-87500000D01*
X98471428Y-87528571D01*
X98499999Y-87585714D01*
X98528571Y-87700000D01*
X98528571Y-87842857D01*
X98499999Y-87957143D01*
X98471428Y-88014286D01*
X98442857Y-88042857D01*
X98385714Y-88071429D01*
X98328571Y-88071429D01*
X98271428Y-88042857D01*
X98242857Y-88014286D01*
X98214285Y-87957143D01*
X98185714Y-87842857D01*
X98185714Y-87700000D01*
X98214285Y-87585714D01*
X98242857Y-87528571D01*
X98271428Y-87500000D01*
X98328571Y-87471429D01*
X98900000Y-87471429D02*
X98957143Y-87471429D01*
X99014286Y-87500000D01*
X99042857Y-87528571D01*
X99071428Y-87585714D01*
X99100000Y-87700000D01*
X99100000Y-87842857D01*
X99071428Y-87957143D01*
X99042857Y-88014286D01*
X99014286Y-88042857D01*
X98957143Y-88071429D01*
X98900000Y-88071429D01*
X98842857Y-88042857D01*
X98814286Y-88014286D01*
X98785714Y-87957143D01*
X98757143Y-87842857D01*
X98757143Y-87700000D01*
X98785714Y-87585714D01*
X98814286Y-87528571D01*
X98842857Y-87500000D01*
X98900000Y-87471429D01*
X99614286Y-87671429D02*
X99614286Y-88071429D01*
X99357143Y-87671429D02*
X99357143Y-87985714D01*
X99385715Y-88042857D01*
X99442857Y-88071429D01*
X99528572Y-88071429D01*
X99585715Y-88042857D01*
X99614286Y-88014286D01*
X100671429Y-88071429D02*
X100328572Y-88071429D01*
X100500000Y-88071429D02*
X100500000Y-87471429D01*
X100442857Y-87557143D01*
X100385715Y-87614286D01*
X100328572Y-87642857D01*
X101214286Y-87471429D02*
X100928572Y-87471429D01*
X100900001Y-87757143D01*
X100928572Y-87728571D01*
X100985715Y-87700000D01*
X101128572Y-87700000D01*
X101185715Y-87728571D01*
X101214286Y-87757143D01*
X101242858Y-87814286D01*
X101242858Y-87957143D01*
X101214286Y-88014286D01*
X101185715Y-88042857D01*
X101128572Y-88071429D01*
X100985715Y-88071429D01*
X100928572Y-88042857D01*
X100900001Y-88014286D01*
X101414287Y-87471429D02*
X101614287Y-88071429D01*
X101814287Y-87471429D01*
D14*
X102328572Y-91307143D02*
X103471429Y-91307143D01*
X102900000Y-91878571D02*
X102900000Y-90735714D01*
D12*
X101100000Y-75514286D02*
X101071429Y-75542857D01*
X100985715Y-75571429D01*
X100928572Y-75571429D01*
X100842857Y-75542857D01*
X100785715Y-75485714D01*
X100757143Y-75428571D01*
X100728572Y-75314286D01*
X100728572Y-75228571D01*
X100757143Y-75114286D01*
X100785715Y-75057143D01*
X100842857Y-75000000D01*
X100928572Y-74971429D01*
X100985715Y-74971429D01*
X101071429Y-75000000D01*
X101100000Y-75028571D01*
X101614286Y-75171429D02*
X101614286Y-75571429D01*
X101471429Y-74942857D02*
X101328572Y-75371429D01*
X101700000Y-75371429D01*
X101100000Y-76471429D02*
X100757143Y-76471429D01*
X100928571Y-76471429D02*
X100928571Y-75871429D01*
X100871428Y-75957143D01*
X100814286Y-76014286D01*
X100757143Y-76042857D01*
X101614286Y-76071429D02*
X101614286Y-76471429D01*
X101357143Y-76071429D02*
X101357143Y-76385714D01*
X101385715Y-76442857D01*
X101442857Y-76471429D01*
X101528572Y-76471429D01*
X101585715Y-76442857D01*
X101614286Y-76414286D01*
X107000000Y-77714286D02*
X106971429Y-77742857D01*
X106885715Y-77771429D01*
X106828572Y-77771429D01*
X106742857Y-77742857D01*
X106685715Y-77685714D01*
X106657143Y-77628571D01*
X106628572Y-77514286D01*
X106628572Y-77428571D01*
X106657143Y-77314286D01*
X106685715Y-77257143D01*
X106742857Y-77200000D01*
X106828572Y-77171429D01*
X106885715Y-77171429D01*
X106971429Y-77200000D01*
X107000000Y-77228571D01*
X107514286Y-77171429D02*
X107400000Y-77171429D01*
X107342857Y-77200000D01*
X107314286Y-77228571D01*
X107257143Y-77314286D01*
X107228572Y-77428571D01*
X107228572Y-77657143D01*
X107257143Y-77714286D01*
X107285715Y-77742857D01*
X107342857Y-77771429D01*
X107457143Y-77771429D01*
X107514286Y-77742857D01*
X107542857Y-77714286D01*
X107571429Y-77657143D01*
X107571429Y-77514286D01*
X107542857Y-77457143D01*
X107514286Y-77428571D01*
X107457143Y-77400000D01*
X107342857Y-77400000D01*
X107285715Y-77428571D01*
X107257143Y-77457143D01*
X107228572Y-77514286D01*
X103771429Y-77071429D02*
X103828572Y-77071429D01*
X103885715Y-77100000D01*
X103914286Y-77128571D01*
X103942857Y-77185714D01*
X103971429Y-77300000D01*
X103971429Y-77442857D01*
X103942857Y-77557143D01*
X103914286Y-77614286D01*
X103885715Y-77642857D01*
X103828572Y-77671429D01*
X103771429Y-77671429D01*
X103714286Y-77642857D01*
X103685715Y-77614286D01*
X103657143Y-77557143D01*
X103628572Y-77442857D01*
X103628572Y-77300000D01*
X103657143Y-77185714D01*
X103685715Y-77128571D01*
X103714286Y-77100000D01*
X103771429Y-77071429D01*
X104228572Y-77614286D02*
X104257144Y-77642857D01*
X104228572Y-77671429D01*
X104200001Y-77642857D01*
X104228572Y-77614286D01*
X104228572Y-77671429D01*
X104828572Y-77671429D02*
X104485715Y-77671429D01*
X104657143Y-77671429D02*
X104657143Y-77071429D01*
X104600000Y-77157143D01*
X104542858Y-77214286D01*
X104485715Y-77242857D01*
X105342858Y-77271429D02*
X105342858Y-77671429D01*
X105085715Y-77271429D02*
X105085715Y-77585714D01*
X105114287Y-77642857D01*
X105171429Y-77671429D01*
X105257144Y-77671429D01*
X105314287Y-77642857D01*
X105342858Y-77614286D01*
X102614286Y-73900000D02*
X102642857Y-73928571D01*
X102671429Y-74014285D01*
X102671429Y-74071428D01*
X102642857Y-74157143D01*
X102585714Y-74214285D01*
X102528571Y-74242857D01*
X102414286Y-74271428D01*
X102328571Y-74271428D01*
X102214286Y-74242857D01*
X102157143Y-74214285D01*
X102100000Y-74157143D01*
X102071429Y-74071428D01*
X102071429Y-74014285D01*
X102100000Y-73928571D01*
X102128571Y-73900000D01*
X102071429Y-73700000D02*
X102071429Y-73300000D01*
X102671429Y-73557143D01*
X102571429Y-72000000D02*
X102571429Y-72342857D01*
X102571429Y-72171429D02*
X101971429Y-72171429D01*
X102057143Y-72228572D01*
X102114286Y-72285714D01*
X102142857Y-72342857D01*
X102171429Y-71485714D02*
X102571429Y-71485714D01*
X102171429Y-71742857D02*
X102485714Y-71742857D01*
X102542857Y-71714285D01*
X102571429Y-71657143D01*
X102571429Y-71571428D01*
X102542857Y-71514285D01*
X102514286Y-71485714D01*
X102514286Y-97600000D02*
X102542857Y-97628571D01*
X102571429Y-97714285D01*
X102571429Y-97771428D01*
X102542857Y-97857143D01*
X102485714Y-97914285D01*
X102428571Y-97942857D01*
X102314286Y-97971428D01*
X102228571Y-97971428D01*
X102114286Y-97942857D01*
X102057143Y-97914285D01*
X102000000Y-97857143D01*
X101971429Y-97771428D01*
X101971429Y-97714285D01*
X102000000Y-97628571D01*
X102028571Y-97600000D01*
X102228571Y-97257143D02*
X102200000Y-97314285D01*
X102171429Y-97342857D01*
X102114286Y-97371428D01*
X102085714Y-97371428D01*
X102028571Y-97342857D01*
X102000000Y-97314285D01*
X101971429Y-97257143D01*
X101971429Y-97142857D01*
X102000000Y-97085714D01*
X102028571Y-97057143D01*
X102085714Y-97028571D01*
X102114286Y-97028571D01*
X102171429Y-97057143D01*
X102200000Y-97085714D01*
X102228571Y-97142857D01*
X102228571Y-97257143D01*
X102257143Y-97314285D01*
X102285714Y-97342857D01*
X102342857Y-97371428D01*
X102457143Y-97371428D01*
X102514286Y-97342857D01*
X102542857Y-97314285D01*
X102571429Y-97257143D01*
X102571429Y-97142857D01*
X102542857Y-97085714D01*
X102514286Y-97057143D01*
X102457143Y-97028571D01*
X102342857Y-97028571D01*
X102285714Y-97057143D01*
X102257143Y-97085714D01*
X102228571Y-97142857D01*
X103271429Y-98000000D02*
X103271429Y-98342857D01*
X103271429Y-98171429D02*
X102671429Y-98171429D01*
X102757143Y-98228572D01*
X102814286Y-98285714D01*
X102842857Y-98342857D01*
X102871429Y-97742857D02*
X103271429Y-97742857D01*
X102928571Y-97742857D02*
X102900000Y-97714285D01*
X102871429Y-97657143D01*
X102871429Y-97571428D01*
X102900000Y-97514285D01*
X102957143Y-97485714D01*
X103271429Y-97485714D01*
X110514286Y-95800000D02*
X110542857Y-95828571D01*
X110571429Y-95914285D01*
X110571429Y-95971428D01*
X110542857Y-96057143D01*
X110485714Y-96114285D01*
X110428571Y-96142857D01*
X110314286Y-96171428D01*
X110228571Y-96171428D01*
X110114286Y-96142857D01*
X110057143Y-96114285D01*
X110000000Y-96057143D01*
X109971429Y-95971428D01*
X109971429Y-95914285D01*
X110000000Y-95828571D01*
X110028571Y-95800000D01*
X110571429Y-95514285D02*
X110571429Y-95400000D01*
X110542857Y-95342857D01*
X110514286Y-95314285D01*
X110428571Y-95257143D01*
X110314286Y-95228571D01*
X110085714Y-95228571D01*
X110028571Y-95257143D01*
X110000000Y-95285714D01*
X109971429Y-95342857D01*
X109971429Y-95457143D01*
X110000000Y-95514285D01*
X110028571Y-95542857D01*
X110085714Y-95571428D01*
X110228571Y-95571428D01*
X110285714Y-95542857D01*
X110314286Y-95514285D01*
X110342857Y-95457143D01*
X110342857Y-95342857D01*
X110314286Y-95285714D01*
X110285714Y-95257143D01*
X110228571Y-95228571D01*
X106828571Y-96514286D02*
X106800000Y-96485715D01*
X106771429Y-96428572D01*
X106771429Y-96285715D01*
X106800000Y-96228572D01*
X106828571Y-96200001D01*
X106885714Y-96171429D01*
X106942857Y-96171429D01*
X107028571Y-96200001D01*
X107371429Y-96542858D01*
X107371429Y-96171429D01*
X106828571Y-95942857D02*
X106800000Y-95914286D01*
X106771429Y-95857143D01*
X106771429Y-95714286D01*
X106800000Y-95657143D01*
X106828571Y-95628572D01*
X106885714Y-95600000D01*
X106942857Y-95600000D01*
X107028571Y-95628572D01*
X107371429Y-95971429D01*
X107371429Y-95600000D01*
X106771429Y-95228571D02*
X106771429Y-95171428D01*
X106800000Y-95114285D01*
X106828571Y-95085714D01*
X106885714Y-95057143D01*
X107000000Y-95028571D01*
X107142857Y-95028571D01*
X107257143Y-95057143D01*
X107314286Y-95085714D01*
X107342857Y-95114285D01*
X107371429Y-95171428D01*
X107371429Y-95228571D01*
X107342857Y-95285714D01*
X107314286Y-95314285D01*
X107257143Y-95342857D01*
X107142857Y-95371428D01*
X107000000Y-95371428D01*
X106885714Y-95342857D01*
X106828571Y-95314285D01*
X106800000Y-95285714D01*
X106771429Y-95228571D01*
X106971429Y-94514285D02*
X107371429Y-94514285D01*
X106971429Y-94771428D02*
X107285714Y-94771428D01*
X107342857Y-94742856D01*
X107371429Y-94685714D01*
X107371429Y-94599999D01*
X107342857Y-94542856D01*
X107314286Y-94514285D01*
X111514286Y-67885715D02*
X111542857Y-67914286D01*
X111571429Y-68000000D01*
X111571429Y-68057143D01*
X111542857Y-68142858D01*
X111485714Y-68200000D01*
X111428571Y-68228572D01*
X111314286Y-68257143D01*
X111228571Y-68257143D01*
X111114286Y-68228572D01*
X111057143Y-68200000D01*
X111000000Y-68142858D01*
X110971429Y-68057143D01*
X110971429Y-68000000D01*
X111000000Y-67914286D01*
X111028571Y-67885715D01*
X111571429Y-67314286D02*
X111571429Y-67657143D01*
X111571429Y-67485715D02*
X110971429Y-67485715D01*
X111057143Y-67542858D01*
X111114286Y-67600000D01*
X111142857Y-67657143D01*
X110971429Y-66942857D02*
X110971429Y-66885714D01*
X111000000Y-66828571D01*
X111028571Y-66800000D01*
X111085714Y-66771429D01*
X111200000Y-66742857D01*
X111342857Y-66742857D01*
X111457143Y-66771429D01*
X111514286Y-66800000D01*
X111542857Y-66828571D01*
X111571429Y-66885714D01*
X111571429Y-66942857D01*
X111542857Y-67000000D01*
X111514286Y-67028571D01*
X111457143Y-67057143D01*
X111342857Y-67085714D01*
X111200000Y-67085714D01*
X111085714Y-67057143D01*
X111028571Y-67028571D01*
X111000000Y-67000000D01*
X110971429Y-66942857D01*
X112057143Y-69071429D02*
X111714286Y-69071429D01*
X111885714Y-69071429D02*
X111885714Y-68471429D01*
X111828571Y-68557143D01*
X111771429Y-68614286D01*
X111714286Y-68642857D01*
X112428572Y-68471429D02*
X112485715Y-68471429D01*
X112542858Y-68500000D01*
X112571429Y-68528571D01*
X112600000Y-68585714D01*
X112628572Y-68700000D01*
X112628572Y-68842857D01*
X112600000Y-68957143D01*
X112571429Y-69014286D01*
X112542858Y-69042857D01*
X112485715Y-69071429D01*
X112428572Y-69071429D01*
X112371429Y-69042857D01*
X112342858Y-69014286D01*
X112314286Y-68957143D01*
X112285715Y-68842857D01*
X112285715Y-68700000D01*
X112314286Y-68585714D01*
X112342858Y-68528571D01*
X112371429Y-68500000D01*
X112428572Y-68471429D01*
X112885715Y-68671429D02*
X112885715Y-69271429D01*
X112885715Y-68700000D02*
X112942858Y-68671429D01*
X113057144Y-68671429D01*
X113114287Y-68700000D01*
X113142858Y-68728571D01*
X113171429Y-68785714D01*
X113171429Y-68957143D01*
X113142858Y-69014286D01*
X113114287Y-69042857D01*
X113057144Y-69071429D01*
X112942858Y-69071429D01*
X112885715Y-69042857D01*
X113628572Y-68757143D02*
X113428572Y-68757143D01*
X113428572Y-69071429D02*
X113428572Y-68471429D01*
X113714286Y-68471429D01*
X115514286Y-61885715D02*
X115542857Y-61914286D01*
X115571429Y-62000000D01*
X115571429Y-62057143D01*
X115542857Y-62142858D01*
X115485714Y-62200000D01*
X115428571Y-62228572D01*
X115314286Y-62257143D01*
X115228571Y-62257143D01*
X115114286Y-62228572D01*
X115057143Y-62200000D01*
X115000000Y-62142858D01*
X114971429Y-62057143D01*
X114971429Y-62000000D01*
X115000000Y-61914286D01*
X115028571Y-61885715D01*
X115571429Y-61314286D02*
X115571429Y-61657143D01*
X115571429Y-61485715D02*
X114971429Y-61485715D01*
X115057143Y-61542858D01*
X115114286Y-61600000D01*
X115142857Y-61657143D01*
X115571429Y-60742857D02*
X115571429Y-61085714D01*
X115571429Y-60914286D02*
X114971429Y-60914286D01*
X115057143Y-60971429D01*
X115114286Y-61028571D01*
X115142857Y-61085714D01*
X112657143Y-60271429D02*
X112314286Y-60271429D01*
X112485714Y-60271429D02*
X112485714Y-59671429D01*
X112428571Y-59757143D01*
X112371429Y-59814286D01*
X112314286Y-59842857D01*
X113028572Y-59671429D02*
X113085715Y-59671429D01*
X113142858Y-59700000D01*
X113171429Y-59728571D01*
X113200000Y-59785714D01*
X113228572Y-59900000D01*
X113228572Y-60042857D01*
X113200000Y-60157143D01*
X113171429Y-60214286D01*
X113142858Y-60242857D01*
X113085715Y-60271429D01*
X113028572Y-60271429D01*
X112971429Y-60242857D01*
X112942858Y-60214286D01*
X112914286Y-60157143D01*
X112885715Y-60042857D01*
X112885715Y-59900000D01*
X112914286Y-59785714D01*
X112942858Y-59728571D01*
X112971429Y-59700000D01*
X113028572Y-59671429D01*
X113485715Y-59871429D02*
X113485715Y-60471429D01*
X113485715Y-59900000D02*
X113542858Y-59871429D01*
X113657144Y-59871429D01*
X113714287Y-59900000D01*
X113742858Y-59928571D01*
X113771429Y-59985714D01*
X113771429Y-60157143D01*
X113742858Y-60214286D01*
X113714287Y-60242857D01*
X113657144Y-60271429D01*
X113542858Y-60271429D01*
X113485715Y-60242857D01*
X114228572Y-59957143D02*
X114028572Y-59957143D01*
X114028572Y-60271429D02*
X114028572Y-59671429D01*
X114314286Y-59671429D01*
X108314286Y-69885715D02*
X108342857Y-69914286D01*
X108371429Y-70000000D01*
X108371429Y-70057143D01*
X108342857Y-70142858D01*
X108285714Y-70200000D01*
X108228571Y-70228572D01*
X108114286Y-70257143D01*
X108028571Y-70257143D01*
X107914286Y-70228572D01*
X107857143Y-70200000D01*
X107800000Y-70142858D01*
X107771429Y-70057143D01*
X107771429Y-70000000D01*
X107800000Y-69914286D01*
X107828571Y-69885715D01*
X108371429Y-69314286D02*
X108371429Y-69657143D01*
X108371429Y-69485715D02*
X107771429Y-69485715D01*
X107857143Y-69542858D01*
X107914286Y-69600000D01*
X107942857Y-69657143D01*
X107828571Y-69085714D02*
X107800000Y-69057143D01*
X107771429Y-69000000D01*
X107771429Y-68857143D01*
X107800000Y-68800000D01*
X107828571Y-68771429D01*
X107885714Y-68742857D01*
X107942857Y-68742857D01*
X108028571Y-68771429D01*
X108371429Y-69114286D01*
X108371429Y-68742857D01*
X108571429Y-67171429D02*
X108628572Y-67171429D01*
X108685715Y-67200000D01*
X108714286Y-67228571D01*
X108742857Y-67285714D01*
X108771429Y-67400000D01*
X108771429Y-67542857D01*
X108742857Y-67657143D01*
X108714286Y-67714286D01*
X108685715Y-67742857D01*
X108628572Y-67771429D01*
X108571429Y-67771429D01*
X108514286Y-67742857D01*
X108485715Y-67714286D01*
X108457143Y-67657143D01*
X108428572Y-67542857D01*
X108428572Y-67400000D01*
X108457143Y-67285714D01*
X108485715Y-67228571D01*
X108514286Y-67200000D01*
X108571429Y-67171429D01*
X109028572Y-67714286D02*
X109057144Y-67742857D01*
X109028572Y-67771429D01*
X109000001Y-67742857D01*
X109028572Y-67714286D01*
X109028572Y-67771429D01*
X109628572Y-67771429D02*
X109285715Y-67771429D01*
X109457143Y-67771429D02*
X109457143Y-67171429D01*
X109400000Y-67257143D01*
X109342858Y-67314286D01*
X109285715Y-67342857D01*
X110142858Y-67371429D02*
X110142858Y-67771429D01*
X109885715Y-67371429D02*
X109885715Y-67685714D01*
X109914287Y-67742857D01*
X109971429Y-67771429D01*
X110057144Y-67771429D01*
X110114287Y-67742857D01*
X110142858Y-67714286D01*
X111314286Y-71485715D02*
X111342857Y-71514286D01*
X111371429Y-71600000D01*
X111371429Y-71657143D01*
X111342857Y-71742858D01*
X111285714Y-71800000D01*
X111228571Y-71828572D01*
X111114286Y-71857143D01*
X111028571Y-71857143D01*
X110914286Y-71828572D01*
X110857143Y-71800000D01*
X110800000Y-71742858D01*
X110771429Y-71657143D01*
X110771429Y-71600000D01*
X110800000Y-71514286D01*
X110828571Y-71485715D01*
X111371429Y-70914286D02*
X111371429Y-71257143D01*
X111371429Y-71085715D02*
X110771429Y-71085715D01*
X110857143Y-71142858D01*
X110914286Y-71200000D01*
X110942857Y-71257143D01*
X110771429Y-70714286D02*
X110771429Y-70342857D01*
X111000000Y-70542857D01*
X111000000Y-70457143D01*
X111028571Y-70400000D01*
X111057143Y-70371429D01*
X111114286Y-70342857D01*
X111257143Y-70342857D01*
X111314286Y-70371429D01*
X111342857Y-70400000D01*
X111371429Y-70457143D01*
X111371429Y-70628571D01*
X111342857Y-70685714D01*
X111314286Y-70714286D01*
X111871429Y-71485714D02*
X112271429Y-71485714D01*
X111642857Y-71628571D02*
X112071429Y-71771428D01*
X112071429Y-71400000D01*
X112214286Y-71171428D02*
X112242857Y-71142856D01*
X112271429Y-71171428D01*
X112242857Y-71199999D01*
X112214286Y-71171428D01*
X112271429Y-71171428D01*
X111671429Y-70942857D02*
X111671429Y-70542857D01*
X112271429Y-70800000D01*
X111871429Y-70057142D02*
X112271429Y-70057142D01*
X111871429Y-70314285D02*
X112185714Y-70314285D01*
X112242857Y-70285713D01*
X112271429Y-70228571D01*
X112271429Y-70142856D01*
X112242857Y-70085713D01*
X112214286Y-70057142D01*
X99814285Y-62514286D02*
X99785714Y-62542857D01*
X99700000Y-62571429D01*
X99642857Y-62571429D01*
X99557142Y-62542857D01*
X99500000Y-62485714D01*
X99471428Y-62428571D01*
X99442857Y-62314286D01*
X99442857Y-62228571D01*
X99471428Y-62114286D01*
X99500000Y-62057143D01*
X99557142Y-62000000D01*
X99642857Y-61971429D01*
X99700000Y-61971429D01*
X99785714Y-62000000D01*
X99814285Y-62028571D01*
X100385714Y-62571429D02*
X100042857Y-62571429D01*
X100214285Y-62571429D02*
X100214285Y-61971429D01*
X100157142Y-62057143D01*
X100100000Y-62114286D01*
X100042857Y-62142857D01*
X100900000Y-62171429D02*
X100900000Y-62571429D01*
X100757143Y-61942857D02*
X100614286Y-62371429D01*
X100985714Y-62371429D01*
X98728571Y-60828571D02*
X98757142Y-60800000D01*
X98814285Y-60771429D01*
X98957142Y-60771429D01*
X99014285Y-60800000D01*
X99042856Y-60828571D01*
X99071428Y-60885714D01*
X99071428Y-60942857D01*
X99042856Y-61028571D01*
X98699999Y-61371429D01*
X99071428Y-61371429D01*
X99300000Y-60828571D02*
X99328571Y-60800000D01*
X99385714Y-60771429D01*
X99528571Y-60771429D01*
X99585714Y-60800000D01*
X99614285Y-60828571D01*
X99642857Y-60885714D01*
X99642857Y-60942857D01*
X99614285Y-61028571D01*
X99271428Y-61371429D01*
X99642857Y-61371429D01*
X100014286Y-60771429D02*
X100071429Y-60771429D01*
X100128572Y-60800000D01*
X100157143Y-60828571D01*
X100185714Y-60885714D01*
X100214286Y-61000000D01*
X100214286Y-61142857D01*
X100185714Y-61257143D01*
X100157143Y-61314286D01*
X100128572Y-61342857D01*
X100071429Y-61371429D01*
X100014286Y-61371429D01*
X99957143Y-61342857D01*
X99928572Y-61314286D01*
X99900000Y-61257143D01*
X99871429Y-61142857D01*
X99871429Y-61000000D01*
X99900000Y-60885714D01*
X99928572Y-60828571D01*
X99957143Y-60800000D01*
X100014286Y-60771429D01*
X100471429Y-60971429D02*
X100471429Y-61571429D01*
X100471429Y-61000000D02*
X100528572Y-60971429D01*
X100642858Y-60971429D01*
X100700001Y-61000000D01*
X100728572Y-61028571D01*
X100757143Y-61085714D01*
X100757143Y-61257143D01*
X100728572Y-61314286D01*
X100700001Y-61342857D01*
X100642858Y-61371429D01*
X100528572Y-61371429D01*
X100471429Y-61342857D01*
X101214286Y-61057143D02*
X101014286Y-61057143D01*
X101014286Y-61371429D02*
X101014286Y-60771429D01*
X101300000Y-60771429D01*
X110444286Y-78349215D02*
X110472857Y-78377786D01*
X110501429Y-78463500D01*
X110501429Y-78520643D01*
X110472857Y-78606358D01*
X110415714Y-78663500D01*
X110358571Y-78692072D01*
X110244286Y-78720643D01*
X110158571Y-78720643D01*
X110044286Y-78692072D01*
X109987143Y-78663500D01*
X109930000Y-78606358D01*
X109901429Y-78520643D01*
X109901429Y-78463500D01*
X109930000Y-78377786D01*
X109958571Y-78349215D01*
X110501429Y-77777786D02*
X110501429Y-78120643D01*
X110501429Y-77949215D02*
X109901429Y-77949215D01*
X109987143Y-78006358D01*
X110044286Y-78063500D01*
X110072857Y-78120643D01*
X109901429Y-77234929D02*
X109901429Y-77520643D01*
X110187143Y-77549214D01*
X110158571Y-77520643D01*
X110130000Y-77463500D01*
X110130000Y-77320643D01*
X110158571Y-77263500D01*
X110187143Y-77234929D01*
X110244286Y-77206357D01*
X110387143Y-77206357D01*
X110444286Y-77234929D01*
X110472857Y-77263500D01*
X110501429Y-77320643D01*
X110501429Y-77463500D01*
X110472857Y-77520643D01*
X110444286Y-77549214D01*
X110771429Y-79571429D02*
X110828572Y-79571429D01*
X110885715Y-79600000D01*
X110914286Y-79628571D01*
X110942857Y-79685714D01*
X110971429Y-79800000D01*
X110971429Y-79942857D01*
X110942857Y-80057143D01*
X110914286Y-80114286D01*
X110885715Y-80142857D01*
X110828572Y-80171429D01*
X110771429Y-80171429D01*
X110714286Y-80142857D01*
X110685715Y-80114286D01*
X110657143Y-80057143D01*
X110628572Y-79942857D01*
X110628572Y-79800000D01*
X110657143Y-79685714D01*
X110685715Y-79628571D01*
X110714286Y-79600000D01*
X110771429Y-79571429D01*
X111228572Y-80114286D02*
X111257144Y-80142857D01*
X111228572Y-80171429D01*
X111200001Y-80142857D01*
X111228572Y-80114286D01*
X111228572Y-80171429D01*
X111828572Y-80171429D02*
X111485715Y-80171429D01*
X111657143Y-80171429D02*
X111657143Y-79571429D01*
X111600000Y-79657143D01*
X111542858Y-79714286D01*
X111485715Y-79742857D01*
X112342858Y-79771429D02*
X112342858Y-80171429D01*
X112085715Y-79771429D02*
X112085715Y-80085714D01*
X112114287Y-80142857D01*
X112171429Y-80171429D01*
X112257144Y-80171429D01*
X112314287Y-80142857D01*
X112342858Y-80114286D01*
X98514285Y-60014286D02*
X98485714Y-60042857D01*
X98400000Y-60071429D01*
X98342857Y-60071429D01*
X98257142Y-60042857D01*
X98200000Y-59985714D01*
X98171428Y-59928571D01*
X98142857Y-59814286D01*
X98142857Y-59728571D01*
X98171428Y-59614286D01*
X98200000Y-59557143D01*
X98257142Y-59500000D01*
X98342857Y-59471429D01*
X98400000Y-59471429D01*
X98485714Y-59500000D01*
X98514285Y-59528571D01*
X99085714Y-60071429D02*
X98742857Y-60071429D01*
X98914285Y-60071429D02*
X98914285Y-59471429D01*
X98857142Y-59557143D01*
X98800000Y-59614286D01*
X98742857Y-59642857D01*
X99600000Y-59471429D02*
X99485714Y-59471429D01*
X99428571Y-59500000D01*
X99400000Y-59528571D01*
X99342857Y-59614286D01*
X99314286Y-59728571D01*
X99314286Y-59957143D01*
X99342857Y-60014286D01*
X99371429Y-60042857D01*
X99428571Y-60071429D01*
X99542857Y-60071429D01*
X99600000Y-60042857D01*
X99628571Y-60014286D01*
X99657143Y-59957143D01*
X99657143Y-59814286D01*
X99628571Y-59757143D01*
X99600000Y-59728571D01*
X99542857Y-59700000D01*
X99428571Y-59700000D01*
X99371429Y-59728571D01*
X99342857Y-59757143D01*
X99314286Y-59814286D01*
X100815226Y-58671889D02*
X100472369Y-58671889D01*
X100643797Y-58671889D02*
X100643797Y-58071889D01*
X100586654Y-58157603D01*
X100529512Y-58214746D01*
X100472369Y-58243317D01*
X101186655Y-58071889D02*
X101243798Y-58071889D01*
X101300941Y-58100460D01*
X101329512Y-58129031D01*
X101358083Y-58186174D01*
X101386655Y-58300460D01*
X101386655Y-58443317D01*
X101358083Y-58557603D01*
X101329512Y-58614746D01*
X101300941Y-58643317D01*
X101243798Y-58671889D01*
X101186655Y-58671889D01*
X101129512Y-58643317D01*
X101100941Y-58614746D01*
X101072369Y-58557603D01*
X101043798Y-58443317D01*
X101043798Y-58300460D01*
X101072369Y-58186174D01*
X101100941Y-58129031D01*
X101129512Y-58100460D01*
X101186655Y-58071889D01*
X101643798Y-58271889D02*
X101643798Y-58671889D01*
X101643798Y-58329031D02*
X101672370Y-58300460D01*
X101729512Y-58271889D01*
X101815227Y-58271889D01*
X101872370Y-58300460D01*
X101900941Y-58357603D01*
X101900941Y-58671889D01*
X122114285Y-80214286D02*
X122085714Y-80242857D01*
X122000000Y-80271429D01*
X121942857Y-80271429D01*
X121857142Y-80242857D01*
X121800000Y-80185714D01*
X121771428Y-80128571D01*
X121742857Y-80014286D01*
X121742857Y-79928571D01*
X121771428Y-79814286D01*
X121800000Y-79757143D01*
X121857142Y-79700000D01*
X121942857Y-79671429D01*
X122000000Y-79671429D01*
X122085714Y-79700000D01*
X122114285Y-79728571D01*
X122685714Y-80271429D02*
X122342857Y-80271429D01*
X122514285Y-80271429D02*
X122514285Y-79671429D01*
X122457142Y-79757143D01*
X122400000Y-79814286D01*
X122342857Y-79842857D01*
X122885714Y-79671429D02*
X123285714Y-79671429D01*
X123028571Y-80271429D01*
X122971429Y-80971429D02*
X123028572Y-80971429D01*
X123085715Y-81000000D01*
X123114286Y-81028571D01*
X123142857Y-81085714D01*
X123171429Y-81200000D01*
X123171429Y-81342857D01*
X123142857Y-81457143D01*
X123114286Y-81514286D01*
X123085715Y-81542857D01*
X123028572Y-81571429D01*
X122971429Y-81571429D01*
X122914286Y-81542857D01*
X122885715Y-81514286D01*
X122857143Y-81457143D01*
X122828572Y-81342857D01*
X122828572Y-81200000D01*
X122857143Y-81085714D01*
X122885715Y-81028571D01*
X122914286Y-81000000D01*
X122971429Y-80971429D01*
X123428572Y-81514286D02*
X123457144Y-81542857D01*
X123428572Y-81571429D01*
X123400001Y-81542857D01*
X123428572Y-81514286D01*
X123428572Y-81571429D01*
X124028572Y-81571429D02*
X123685715Y-81571429D01*
X123857143Y-81571429D02*
X123857143Y-80971429D01*
X123800000Y-81057143D01*
X123742858Y-81114286D01*
X123685715Y-81142857D01*
X124542858Y-81171429D02*
X124542858Y-81571429D01*
X124285715Y-81171429D02*
X124285715Y-81485714D01*
X124314287Y-81542857D01*
X124371429Y-81571429D01*
X124457144Y-81571429D01*
X124514287Y-81542857D01*
X124542858Y-81514286D01*
X110014286Y-57285715D02*
X110042857Y-57314286D01*
X110071429Y-57400000D01*
X110071429Y-57457143D01*
X110042857Y-57542858D01*
X109985714Y-57600000D01*
X109928571Y-57628572D01*
X109814286Y-57657143D01*
X109728571Y-57657143D01*
X109614286Y-57628572D01*
X109557143Y-57600000D01*
X109500000Y-57542858D01*
X109471429Y-57457143D01*
X109471429Y-57400000D01*
X109500000Y-57314286D01*
X109528571Y-57285715D01*
X110071429Y-56714286D02*
X110071429Y-57057143D01*
X110071429Y-56885715D02*
X109471429Y-56885715D01*
X109557143Y-56942858D01*
X109614286Y-57000000D01*
X109642857Y-57057143D01*
X109728571Y-56371429D02*
X109700000Y-56428571D01*
X109671429Y-56457143D01*
X109614286Y-56485714D01*
X109585714Y-56485714D01*
X109528571Y-56457143D01*
X109500000Y-56428571D01*
X109471429Y-56371429D01*
X109471429Y-56257143D01*
X109500000Y-56200000D01*
X109528571Y-56171429D01*
X109585714Y-56142857D01*
X109614286Y-56142857D01*
X109671429Y-56171429D01*
X109700000Y-56200000D01*
X109728571Y-56257143D01*
X109728571Y-56371429D01*
X109757143Y-56428571D01*
X109785714Y-56457143D01*
X109842857Y-56485714D01*
X109957143Y-56485714D01*
X110014286Y-56457143D01*
X110042857Y-56428571D01*
X110071429Y-56371429D01*
X110071429Y-56257143D01*
X110042857Y-56200000D01*
X110014286Y-56171429D01*
X109957143Y-56142857D01*
X109842857Y-56142857D01*
X109785714Y-56171429D01*
X109757143Y-56200000D01*
X109728571Y-56257143D01*
X110470969Y-60458083D02*
X110470969Y-60086654D01*
X110699540Y-60286654D01*
X110699540Y-60200940D01*
X110728111Y-60143797D01*
X110756683Y-60115226D01*
X110813826Y-60086654D01*
X110956683Y-60086654D01*
X111013826Y-60115226D01*
X111042397Y-60143797D01*
X111070969Y-60200940D01*
X111070969Y-60372368D01*
X111042397Y-60429511D01*
X111013826Y-60458083D01*
X111013826Y-59829511D02*
X111042397Y-59800939D01*
X111070969Y-59829511D01*
X111042397Y-59858082D01*
X111013826Y-59829511D01*
X111070969Y-59829511D01*
X110470969Y-59600940D02*
X110470969Y-59229511D01*
X110699540Y-59429511D01*
X110699540Y-59343797D01*
X110728111Y-59286654D01*
X110756683Y-59258083D01*
X110813826Y-59229511D01*
X110956683Y-59229511D01*
X111013826Y-59258083D01*
X111042397Y-59286654D01*
X111070969Y-59343797D01*
X111070969Y-59515225D01*
X111042397Y-59572368D01*
X111013826Y-59600940D01*
X110670969Y-58972368D02*
X111270969Y-58972368D01*
X110699540Y-58972368D02*
X110670969Y-58915225D01*
X110670969Y-58800939D01*
X110699540Y-58743796D01*
X110728111Y-58715225D01*
X110785254Y-58686654D01*
X110956683Y-58686654D01*
X111013826Y-58715225D01*
X111042397Y-58743796D01*
X111070969Y-58800939D01*
X111070969Y-58915225D01*
X111042397Y-58972368D01*
X110756683Y-58229511D02*
X110756683Y-58429511D01*
X111070969Y-58429511D02*
X110470969Y-58429511D01*
X110470969Y-58143797D01*
X126184286Y-72522215D02*
X126212857Y-72550786D01*
X126241429Y-72636500D01*
X126241429Y-72693643D01*
X126212857Y-72779358D01*
X126155714Y-72836500D01*
X126098571Y-72865072D01*
X125984286Y-72893643D01*
X125898571Y-72893643D01*
X125784286Y-72865072D01*
X125727143Y-72836500D01*
X125670000Y-72779358D01*
X125641429Y-72693643D01*
X125641429Y-72636500D01*
X125670000Y-72550786D01*
X125698571Y-72522215D01*
X126241429Y-71950786D02*
X126241429Y-72293643D01*
X126241429Y-72122215D02*
X125641429Y-72122215D01*
X125727143Y-72179358D01*
X125784286Y-72236500D01*
X125812857Y-72293643D01*
X126241429Y-71665071D02*
X126241429Y-71550786D01*
X126212857Y-71493643D01*
X126184286Y-71465071D01*
X126098571Y-71407929D01*
X125984286Y-71379357D01*
X125755714Y-71379357D01*
X125698571Y-71407929D01*
X125670000Y-71436500D01*
X125641429Y-71493643D01*
X125641429Y-71607929D01*
X125670000Y-71665071D01*
X125698571Y-71693643D01*
X125755714Y-71722214D01*
X125898571Y-71722214D01*
X125955714Y-71693643D01*
X125984286Y-71665071D01*
X126012857Y-71607929D01*
X126012857Y-71493643D01*
X125984286Y-71436500D01*
X125955714Y-71407929D01*
X125898571Y-71379357D01*
X124371429Y-70328571D02*
X124371429Y-70271428D01*
X124400000Y-70214285D01*
X124428571Y-70185714D01*
X124485714Y-70157143D01*
X124600000Y-70128571D01*
X124742857Y-70128571D01*
X124857143Y-70157143D01*
X124914286Y-70185714D01*
X124942857Y-70214285D01*
X124971429Y-70271428D01*
X124971429Y-70328571D01*
X124942857Y-70385714D01*
X124914286Y-70414285D01*
X124857143Y-70442857D01*
X124742857Y-70471428D01*
X124600000Y-70471428D01*
X124485714Y-70442857D01*
X124428571Y-70414285D01*
X124400000Y-70385714D01*
X124371429Y-70328571D01*
X124914286Y-69871428D02*
X124942857Y-69842856D01*
X124971429Y-69871428D01*
X124942857Y-69899999D01*
X124914286Y-69871428D01*
X124971429Y-69871428D01*
X124971429Y-69271428D02*
X124971429Y-69614285D01*
X124971429Y-69442857D02*
X124371429Y-69442857D01*
X124457143Y-69500000D01*
X124514286Y-69557142D01*
X124542857Y-69614285D01*
X124571429Y-68757142D02*
X124971429Y-68757142D01*
X124571429Y-69014285D02*
X124885714Y-69014285D01*
X124942857Y-68985713D01*
X124971429Y-68928571D01*
X124971429Y-68842856D01*
X124942857Y-68785713D01*
X124914286Y-68757142D01*
X110414286Y-62585715D02*
X110442857Y-62614286D01*
X110471429Y-62700000D01*
X110471429Y-62757143D01*
X110442857Y-62842858D01*
X110385714Y-62900000D01*
X110328571Y-62928572D01*
X110214286Y-62957143D01*
X110128571Y-62957143D01*
X110014286Y-62928572D01*
X109957143Y-62900000D01*
X109900000Y-62842858D01*
X109871429Y-62757143D01*
X109871429Y-62700000D01*
X109900000Y-62614286D01*
X109928571Y-62585715D01*
X109928571Y-62357143D02*
X109900000Y-62328572D01*
X109871429Y-62271429D01*
X109871429Y-62128572D01*
X109900000Y-62071429D01*
X109928571Y-62042858D01*
X109985714Y-62014286D01*
X110042857Y-62014286D01*
X110128571Y-62042858D01*
X110471429Y-62385715D01*
X110471429Y-62014286D01*
X109871429Y-61642857D02*
X109871429Y-61585714D01*
X109900000Y-61528571D01*
X109928571Y-61500000D01*
X109985714Y-61471429D01*
X110100000Y-61442857D01*
X110242857Y-61442857D01*
X110357143Y-61471429D01*
X110414286Y-61500000D01*
X110442857Y-61528571D01*
X110471429Y-61585714D01*
X110471429Y-61642857D01*
X110442857Y-61700000D01*
X110414286Y-61728571D01*
X110357143Y-61757143D01*
X110242857Y-61785714D01*
X110100000Y-61785714D01*
X109985714Y-61757143D01*
X109928571Y-61728571D01*
X109900000Y-61700000D01*
X109871429Y-61642857D01*
X109071889Y-65184774D02*
X109071889Y-65527631D01*
X109071889Y-65356203D02*
X108471889Y-65356203D01*
X108557603Y-65413346D01*
X108614746Y-65470488D01*
X108643317Y-65527631D01*
X108471889Y-64813345D02*
X108471889Y-64756202D01*
X108500460Y-64699059D01*
X108529031Y-64670488D01*
X108586174Y-64641917D01*
X108700460Y-64613345D01*
X108843317Y-64613345D01*
X108957603Y-64641917D01*
X109014746Y-64670488D01*
X109043317Y-64699059D01*
X109071889Y-64756202D01*
X109071889Y-64813345D01*
X109043317Y-64870488D01*
X109014746Y-64899059D01*
X108957603Y-64927631D01*
X108843317Y-64956202D01*
X108700460Y-64956202D01*
X108586174Y-64927631D01*
X108529031Y-64899059D01*
X108500460Y-64870488D01*
X108471889Y-64813345D01*
X108671889Y-64356202D02*
X109071889Y-64356202D01*
X108729031Y-64356202D02*
X108700460Y-64327630D01*
X108671889Y-64270488D01*
X108671889Y-64184773D01*
X108700460Y-64127630D01*
X108757603Y-64099059D01*
X109071889Y-64099059D01*
X120914285Y-68514286D02*
X120885714Y-68542857D01*
X120800000Y-68571429D01*
X120742857Y-68571429D01*
X120657142Y-68542857D01*
X120600000Y-68485714D01*
X120571428Y-68428571D01*
X120542857Y-68314286D01*
X120542857Y-68228571D01*
X120571428Y-68114286D01*
X120600000Y-68057143D01*
X120657142Y-68000000D01*
X120742857Y-67971429D01*
X120800000Y-67971429D01*
X120885714Y-68000000D01*
X120914285Y-68028571D01*
X121142857Y-68028571D02*
X121171428Y-68000000D01*
X121228571Y-67971429D01*
X121371428Y-67971429D01*
X121428571Y-68000000D01*
X121457142Y-68028571D01*
X121485714Y-68085714D01*
X121485714Y-68142857D01*
X121457142Y-68228571D01*
X121114285Y-68571429D01*
X121485714Y-68571429D01*
X122057143Y-68571429D02*
X121714286Y-68571429D01*
X121885714Y-68571429D02*
X121885714Y-67971429D01*
X121828571Y-68057143D01*
X121771429Y-68114286D01*
X121714286Y-68142857D01*
X115014286Y-69471429D02*
X114671429Y-69471429D01*
X114842857Y-69471429D02*
X114842857Y-68871429D01*
X114785714Y-68957143D01*
X114728572Y-69014286D01*
X114671429Y-69042857D01*
X115385715Y-68871429D02*
X115442858Y-68871429D01*
X115500001Y-68900000D01*
X115528572Y-68928571D01*
X115557143Y-68985714D01*
X115585715Y-69100000D01*
X115585715Y-69242857D01*
X115557143Y-69357143D01*
X115528572Y-69414286D01*
X115500001Y-69442857D01*
X115442858Y-69471429D01*
X115385715Y-69471429D01*
X115328572Y-69442857D01*
X115300001Y-69414286D01*
X115271429Y-69357143D01*
X115242858Y-69242857D01*
X115242858Y-69100000D01*
X115271429Y-68985714D01*
X115300001Y-68928571D01*
X115328572Y-68900000D01*
X115385715Y-68871429D01*
X115842858Y-69071429D02*
X115842858Y-69471429D01*
X115842858Y-69128571D02*
X115871430Y-69100000D01*
X115928572Y-69071429D01*
X116014287Y-69071429D01*
X116071430Y-69100000D01*
X116100001Y-69157143D01*
X116100001Y-69471429D01*
X106114286Y-69885715D02*
X106142857Y-69914286D01*
X106171429Y-70000000D01*
X106171429Y-70057143D01*
X106142857Y-70142858D01*
X106085714Y-70200000D01*
X106028571Y-70228572D01*
X105914286Y-70257143D01*
X105828571Y-70257143D01*
X105714286Y-70228572D01*
X105657143Y-70200000D01*
X105600000Y-70142858D01*
X105571429Y-70057143D01*
X105571429Y-70000000D01*
X105600000Y-69914286D01*
X105628571Y-69885715D01*
X105628571Y-69657143D02*
X105600000Y-69628572D01*
X105571429Y-69571429D01*
X105571429Y-69428572D01*
X105600000Y-69371429D01*
X105628571Y-69342858D01*
X105685714Y-69314286D01*
X105742857Y-69314286D01*
X105828571Y-69342858D01*
X106171429Y-69685715D01*
X106171429Y-69314286D01*
X105628571Y-69085714D02*
X105600000Y-69057143D01*
X105571429Y-69000000D01*
X105571429Y-68857143D01*
X105600000Y-68800000D01*
X105628571Y-68771429D01*
X105685714Y-68742857D01*
X105742857Y-68742857D01*
X105828571Y-68771429D01*
X106171429Y-69114286D01*
X106171429Y-68742857D01*
X104271429Y-70828571D02*
X104271429Y-70771428D01*
X104300000Y-70714285D01*
X104328571Y-70685714D01*
X104385714Y-70657143D01*
X104500000Y-70628571D01*
X104642857Y-70628571D01*
X104757143Y-70657143D01*
X104814286Y-70685714D01*
X104842857Y-70714285D01*
X104871429Y-70771428D01*
X104871429Y-70828571D01*
X104842857Y-70885714D01*
X104814286Y-70914285D01*
X104757143Y-70942857D01*
X104642857Y-70971428D01*
X104500000Y-70971428D01*
X104385714Y-70942857D01*
X104328571Y-70914285D01*
X104300000Y-70885714D01*
X104271429Y-70828571D01*
X104814286Y-70371428D02*
X104842857Y-70342856D01*
X104871429Y-70371428D01*
X104842857Y-70399999D01*
X104814286Y-70371428D01*
X104871429Y-70371428D01*
X104871429Y-69771428D02*
X104871429Y-70114285D01*
X104871429Y-69942857D02*
X104271429Y-69942857D01*
X104357143Y-70000000D01*
X104414286Y-70057142D01*
X104442857Y-70114285D01*
X104471429Y-69257142D02*
X104871429Y-69257142D01*
X104471429Y-69514285D02*
X104785714Y-69514285D01*
X104842857Y-69485713D01*
X104871429Y-69428571D01*
X104871429Y-69342856D01*
X104842857Y-69285713D01*
X104814286Y-69257142D01*
X119314285Y-66714286D02*
X119285714Y-66742857D01*
X119200000Y-66771429D01*
X119142857Y-66771429D01*
X119057142Y-66742857D01*
X119000000Y-66685714D01*
X118971428Y-66628571D01*
X118942857Y-66514286D01*
X118942857Y-66428571D01*
X118971428Y-66314286D01*
X119000000Y-66257143D01*
X119057142Y-66200000D01*
X119142857Y-66171429D01*
X119200000Y-66171429D01*
X119285714Y-66200000D01*
X119314285Y-66228571D01*
X119542857Y-66228571D02*
X119571428Y-66200000D01*
X119628571Y-66171429D01*
X119771428Y-66171429D01*
X119828571Y-66200000D01*
X119857142Y-66228571D01*
X119885714Y-66285714D01*
X119885714Y-66342857D01*
X119857142Y-66428571D01*
X119514285Y-66771429D01*
X119885714Y-66771429D01*
X120085714Y-66171429D02*
X120457143Y-66171429D01*
X120257143Y-66400000D01*
X120342857Y-66400000D01*
X120400000Y-66428571D01*
X120428571Y-66457143D01*
X120457143Y-66514286D01*
X120457143Y-66657143D01*
X120428571Y-66714286D01*
X120400000Y-66742857D01*
X120342857Y-66771429D01*
X120171429Y-66771429D01*
X120114286Y-66742857D01*
X120085714Y-66714286D01*
X118100000Y-65471429D02*
X117757143Y-65471429D01*
X117928571Y-65471429D02*
X117928571Y-64871429D01*
X117871428Y-64957143D01*
X117814286Y-65014286D01*
X117757143Y-65042857D01*
X118614286Y-65071429D02*
X118614286Y-65471429D01*
X118357143Y-65071429D02*
X118357143Y-65385714D01*
X118385715Y-65442857D01*
X118442857Y-65471429D01*
X118528572Y-65471429D01*
X118585715Y-65442857D01*
X118614286Y-65414286D01*
X99914285Y-65814286D02*
X99885714Y-65842857D01*
X99800000Y-65871429D01*
X99742857Y-65871429D01*
X99657142Y-65842857D01*
X99600000Y-65785714D01*
X99571428Y-65728571D01*
X99542857Y-65614286D01*
X99542857Y-65528571D01*
X99571428Y-65414286D01*
X99600000Y-65357143D01*
X99657142Y-65300000D01*
X99742857Y-65271429D01*
X99800000Y-65271429D01*
X99885714Y-65300000D01*
X99914285Y-65328571D01*
X100142857Y-65328571D02*
X100171428Y-65300000D01*
X100228571Y-65271429D01*
X100371428Y-65271429D01*
X100428571Y-65300000D01*
X100457142Y-65328571D01*
X100485714Y-65385714D01*
X100485714Y-65442857D01*
X100457142Y-65528571D01*
X100114285Y-65871429D01*
X100485714Y-65871429D01*
X101000000Y-65471429D02*
X101000000Y-65871429D01*
X100857143Y-65242857D02*
X100714286Y-65671429D01*
X101085714Y-65671429D01*
X99028571Y-66528571D02*
X99057142Y-66500000D01*
X99114285Y-66471429D01*
X99257142Y-66471429D01*
X99314285Y-66500000D01*
X99342856Y-66528571D01*
X99371428Y-66585714D01*
X99371428Y-66642857D01*
X99342856Y-66728571D01*
X98999999Y-67071429D01*
X99371428Y-67071429D01*
X99600000Y-66528571D02*
X99628571Y-66500000D01*
X99685714Y-66471429D01*
X99828571Y-66471429D01*
X99885714Y-66500000D01*
X99914285Y-66528571D01*
X99942857Y-66585714D01*
X99942857Y-66642857D01*
X99914285Y-66728571D01*
X99571428Y-67071429D01*
X99942857Y-67071429D01*
X100314286Y-66471429D02*
X100371429Y-66471429D01*
X100428572Y-66500000D01*
X100457143Y-66528571D01*
X100485714Y-66585714D01*
X100514286Y-66700000D01*
X100514286Y-66842857D01*
X100485714Y-66957143D01*
X100457143Y-67014286D01*
X100428572Y-67042857D01*
X100371429Y-67071429D01*
X100314286Y-67071429D01*
X100257143Y-67042857D01*
X100228572Y-67014286D01*
X100200000Y-66957143D01*
X100171429Y-66842857D01*
X100171429Y-66700000D01*
X100200000Y-66585714D01*
X100228572Y-66528571D01*
X100257143Y-66500000D01*
X100314286Y-66471429D01*
X100771429Y-66671429D02*
X100771429Y-67271429D01*
X100771429Y-66700000D02*
X100828572Y-66671429D01*
X100942858Y-66671429D01*
X101000001Y-66700000D01*
X101028572Y-66728571D01*
X101057143Y-66785714D01*
X101057143Y-66957143D01*
X101028572Y-67014286D01*
X101000001Y-67042857D01*
X100942858Y-67071429D01*
X100828572Y-67071429D01*
X100771429Y-67042857D01*
X101514286Y-66757143D02*
X101314286Y-66757143D01*
X101314286Y-67071429D02*
X101314286Y-66471429D01*
X101600000Y-66471429D01*
X107314286Y-57085715D02*
X107342857Y-57114286D01*
X107371429Y-57200000D01*
X107371429Y-57257143D01*
X107342857Y-57342858D01*
X107285714Y-57400000D01*
X107228571Y-57428572D01*
X107114286Y-57457143D01*
X107028571Y-57457143D01*
X106914286Y-57428572D01*
X106857143Y-57400000D01*
X106800000Y-57342858D01*
X106771429Y-57257143D01*
X106771429Y-57200000D01*
X106800000Y-57114286D01*
X106828571Y-57085715D01*
X106828571Y-56857143D02*
X106800000Y-56828572D01*
X106771429Y-56771429D01*
X106771429Y-56628572D01*
X106800000Y-56571429D01*
X106828571Y-56542858D01*
X106885714Y-56514286D01*
X106942857Y-56514286D01*
X107028571Y-56542858D01*
X107371429Y-56885715D01*
X107371429Y-56514286D01*
X106771429Y-55971429D02*
X106771429Y-56257143D01*
X107057143Y-56285714D01*
X107028571Y-56257143D01*
X107000000Y-56200000D01*
X107000000Y-56057143D01*
X107028571Y-56000000D01*
X107057143Y-55971429D01*
X107114286Y-55942857D01*
X107257143Y-55942857D01*
X107314286Y-55971429D01*
X107342857Y-56000000D01*
X107371429Y-56057143D01*
X107371429Y-56200000D01*
X107342857Y-56257143D01*
X107314286Y-56285714D01*
X107214285Y-54914286D02*
X107185714Y-54942857D01*
X107100000Y-54971429D01*
X107042857Y-54971429D01*
X106957142Y-54942857D01*
X106900000Y-54885714D01*
X106871428Y-54828571D01*
X106842857Y-54714286D01*
X106842857Y-54628571D01*
X106871428Y-54514286D01*
X106900000Y-54457143D01*
X106957142Y-54400000D01*
X107042857Y-54371429D01*
X107100000Y-54371429D01*
X107185714Y-54400000D01*
X107214285Y-54428571D01*
X107442857Y-54428571D02*
X107471428Y-54400000D01*
X107528571Y-54371429D01*
X107671428Y-54371429D01*
X107728571Y-54400000D01*
X107757142Y-54428571D01*
X107785714Y-54485714D01*
X107785714Y-54542857D01*
X107757142Y-54628571D01*
X107414285Y-54971429D01*
X107785714Y-54971429D01*
X108300000Y-54371429D02*
X108185714Y-54371429D01*
X108128571Y-54400000D01*
X108100000Y-54428571D01*
X108042857Y-54514286D01*
X108014286Y-54628571D01*
X108014286Y-54857143D01*
X108042857Y-54914286D01*
X108071429Y-54942857D01*
X108128571Y-54971429D01*
X108242857Y-54971429D01*
X108300000Y-54942857D01*
X108328571Y-54914286D01*
X108357143Y-54857143D01*
X108357143Y-54714286D01*
X108328571Y-54657143D01*
X108300000Y-54628571D01*
X108242857Y-54600000D01*
X108128571Y-54600000D01*
X108071429Y-54628571D01*
X108042857Y-54657143D01*
X108014286Y-54714286D01*
D15*
X132258677Y-73757183D02*
X132344311Y-73785728D01*
X132372856Y-73814272D01*
X132401401Y-73871362D01*
X132401401Y-73956996D01*
X132372856Y-74014086D01*
X132344311Y-74042630D01*
X132287222Y-74071175D01*
X132058864Y-74071175D01*
X132058864Y-73471735D01*
X132258677Y-73471735D01*
X132315767Y-73500280D01*
X132344311Y-73528825D01*
X132372856Y-73585914D01*
X132372856Y-73643004D01*
X132344311Y-73700093D01*
X132315767Y-73728638D01*
X132258677Y-73757183D01*
X132058864Y-73757183D01*
X132629759Y-73899907D02*
X132915207Y-73899907D01*
X132572670Y-74071175D02*
X132772483Y-73471735D01*
X132972296Y-74071175D01*
X133086476Y-73471735D02*
X133429013Y-73471735D01*
X133257744Y-74071175D02*
X133257744Y-73471735D01*
X133914273Y-73471735D02*
X133628826Y-73471735D01*
X133600281Y-73757183D01*
X133628826Y-73728638D01*
X133685915Y-73700093D01*
X133828639Y-73700093D01*
X133885729Y-73728638D01*
X133914273Y-73757183D01*
X133942818Y-73814272D01*
X133942818Y-73956996D01*
X133914273Y-74014086D01*
X133885729Y-74042630D01*
X133828639Y-74071175D01*
X133685915Y-74071175D01*
X133628826Y-74042630D01*
X133600281Y-74014086D01*
X134456624Y-73671549D02*
X134456624Y-74071175D01*
X134313900Y-73443190D02*
X134171176Y-73871362D01*
X134542258Y-73871362D01*
X134713526Y-73471735D02*
X134856250Y-74071175D01*
X134970429Y-73643004D01*
X135084608Y-74071175D01*
X135227332Y-73471735D01*
X135427145Y-74042630D02*
X135512779Y-74071175D01*
X135655503Y-74071175D01*
X135712593Y-74042630D01*
X135741137Y-74014086D01*
X135769682Y-73956996D01*
X135769682Y-73899907D01*
X135741137Y-73842817D01*
X135712593Y-73814272D01*
X135655503Y-73785728D01*
X135541324Y-73757183D01*
X135484235Y-73728638D01*
X135455690Y-73700093D01*
X135427145Y-73643004D01*
X135427145Y-73585914D01*
X135455690Y-73528825D01*
X135484235Y-73500280D01*
X135541324Y-73471735D01*
X135684048Y-73471735D01*
X135769682Y-73500280D01*
D12*
X125784143Y-62837929D02*
X125784143Y-62237929D01*
X125927000Y-62237929D01*
X126012715Y-62266500D01*
X126069857Y-62323643D01*
X126098429Y-62380786D01*
X126127000Y-62495071D01*
X126127000Y-62580786D01*
X126098429Y-62695071D01*
X126069857Y-62752214D01*
X126012715Y-62809357D01*
X125927000Y-62837929D01*
X125784143Y-62837929D01*
X126669857Y-62237929D02*
X126384143Y-62237929D01*
X126355572Y-62523643D01*
X126384143Y-62495071D01*
X126441286Y-62466500D01*
X126584143Y-62466500D01*
X126641286Y-62495071D01*
X126669857Y-62523643D01*
X126698429Y-62580786D01*
X126698429Y-62723643D01*
X126669857Y-62780786D01*
X126641286Y-62809357D01*
X126584143Y-62837929D01*
X126441286Y-62837929D01*
X126384143Y-62809357D01*
X126355572Y-62780786D01*
X125914286Y-65571429D02*
X125628572Y-65571429D01*
X125628572Y-64971429D01*
X126114286Y-65257143D02*
X126314286Y-65257143D01*
X126400000Y-65571429D02*
X126114286Y-65571429D01*
X126114286Y-64971429D01*
X126400000Y-64971429D01*
X126657143Y-65571429D02*
X126657143Y-64971429D01*
X126800000Y-64971429D01*
X126885715Y-65000000D01*
X126942857Y-65057143D01*
X126971429Y-65114286D01*
X127000000Y-65228571D01*
X127000000Y-65314286D01*
X126971429Y-65428571D01*
X126942857Y-65485714D01*
X126885715Y-65542857D01*
X126800000Y-65571429D01*
X126657143Y-65571429D01*
X102471429Y-84500000D02*
X101871429Y-84500000D01*
X101871429Y-84357143D01*
X101900000Y-84271428D01*
X101957143Y-84214286D01*
X102014286Y-84185714D01*
X102128571Y-84157143D01*
X102214286Y-84157143D01*
X102328571Y-84185714D01*
X102385714Y-84214286D01*
X102442857Y-84271428D01*
X102471429Y-84357143D01*
X102471429Y-84500000D01*
X102300000Y-83928571D02*
X102300000Y-83642857D01*
X102471429Y-83985714D02*
X101871429Y-83785714D01*
X102471429Y-83585714D01*
X102471429Y-83071428D02*
X102471429Y-83414285D01*
X102471429Y-83242857D02*
X101871429Y-83242857D01*
X101957143Y-83300000D01*
X102014286Y-83357142D01*
X102042857Y-83414285D01*
X103242857Y-84542858D02*
X103271429Y-84457144D01*
X103271429Y-84314287D01*
X103242857Y-84257144D01*
X103214286Y-84228573D01*
X103157143Y-84200001D01*
X103100000Y-84200001D01*
X103042857Y-84228573D01*
X103014286Y-84257144D01*
X102985714Y-84314287D01*
X102957143Y-84428573D01*
X102928571Y-84485715D01*
X102900000Y-84514287D01*
X102842857Y-84542858D01*
X102785714Y-84542858D01*
X102728571Y-84514287D01*
X102700000Y-84485715D01*
X102671429Y-84428573D01*
X102671429Y-84285715D01*
X102700000Y-84200001D01*
X102671429Y-84028572D02*
X102671429Y-83685715D01*
X103271429Y-83857144D02*
X102671429Y-83857144D01*
X103271429Y-83171429D02*
X103271429Y-83514286D01*
X103271429Y-83342858D02*
X102671429Y-83342858D01*
X102757143Y-83400001D01*
X102814286Y-83457143D01*
X102842857Y-83514286D01*
X103242857Y-82942857D02*
X103271429Y-82857143D01*
X103271429Y-82714286D01*
X103242857Y-82657143D01*
X103214286Y-82628572D01*
X103157143Y-82600000D01*
X103100000Y-82600000D01*
X103042857Y-82628572D01*
X103014286Y-82657143D01*
X102985714Y-82714286D01*
X102957143Y-82828572D01*
X102928571Y-82885714D01*
X102900000Y-82914286D01*
X102842857Y-82942857D01*
X102785714Y-82942857D01*
X102728571Y-82914286D01*
X102700000Y-82885714D01*
X102671429Y-82828572D01*
X102671429Y-82685714D01*
X102700000Y-82600000D01*
X103271429Y-82028571D02*
X103271429Y-82371428D01*
X103271429Y-82200000D02*
X102671429Y-82200000D01*
X102757143Y-82257143D01*
X102814286Y-82314285D01*
X102842857Y-82371428D01*
X102671429Y-81657142D02*
X102671429Y-81599999D01*
X102700000Y-81542856D01*
X102728571Y-81514285D01*
X102785714Y-81485714D01*
X102900000Y-81457142D01*
X103042857Y-81457142D01*
X103157143Y-81485714D01*
X103214286Y-81514285D01*
X103242857Y-81542856D01*
X103271429Y-81599999D01*
X103271429Y-81657142D01*
X103242857Y-81714285D01*
X103214286Y-81742856D01*
X103157143Y-81771428D01*
X103042857Y-81799999D01*
X102900000Y-81799999D01*
X102785714Y-81771428D01*
X102728571Y-81742856D01*
X102700000Y-81714285D01*
X102671429Y-81657142D01*
X109271429Y-85328571D02*
X109271429Y-85671428D01*
X109271429Y-85500000D02*
X108671429Y-85500000D01*
X108757143Y-85557143D01*
X108814286Y-85614285D01*
X108842857Y-85671428D01*
X97171429Y-73400000D02*
X96571429Y-73400000D01*
X96571429Y-73257143D01*
X96600000Y-73171428D01*
X96657143Y-73114286D01*
X96714286Y-73085714D01*
X96828571Y-73057143D01*
X96914286Y-73057143D01*
X97028571Y-73085714D01*
X97085714Y-73114286D01*
X97142857Y-73171428D01*
X97171429Y-73257143D01*
X97171429Y-73400000D01*
X97000000Y-72828571D02*
X97000000Y-72542857D01*
X97171429Y-72885714D02*
X96571429Y-72685714D01*
X97171429Y-72485714D01*
X96628571Y-72314285D02*
X96600000Y-72285714D01*
X96571429Y-72228571D01*
X96571429Y-72085714D01*
X96600000Y-72028571D01*
X96628571Y-72000000D01*
X96685714Y-71971428D01*
X96742857Y-71971428D01*
X96828571Y-72000000D01*
X97171429Y-72342857D01*
X97171429Y-71971428D01*
X96371429Y-77028572D02*
X95771429Y-77028572D01*
X96371429Y-76685715D01*
X95771429Y-76685715D01*
X96314286Y-76057144D02*
X96342857Y-76085715D01*
X96371429Y-76171429D01*
X96371429Y-76228572D01*
X96342857Y-76314287D01*
X96285714Y-76371429D01*
X96228571Y-76400001D01*
X96114286Y-76428572D01*
X96028571Y-76428572D01*
X95914286Y-76400001D01*
X95857143Y-76371429D01*
X95800000Y-76314287D01*
X95771429Y-76228572D01*
X95771429Y-76171429D01*
X95800000Y-76085715D01*
X95828571Y-76057144D01*
X96371429Y-75800001D02*
X95771429Y-75800001D01*
X95771429Y-75571429D01*
X95800000Y-75514287D01*
X95828571Y-75485715D01*
X95885714Y-75457144D01*
X95971429Y-75457144D01*
X96028571Y-75485715D01*
X96057143Y-75514287D01*
X96085714Y-75571429D01*
X96085714Y-75800001D01*
X95771429Y-74914287D02*
X95771429Y-75200001D01*
X96057143Y-75228572D01*
X96028571Y-75200001D01*
X96000000Y-75142858D01*
X96000000Y-75000001D01*
X96028571Y-74942858D01*
X96057143Y-74914287D01*
X96114286Y-74885715D01*
X96257143Y-74885715D01*
X96314286Y-74914287D01*
X96342857Y-74942858D01*
X96371429Y-75000001D01*
X96371429Y-75142858D01*
X96342857Y-75200001D01*
X96314286Y-75228572D01*
X96028571Y-74542858D02*
X96000000Y-74600000D01*
X95971429Y-74628572D01*
X95914286Y-74657143D01*
X95885714Y-74657143D01*
X95828571Y-74628572D01*
X95800000Y-74600000D01*
X95771429Y-74542858D01*
X95771429Y-74428572D01*
X95800000Y-74371429D01*
X95828571Y-74342858D01*
X95885714Y-74314286D01*
X95914286Y-74314286D01*
X95971429Y-74342858D01*
X96000000Y-74371429D01*
X96028571Y-74428572D01*
X96028571Y-74542858D01*
X96057143Y-74600000D01*
X96085714Y-74628572D01*
X96142857Y-74657143D01*
X96257143Y-74657143D01*
X96314286Y-74628572D01*
X96342857Y-74600000D01*
X96371429Y-74542858D01*
X96371429Y-74428572D01*
X96342857Y-74371429D01*
X96314286Y-74342858D01*
X96257143Y-74314286D01*
X96142857Y-74314286D01*
X96085714Y-74342858D01*
X96057143Y-74371429D01*
X96028571Y-74428572D01*
X95771429Y-74114286D02*
X95771429Y-73742857D01*
X96000000Y-73942857D01*
X96000000Y-73857143D01*
X96028571Y-73800000D01*
X96057143Y-73771429D01*
X96114286Y-73742857D01*
X96257143Y-73742857D01*
X96314286Y-73771429D01*
X96342857Y-73800000D01*
X96371429Y-73857143D01*
X96371429Y-74028571D01*
X96342857Y-74085714D01*
X96314286Y-74114286D01*
X96342857Y-73514285D02*
X96371429Y-73428571D01*
X96371429Y-73285714D01*
X96342857Y-73228571D01*
X96314286Y-73200000D01*
X96257143Y-73171428D01*
X96200000Y-73171428D01*
X96142857Y-73200000D01*
X96114286Y-73228571D01*
X96085714Y-73285714D01*
X96057143Y-73400000D01*
X96028571Y-73457142D01*
X96000000Y-73485714D01*
X95942857Y-73514285D01*
X95885714Y-73514285D01*
X95828571Y-73485714D01*
X95800000Y-73457142D01*
X95771429Y-73400000D01*
X95771429Y-73257142D01*
X95800000Y-73171428D01*
X96428571Y-72514285D02*
X96400000Y-72571428D01*
X96342857Y-72628571D01*
X96257143Y-72714285D01*
X96228571Y-72771428D01*
X96228571Y-72828571D01*
X96371429Y-72799999D02*
X96342857Y-72857142D01*
X96285714Y-72914285D01*
X96171429Y-72942856D01*
X95971429Y-72942856D01*
X95857143Y-72914285D01*
X95800000Y-72857142D01*
X95771429Y-72799999D01*
X95771429Y-72685713D01*
X95800000Y-72628571D01*
X95857143Y-72571428D01*
X95971429Y-72542856D01*
X96171429Y-72542856D01*
X96285714Y-72571428D01*
X96342857Y-72628571D01*
X96371429Y-72685713D01*
X96371429Y-72799999D01*
X97271429Y-74328571D02*
X97271429Y-74671428D01*
X97271429Y-74500000D02*
X96671429Y-74500000D01*
X96757143Y-74557143D01*
X96814286Y-74614285D01*
X96842857Y-74671428D01*
D15*
X120870535Y-75940943D02*
X120271095Y-75940943D01*
X120271095Y-75798219D01*
X120299640Y-75712585D01*
X120356730Y-75655496D01*
X120413819Y-75626951D01*
X120527998Y-75598406D01*
X120613632Y-75598406D01*
X120727811Y-75626951D01*
X120784901Y-75655496D01*
X120841990Y-75712585D01*
X120870535Y-75798219D01*
X120870535Y-75940943D01*
X120870535Y-75341503D02*
X120271095Y-75341503D01*
X120271095Y-75198779D01*
X120299640Y-75113145D01*
X120356730Y-75056056D01*
X120413819Y-75027511D01*
X120527998Y-74998966D01*
X120613632Y-74998966D01*
X120727811Y-75027511D01*
X120784901Y-75056056D01*
X120841990Y-75113145D01*
X120870535Y-75198779D01*
X120870535Y-75341503D01*
X120870535Y-74428071D02*
X120870535Y-74770608D01*
X120870535Y-74599339D02*
X120271095Y-74599339D01*
X120356730Y-74656429D01*
X120413819Y-74713518D01*
X120442364Y-74770608D01*
D12*
X122362381Y-70450285D02*
X122362381Y-71021714D01*
X122362381Y-70736000D02*
X121362381Y-70736000D01*
X121505238Y-70831238D01*
X121600476Y-70926476D01*
X121648095Y-71021714D01*
X102671429Y-63142857D02*
X102071429Y-63142857D01*
X102071429Y-63000000D01*
X102100000Y-62914285D01*
X102157143Y-62857143D01*
X102214286Y-62828571D01*
X102328571Y-62800000D01*
X102414286Y-62800000D01*
X102528571Y-62828571D01*
X102585714Y-62857143D01*
X102642857Y-62914285D01*
X102671429Y-63000000D01*
X102671429Y-63142857D01*
X102671429Y-62542857D02*
X102071429Y-62542857D01*
X102071429Y-62400000D01*
X102100000Y-62314285D01*
X102157143Y-62257143D01*
X102214286Y-62228571D01*
X102328571Y-62200000D01*
X102414286Y-62200000D01*
X102528571Y-62228571D01*
X102585714Y-62257143D01*
X102642857Y-62314285D01*
X102671429Y-62400000D01*
X102671429Y-62542857D01*
X102128571Y-61971428D02*
X102100000Y-61942857D01*
X102071429Y-61885714D01*
X102071429Y-61742857D01*
X102100000Y-61685714D01*
X102128571Y-61657143D01*
X102185714Y-61628571D01*
X102242857Y-61628571D01*
X102328571Y-61657143D01*
X102671429Y-62000000D01*
X102671429Y-61628571D01*
X102664686Y-66756964D02*
X102693257Y-66785535D01*
X102721829Y-66871249D01*
X102721829Y-66928392D01*
X102693257Y-67014107D01*
X102636114Y-67071249D01*
X102578971Y-67099821D01*
X102464686Y-67128392D01*
X102378971Y-67128392D01*
X102264686Y-67099821D01*
X102207543Y-67071249D01*
X102150400Y-67014107D01*
X102121829Y-66928392D01*
X102121829Y-66871249D01*
X102150400Y-66785535D01*
X102178971Y-66756964D01*
X102664686Y-66156964D02*
X102693257Y-66185535D01*
X102721829Y-66271249D01*
X102721829Y-66328392D01*
X102693257Y-66414107D01*
X102636114Y-66471249D01*
X102578971Y-66499821D01*
X102464686Y-66528392D01*
X102378971Y-66528392D01*
X102264686Y-66499821D01*
X102207543Y-66471249D01*
X102150400Y-66414107D01*
X102121829Y-66328392D01*
X102121829Y-66271249D01*
X102150400Y-66185535D01*
X102178971Y-66156964D01*
X102721829Y-65585535D02*
X102721829Y-65928392D01*
X102721829Y-65756964D02*
X102121829Y-65756964D01*
X102207543Y-65814107D01*
X102264686Y-65871249D01*
X102293257Y-65928392D01*
X102721829Y-65014106D02*
X102721829Y-65356963D01*
X102721829Y-65185535D02*
X102121829Y-65185535D01*
X102207543Y-65242678D01*
X102264686Y-65299820D01*
X102293257Y-65356963D01*
X102121829Y-64642677D02*
X102121829Y-64585534D01*
X102150400Y-64528391D01*
X102178971Y-64499820D01*
X102236114Y-64471249D01*
X102350400Y-64442677D01*
X102493257Y-64442677D01*
X102607543Y-64471249D01*
X102664686Y-64499820D01*
X102693257Y-64528391D01*
X102721829Y-64585534D01*
X102721829Y-64642677D01*
X102693257Y-64699820D01*
X102664686Y-64728391D01*
X102607543Y-64756963D01*
X102493257Y-64785534D01*
X102350400Y-64785534D01*
X102236114Y-64756963D01*
X102178971Y-64728391D01*
X102150400Y-64699820D01*
X102121829Y-64642677D01*
X102721829Y-63871248D02*
X102721829Y-64214105D01*
X102721829Y-64042677D02*
X102121829Y-64042677D01*
X102207543Y-64099820D01*
X102264686Y-64156962D01*
X102293257Y-64214105D01*
D15*
X104600093Y-89271175D02*
X104314646Y-89271175D01*
X104314646Y-88671735D01*
X105113899Y-89271175D02*
X104771362Y-89271175D01*
X104942631Y-89271175D02*
X104942631Y-88671735D01*
X104885541Y-88757370D01*
X104828452Y-88814459D01*
X104771362Y-88843004D01*
D16*
X111087262Y-89640833D02*
X111087262Y-90003691D01*
X111087262Y-89822262D02*
X110452262Y-89822262D01*
X110542976Y-89882738D01*
X110603452Y-89943214D01*
X110633690Y-90003691D01*
X110452262Y-89247738D02*
X110452262Y-89187262D01*
X110482500Y-89126786D01*
X110512738Y-89096548D01*
X110573214Y-89066310D01*
X110694167Y-89036071D01*
X110845357Y-89036071D01*
X110966310Y-89066310D01*
X111026786Y-89096548D01*
X111057024Y-89126786D01*
X111087262Y-89187262D01*
X111087262Y-89247738D01*
X111057024Y-89308214D01*
X111026786Y-89338452D01*
X110966310Y-89368691D01*
X110845357Y-89398929D01*
X110694167Y-89398929D01*
X110573214Y-89368691D01*
X110512738Y-89338452D01*
X110482500Y-89308214D01*
X110452262Y-89247738D01*
X110663929Y-88491786D02*
X111087262Y-88491786D01*
X110663929Y-88763929D02*
X110996548Y-88763929D01*
X111057024Y-88733690D01*
X111087262Y-88673214D01*
X111087262Y-88582500D01*
X111057024Y-88522024D01*
X111026786Y-88491786D01*
X111087262Y-88189405D02*
X110452262Y-88189405D01*
X110754643Y-88189405D02*
X110754643Y-87826547D01*
X111087262Y-87826547D02*
X110452262Y-87826547D01*
D17*
D12*
X102771429Y-70100000D02*
X102771429Y-70385714D01*
X102171429Y-70385714D01*
X102228571Y-69928571D02*
X102200000Y-69900000D01*
X102171429Y-69842857D01*
X102171429Y-69700000D01*
X102200000Y-69642857D01*
X102228571Y-69614286D01*
X102285714Y-69585714D01*
X102342857Y-69585714D01*
X102428571Y-69614286D01*
X102771429Y-69957143D01*
X102771429Y-69585714D01*
X103357143Y-76414287D02*
X103385714Y-76328573D01*
X103414286Y-76300001D01*
X103471429Y-76271430D01*
X103557143Y-76271430D01*
X103614286Y-76300001D01*
X103642857Y-76328573D01*
X103671429Y-76385715D01*
X103671429Y-76614287D01*
X103071429Y-76614287D01*
X103071429Y-76414287D01*
X103100000Y-76357144D01*
X103128571Y-76328573D01*
X103185714Y-76300001D01*
X103242857Y-76300001D01*
X103300000Y-76328573D01*
X103328571Y-76357144D01*
X103357143Y-76414287D01*
X103357143Y-76614287D01*
X103671429Y-75728573D02*
X103671429Y-76014287D01*
X103071429Y-76014287D01*
X103671429Y-75528573D02*
X103071429Y-75528573D01*
X103500000Y-75328573D01*
X103071429Y-75128573D01*
X103671429Y-75128573D01*
X103671429Y-74528573D02*
X103671429Y-74871430D01*
X103671429Y-74700002D02*
X103071429Y-74700002D01*
X103157143Y-74757145D01*
X103214286Y-74814287D01*
X103242857Y-74871430D01*
X103071429Y-73985716D02*
X103071429Y-74271430D01*
X103357143Y-74300001D01*
X103328571Y-74271430D01*
X103300000Y-74214287D01*
X103300000Y-74071430D01*
X103328571Y-74014287D01*
X103357143Y-73985716D01*
X103414286Y-73957144D01*
X103557143Y-73957144D01*
X103614286Y-73985716D01*
X103642857Y-74014287D01*
X103671429Y-74071430D01*
X103671429Y-74214287D01*
X103642857Y-74271430D01*
X103614286Y-74300001D01*
X103500000Y-73728572D02*
X103500000Y-73442858D01*
X103671429Y-73785715D02*
X103071429Y-73585715D01*
X103671429Y-73385715D01*
X103100000Y-72871429D02*
X103071429Y-72928572D01*
X103071429Y-73014286D01*
X103100000Y-73100001D01*
X103157143Y-73157143D01*
X103214286Y-73185715D01*
X103328571Y-73214286D01*
X103414286Y-73214286D01*
X103528571Y-73185715D01*
X103585714Y-73157143D01*
X103642857Y-73100001D01*
X103671429Y-73014286D01*
X103671429Y-72957143D01*
X103642857Y-72871429D01*
X103614286Y-72842858D01*
X103414286Y-72842858D01*
X103414286Y-72957143D01*
X103671429Y-72271429D02*
X103671429Y-72614286D01*
X103671429Y-72442858D02*
X103071429Y-72442858D01*
X103157143Y-72500001D01*
X103214286Y-72557143D01*
X103242857Y-72614286D01*
X103071429Y-71900000D02*
X103071429Y-71842857D01*
X103100000Y-71785714D01*
X103128571Y-71757143D01*
X103185714Y-71728572D01*
X103300000Y-71700000D01*
X103442857Y-71700000D01*
X103557143Y-71728572D01*
X103614286Y-71757143D01*
X103642857Y-71785714D01*
X103671429Y-71842857D01*
X103671429Y-71900000D01*
X103642857Y-71957143D01*
X103614286Y-71985714D01*
X103557143Y-72014286D01*
X103442857Y-72042857D01*
X103300000Y-72042857D01*
X103185714Y-72014286D01*
X103128571Y-71985714D01*
X103100000Y-71957143D01*
X103071429Y-71900000D01*
X103128571Y-71471428D02*
X103100000Y-71442857D01*
X103071429Y-71385714D01*
X103071429Y-71242857D01*
X103100000Y-71185714D01*
X103128571Y-71157143D01*
X103185714Y-71128571D01*
X103242857Y-71128571D01*
X103328571Y-71157143D01*
X103671429Y-71500000D01*
X103671429Y-71128571D01*
X103642857Y-70899999D02*
X103671429Y-70814285D01*
X103671429Y-70671428D01*
X103642857Y-70614285D01*
X103614286Y-70585714D01*
X103557143Y-70557142D01*
X103500000Y-70557142D01*
X103442857Y-70585714D01*
X103414286Y-70614285D01*
X103385714Y-70671428D01*
X103357143Y-70785714D01*
X103328571Y-70842856D01*
X103300000Y-70871428D01*
X103242857Y-70899999D01*
X103185714Y-70899999D01*
X103128571Y-70871428D01*
X103100000Y-70842856D01*
X103071429Y-70785714D01*
X103071429Y-70642856D01*
X103100000Y-70557142D01*
X103671429Y-70299999D02*
X103071429Y-70299999D01*
X103671429Y-69957142D01*
X103071429Y-69957142D01*
X103671429Y-69357142D02*
X103671429Y-69699999D01*
X103671429Y-69528571D02*
X103071429Y-69528571D01*
X103157143Y-69585714D01*
X103214286Y-69642856D01*
X103242857Y-69699999D01*
X109700000Y-71171429D02*
X109414286Y-71171429D01*
X109414286Y-70571429D01*
X109842857Y-70571429D02*
X110214286Y-70571429D01*
X110014286Y-70800000D01*
X110100000Y-70800000D01*
X110157143Y-70828571D01*
X110185714Y-70857143D01*
X110214286Y-70914286D01*
X110214286Y-71057143D01*
X110185714Y-71114286D01*
X110157143Y-71142857D01*
X110100000Y-71171429D01*
X109928572Y-71171429D01*
X109871429Y-71142857D01*
X109842857Y-71114286D01*
X104171429Y-56400000D02*
X104171429Y-56685714D01*
X103571429Y-56685714D01*
X103771429Y-55942857D02*
X104171429Y-55942857D01*
X103542857Y-56085714D02*
X103971429Y-56228571D01*
X103971429Y-55857143D01*
X130528571Y-73057143D02*
X130500000Y-73114286D01*
X130442857Y-73171429D01*
X130357143Y-73257143D01*
X130328571Y-73314286D01*
X130328571Y-73371429D01*
X130471429Y-73342857D02*
X130442857Y-73400000D01*
X130385714Y-73457143D01*
X130271429Y-73485714D01*
X130071429Y-73485714D01*
X129957143Y-73457143D01*
X129900000Y-73400000D01*
X129871429Y-73342857D01*
X129871429Y-73228571D01*
X129900000Y-73171429D01*
X129957143Y-73114286D01*
X130071429Y-73085714D01*
X130271429Y-73085714D01*
X130385714Y-73114286D01*
X130442857Y-73171429D01*
X130471429Y-73228571D01*
X130471429Y-73342857D01*
X130471429Y-72514286D02*
X130471429Y-72857143D01*
X130471429Y-72685715D02*
X129871429Y-72685715D01*
X129957143Y-72742858D01*
X130014286Y-72800000D01*
X130042857Y-72857143D01*
D15*
X131271175Y-73512218D02*
X130671735Y-73512218D01*
X131099907Y-73312405D01*
X130671735Y-73112592D01*
X131271175Y-73112592D01*
X131271175Y-72827144D02*
X130671735Y-72827144D01*
X131099907Y-72627331D01*
X130671735Y-72427518D01*
X131271175Y-72427518D01*
X130957183Y-71942257D02*
X130985728Y-71856623D01*
X131014272Y-71828078D01*
X131071362Y-71799533D01*
X131156996Y-71799533D01*
X131214086Y-71828078D01*
X131242630Y-71856623D01*
X131271175Y-71913712D01*
X131271175Y-72142070D01*
X130671735Y-72142070D01*
X130671735Y-71942257D01*
X130700280Y-71885167D01*
X130728825Y-71856623D01*
X130785914Y-71828078D01*
X130843004Y-71828078D01*
X130900093Y-71856623D01*
X130928638Y-71885167D01*
X130957183Y-71942257D01*
X130957183Y-72142070D01*
X130671735Y-71628264D02*
X130671735Y-71285727D01*
X131271175Y-71456996D02*
X130671735Y-71456996D01*
X130728825Y-71114459D02*
X130700280Y-71085914D01*
X130671735Y-71028825D01*
X130671735Y-70886101D01*
X130700280Y-70829011D01*
X130728825Y-70800467D01*
X130785914Y-70771922D01*
X130843004Y-70771922D01*
X130928638Y-70800467D01*
X131271175Y-71143004D01*
X131271175Y-70771922D01*
X130728825Y-70543564D02*
X130700280Y-70515019D01*
X130671735Y-70457930D01*
X130671735Y-70315206D01*
X130700280Y-70258116D01*
X130728825Y-70229572D01*
X130785914Y-70201027D01*
X130843004Y-70201027D01*
X130928638Y-70229572D01*
X131271175Y-70572109D01*
X131271175Y-70201027D01*
X130728825Y-69972669D02*
X130700280Y-69944124D01*
X130671735Y-69887035D01*
X130671735Y-69744311D01*
X130700280Y-69687221D01*
X130728825Y-69658677D01*
X130785914Y-69630132D01*
X130843004Y-69630132D01*
X130928638Y-69658677D01*
X131271175Y-70001214D01*
X131271175Y-69630132D01*
X130728825Y-69401774D02*
X130700280Y-69373229D01*
X130671735Y-69316140D01*
X130671735Y-69173416D01*
X130700280Y-69116326D01*
X130728825Y-69087782D01*
X130785914Y-69059237D01*
X130843004Y-69059237D01*
X130928638Y-69087782D01*
X131271175Y-69430319D01*
X131271175Y-69059237D01*
D12*
X130528571Y-78957143D02*
X130500000Y-79014286D01*
X130442857Y-79071429D01*
X130357143Y-79157143D01*
X130328571Y-79214286D01*
X130328571Y-79271429D01*
X130471429Y-79242857D02*
X130442857Y-79300000D01*
X130385714Y-79357143D01*
X130271429Y-79385714D01*
X130071429Y-79385714D01*
X129957143Y-79357143D01*
X129900000Y-79300000D01*
X129871429Y-79242857D01*
X129871429Y-79128571D01*
X129900000Y-79071429D01*
X129957143Y-79014286D01*
X130071429Y-78985714D01*
X130271429Y-78985714D01*
X130385714Y-79014286D01*
X130442857Y-79071429D01*
X130471429Y-79128571D01*
X130471429Y-79242857D01*
X129928571Y-78757143D02*
X129900000Y-78728572D01*
X129871429Y-78671429D01*
X129871429Y-78528572D01*
X129900000Y-78471429D01*
X129928571Y-78442858D01*
X129985714Y-78414286D01*
X130042857Y-78414286D01*
X130128571Y-78442858D01*
X130471429Y-78785715D01*
X130471429Y-78414286D01*
X130528571Y-83357143D02*
X130500000Y-83414286D01*
X130442857Y-83471429D01*
X130357143Y-83557143D01*
X130328571Y-83614286D01*
X130328571Y-83671429D01*
X130471429Y-83642857D02*
X130442857Y-83700000D01*
X130385714Y-83757143D01*
X130271429Y-83785714D01*
X130071429Y-83785714D01*
X129957143Y-83757143D01*
X129900000Y-83700000D01*
X129871429Y-83642857D01*
X129871429Y-83528571D01*
X129900000Y-83471429D01*
X129957143Y-83414286D01*
X130071429Y-83385714D01*
X130271429Y-83385714D01*
X130385714Y-83414286D01*
X130442857Y-83471429D01*
X130471429Y-83528571D01*
X130471429Y-83642857D01*
X129871429Y-83185715D02*
X129871429Y-82814286D01*
X130100000Y-83014286D01*
X130100000Y-82928572D01*
X130128571Y-82871429D01*
X130157143Y-82842858D01*
X130214286Y-82814286D01*
X130357143Y-82814286D01*
X130414286Y-82842858D01*
X130442857Y-82871429D01*
X130471429Y-82928572D01*
X130471429Y-83100000D01*
X130442857Y-83157143D01*
X130414286Y-83185715D01*
X130528571Y-87857143D02*
X130500000Y-87914286D01*
X130442857Y-87971429D01*
X130357143Y-88057143D01*
X130328571Y-88114286D01*
X130328571Y-88171429D01*
X130471429Y-88142857D02*
X130442857Y-88200000D01*
X130385714Y-88257143D01*
X130271429Y-88285714D01*
X130071429Y-88285714D01*
X129957143Y-88257143D01*
X129900000Y-88200000D01*
X129871429Y-88142857D01*
X129871429Y-88028571D01*
X129900000Y-87971429D01*
X129957143Y-87914286D01*
X130071429Y-87885714D01*
X130271429Y-87885714D01*
X130385714Y-87914286D01*
X130442857Y-87971429D01*
X130471429Y-88028571D01*
X130471429Y-88142857D01*
X130071429Y-87371429D02*
X130471429Y-87371429D01*
X129842857Y-87514286D02*
X130271429Y-87657143D01*
X130271429Y-87285715D01*
X113942857Y-92528571D02*
X113885714Y-92500000D01*
X113828571Y-92442857D01*
X113742857Y-92357143D01*
X113685714Y-92328571D01*
X113628571Y-92328571D01*
X113657143Y-92471429D02*
X113600000Y-92442857D01*
X113542857Y-92385714D01*
X113514286Y-92271429D01*
X113514286Y-92071429D01*
X113542857Y-91957143D01*
X113600000Y-91900000D01*
X113657143Y-91871429D01*
X113771429Y-91871429D01*
X113828571Y-91900000D01*
X113885714Y-91957143D01*
X113914286Y-92071429D01*
X113914286Y-92271429D01*
X113885714Y-92385714D01*
X113828571Y-92442857D01*
X113771429Y-92471429D01*
X113657143Y-92471429D01*
X114457142Y-91871429D02*
X114171428Y-91871429D01*
X114142857Y-92157143D01*
X114171428Y-92128571D01*
X114228571Y-92100000D01*
X114371428Y-92100000D01*
X114428571Y-92128571D01*
X114457142Y-92157143D01*
X114485714Y-92214286D01*
X114485714Y-92357143D01*
X114457142Y-92414286D01*
X114428571Y-92442857D01*
X114371428Y-92471429D01*
X114228571Y-92471429D01*
X114171428Y-92442857D01*
X114142857Y-92414286D01*
X118242857Y-92528571D02*
X118185714Y-92500000D01*
X118128571Y-92442857D01*
X118042857Y-92357143D01*
X117985714Y-92328571D01*
X117928571Y-92328571D01*
X117957143Y-92471429D02*
X117900000Y-92442857D01*
X117842857Y-92385714D01*
X117814286Y-92271429D01*
X117814286Y-92071429D01*
X117842857Y-91957143D01*
X117900000Y-91900000D01*
X117957143Y-91871429D01*
X118071429Y-91871429D01*
X118128571Y-91900000D01*
X118185714Y-91957143D01*
X118214286Y-92071429D01*
X118214286Y-92271429D01*
X118185714Y-92385714D01*
X118128571Y-92442857D01*
X118071429Y-92471429D01*
X117957143Y-92471429D01*
X118728571Y-91871429D02*
X118614285Y-91871429D01*
X118557142Y-91900000D01*
X118528571Y-91928571D01*
X118471428Y-92014286D01*
X118442857Y-92128571D01*
X118442857Y-92357143D01*
X118471428Y-92414286D01*
X118500000Y-92442857D01*
X118557142Y-92471429D01*
X118671428Y-92471429D01*
X118728571Y-92442857D01*
X118757142Y-92414286D01*
X118785714Y-92357143D01*
X118785714Y-92214286D01*
X118757142Y-92157143D01*
X118728571Y-92128571D01*
X118671428Y-92100000D01*
X118557142Y-92100000D01*
X118500000Y-92128571D01*
X118471428Y-92157143D01*
X118442857Y-92214286D01*
X122642857Y-92528571D02*
X122585714Y-92500000D01*
X122528571Y-92442857D01*
X122442857Y-92357143D01*
X122385714Y-92328571D01*
X122328571Y-92328571D01*
X122357143Y-92471429D02*
X122300000Y-92442857D01*
X122242857Y-92385714D01*
X122214286Y-92271429D01*
X122214286Y-92071429D01*
X122242857Y-91957143D01*
X122300000Y-91900000D01*
X122357143Y-91871429D01*
X122471429Y-91871429D01*
X122528571Y-91900000D01*
X122585714Y-91957143D01*
X122614286Y-92071429D01*
X122614286Y-92271429D01*
X122585714Y-92385714D01*
X122528571Y-92442857D01*
X122471429Y-92471429D01*
X122357143Y-92471429D01*
X122814285Y-91871429D02*
X123214285Y-91871429D01*
X122957142Y-92471429D01*
X127042857Y-92528571D02*
X126985714Y-92500000D01*
X126928571Y-92442857D01*
X126842857Y-92357143D01*
X126785714Y-92328571D01*
X126728571Y-92328571D01*
X126757143Y-92471429D02*
X126700000Y-92442857D01*
X126642857Y-92385714D01*
X126614286Y-92271429D01*
X126614286Y-92071429D01*
X126642857Y-91957143D01*
X126700000Y-91900000D01*
X126757143Y-91871429D01*
X126871429Y-91871429D01*
X126928571Y-91900000D01*
X126985714Y-91957143D01*
X127014286Y-92071429D01*
X127014286Y-92271429D01*
X126985714Y-92385714D01*
X126928571Y-92442857D01*
X126871429Y-92471429D01*
X126757143Y-92471429D01*
X127357142Y-92128571D02*
X127300000Y-92100000D01*
X127271428Y-92071429D01*
X127242857Y-92014286D01*
X127242857Y-91985714D01*
X127271428Y-91928571D01*
X127300000Y-91900000D01*
X127357142Y-91871429D01*
X127471428Y-91871429D01*
X127528571Y-91900000D01*
X127557142Y-91928571D01*
X127585714Y-91985714D01*
X127585714Y-92014286D01*
X127557142Y-92071429D01*
X127528571Y-92100000D01*
X127471428Y-92128571D01*
X127357142Y-92128571D01*
X127300000Y-92157143D01*
X127271428Y-92185714D01*
X127242857Y-92242857D01*
X127242857Y-92357143D01*
X127271428Y-92414286D01*
X127300000Y-92442857D01*
X127357142Y-92471429D01*
X127471428Y-92471429D01*
X127528571Y-92442857D01*
X127557142Y-92414286D01*
X127585714Y-92357143D01*
X127585714Y-92242857D01*
X127557142Y-92185714D01*
X127528571Y-92157143D01*
X127471428Y-92128571D01*
X126601429Y-75363500D02*
X126315714Y-75563500D01*
X126601429Y-75706357D02*
X126001429Y-75706357D01*
X126001429Y-75477785D01*
X126030000Y-75420643D01*
X126058571Y-75392071D01*
X126115714Y-75363500D01*
X126201429Y-75363500D01*
X126258571Y-75392071D01*
X126287143Y-75420643D01*
X126315714Y-75477785D01*
X126315714Y-75706357D01*
X126601429Y-74792071D02*
X126601429Y-75134928D01*
X126601429Y-74963500D02*
X126001429Y-74963500D01*
X126087143Y-75020643D01*
X126144286Y-75077785D01*
X126172857Y-75134928D01*
X127528572Y-73471429D02*
X127185715Y-73471429D01*
X127357143Y-73471429D02*
X127357143Y-72871429D01*
X127300000Y-72957143D01*
X127242858Y-73014286D01*
X127185715Y-73042857D01*
X127785715Y-73471429D02*
X127785715Y-72871429D01*
X127842858Y-73242857D02*
X128014287Y-73471429D01*
X128014287Y-73071429D02*
X127785715Y-73300000D01*
X126601429Y-79763500D02*
X126315714Y-79963500D01*
X126601429Y-80106357D02*
X126001429Y-80106357D01*
X126001429Y-79877785D01*
X126030000Y-79820643D01*
X126058571Y-79792071D01*
X126115714Y-79763500D01*
X126201429Y-79763500D01*
X126258571Y-79792071D01*
X126287143Y-79820643D01*
X126315714Y-79877785D01*
X126315714Y-80106357D01*
X126058571Y-79534928D02*
X126030000Y-79506357D01*
X126001429Y-79449214D01*
X126001429Y-79306357D01*
X126030000Y-79249214D01*
X126058571Y-79220643D01*
X126115714Y-79192071D01*
X126172857Y-79192071D01*
X126258571Y-79220643D01*
X126601429Y-79563500D01*
X126601429Y-79192071D01*
X127428572Y-77871429D02*
X127085715Y-77871429D01*
X127257143Y-77871429D02*
X127257143Y-77271429D01*
X127200000Y-77357143D01*
X127142858Y-77414286D01*
X127085715Y-77442857D01*
X127685715Y-77871429D02*
X127685715Y-77271429D01*
X127742858Y-77642857D02*
X127914287Y-77871429D01*
X127914287Y-77471429D02*
X127685715Y-77700000D01*
X126601429Y-84163500D02*
X126315714Y-84363500D01*
X126601429Y-84506357D02*
X126001429Y-84506357D01*
X126001429Y-84277785D01*
X126030000Y-84220643D01*
X126058571Y-84192071D01*
X126115714Y-84163500D01*
X126201429Y-84163500D01*
X126258571Y-84192071D01*
X126287143Y-84220643D01*
X126315714Y-84277785D01*
X126315714Y-84506357D01*
X126001429Y-83963500D02*
X126001429Y-83592071D01*
X126230000Y-83792071D01*
X126230000Y-83706357D01*
X126258571Y-83649214D01*
X126287143Y-83620643D01*
X126344286Y-83592071D01*
X126487143Y-83592071D01*
X126544286Y-83620643D01*
X126572857Y-83649214D01*
X126601429Y-83706357D01*
X126601429Y-83877785D01*
X126572857Y-83934928D01*
X126544286Y-83963500D01*
X127528572Y-82271429D02*
X127185715Y-82271429D01*
X127357143Y-82271429D02*
X127357143Y-81671429D01*
X127300000Y-81757143D01*
X127242858Y-81814286D01*
X127185715Y-81842857D01*
X127785715Y-82271429D02*
X127785715Y-81671429D01*
X127842858Y-82042857D02*
X128014287Y-82271429D01*
X128014287Y-81871429D02*
X127785715Y-82100000D01*
X126300000Y-87871429D02*
X126100000Y-87585714D01*
X125957143Y-87871429D02*
X125957143Y-87271429D01*
X126185715Y-87271429D01*
X126242857Y-87300000D01*
X126271429Y-87328571D01*
X126300000Y-87385714D01*
X126300000Y-87471429D01*
X126271429Y-87528571D01*
X126242857Y-87557143D01*
X126185715Y-87585714D01*
X125957143Y-87585714D01*
X126814286Y-87471429D02*
X126814286Y-87871429D01*
X126671429Y-87242857D02*
X126528572Y-87671429D01*
X126900000Y-87671429D01*
X127628572Y-86571429D02*
X127285715Y-86571429D01*
X127457143Y-86571429D02*
X127457143Y-85971429D01*
X127400000Y-86057143D01*
X127342858Y-86114286D01*
X127285715Y-86142857D01*
X127885715Y-86571429D02*
X127885715Y-85971429D01*
X127942858Y-86342857D02*
X128114287Y-86571429D01*
X128114287Y-86171429D02*
X127885715Y-86400000D01*
X122663500Y-65441429D02*
X122463500Y-65155714D01*
X122320643Y-65441429D02*
X122320643Y-64841429D01*
X122549215Y-64841429D01*
X122606357Y-64870000D01*
X122634929Y-64898571D01*
X122663500Y-64955714D01*
X122663500Y-65041429D01*
X122634929Y-65098571D01*
X122606357Y-65127143D01*
X122549215Y-65155714D01*
X122320643Y-65155714D01*
X123206357Y-64841429D02*
X122920643Y-64841429D01*
X122892072Y-65127143D01*
X122920643Y-65098571D01*
X122977786Y-65070000D01*
X123120643Y-65070000D01*
X123177786Y-65098571D01*
X123206357Y-65127143D01*
X123234929Y-65184286D01*
X123234929Y-65327143D01*
X123206357Y-65384286D01*
X123177786Y-65412857D01*
X123120643Y-65441429D01*
X122977786Y-65441429D01*
X122920643Y-65412857D01*
X122892072Y-65384286D01*
X122529512Y-62771889D02*
X122186655Y-62771889D01*
X122358083Y-62771889D02*
X122358083Y-62171889D01*
X122300940Y-62257603D01*
X122243798Y-62314746D01*
X122186655Y-62343317D01*
X122786655Y-62771889D02*
X122786655Y-62171889D01*
X122843798Y-62543317D02*
X123015227Y-62771889D01*
X123015227Y-62371889D02*
X122786655Y-62600460D01*
X113100000Y-89871429D02*
X112900000Y-89585714D01*
X112757143Y-89871429D02*
X112757143Y-89271429D01*
X112985715Y-89271429D01*
X113042857Y-89300000D01*
X113071429Y-89328571D01*
X113100000Y-89385714D01*
X113100000Y-89471429D01*
X113071429Y-89528571D01*
X113042857Y-89557143D01*
X112985715Y-89585714D01*
X112757143Y-89585714D01*
X113614286Y-89271429D02*
X113500000Y-89271429D01*
X113442857Y-89300000D01*
X113414286Y-89328571D01*
X113357143Y-89414286D01*
X113328572Y-89528571D01*
X113328572Y-89757143D01*
X113357143Y-89814286D01*
X113385715Y-89842857D01*
X113442857Y-89871429D01*
X113557143Y-89871429D01*
X113614286Y-89842857D01*
X113642857Y-89814286D01*
X113671429Y-89757143D01*
X113671429Y-89614286D01*
X113642857Y-89557143D01*
X113614286Y-89528571D01*
X113557143Y-89500000D01*
X113442857Y-89500000D01*
X113385715Y-89528571D01*
X113357143Y-89557143D01*
X113328572Y-89614286D01*
X115471429Y-89771428D02*
X115471429Y-90114285D01*
X115471429Y-89942857D02*
X114871429Y-89942857D01*
X114957143Y-90000000D01*
X115014286Y-90057142D01*
X115042857Y-90114285D01*
X115471429Y-89514285D02*
X114871429Y-89514285D01*
X115242857Y-89457142D02*
X115471429Y-89285713D01*
X115071429Y-89285713D02*
X115300000Y-89514285D01*
X117500000Y-89871429D02*
X117300000Y-89585714D01*
X117157143Y-89871429D02*
X117157143Y-89271429D01*
X117385715Y-89271429D01*
X117442857Y-89300000D01*
X117471429Y-89328571D01*
X117500000Y-89385714D01*
X117500000Y-89471429D01*
X117471429Y-89528571D01*
X117442857Y-89557143D01*
X117385715Y-89585714D01*
X117157143Y-89585714D01*
X117700000Y-89271429D02*
X118100000Y-89271429D01*
X117842857Y-89871429D01*
X119871429Y-89671428D02*
X119871429Y-90014285D01*
X119871429Y-89842857D02*
X119271429Y-89842857D01*
X119357143Y-89900000D01*
X119414286Y-89957142D01*
X119442857Y-90014285D01*
X119871429Y-89414285D02*
X119271429Y-89414285D01*
X119642857Y-89357142D02*
X119871429Y-89185713D01*
X119471429Y-89185713D02*
X119700000Y-89414285D01*
X121900000Y-89871429D02*
X121700000Y-89585714D01*
X121557143Y-89871429D02*
X121557143Y-89271429D01*
X121785715Y-89271429D01*
X121842857Y-89300000D01*
X121871429Y-89328571D01*
X121900000Y-89385714D01*
X121900000Y-89471429D01*
X121871429Y-89528571D01*
X121842857Y-89557143D01*
X121785715Y-89585714D01*
X121557143Y-89585714D01*
X122242857Y-89528571D02*
X122185715Y-89500000D01*
X122157143Y-89471429D01*
X122128572Y-89414286D01*
X122128572Y-89385714D01*
X122157143Y-89328571D01*
X122185715Y-89300000D01*
X122242857Y-89271429D01*
X122357143Y-89271429D01*
X122414286Y-89300000D01*
X122442857Y-89328571D01*
X122471429Y-89385714D01*
X122471429Y-89414286D01*
X122442857Y-89471429D01*
X122414286Y-89500000D01*
X122357143Y-89528571D01*
X122242857Y-89528571D01*
X122185715Y-89557143D01*
X122157143Y-89585714D01*
X122128572Y-89642857D01*
X122128572Y-89757143D01*
X122157143Y-89814286D01*
X122185715Y-89842857D01*
X122242857Y-89871429D01*
X122357143Y-89871429D01*
X122414286Y-89842857D01*
X122442857Y-89814286D01*
X122471429Y-89757143D01*
X122471429Y-89642857D01*
X122442857Y-89585714D01*
X122414286Y-89557143D01*
X122357143Y-89528571D01*
X124271429Y-89671428D02*
X124271429Y-90014285D01*
X124271429Y-89842857D02*
X123671429Y-89842857D01*
X123757143Y-89900000D01*
X123814286Y-89957142D01*
X123842857Y-90014285D01*
X124271429Y-89414285D02*
X123671429Y-89414285D01*
X124042857Y-89357142D02*
X124271429Y-89185713D01*
X123871429Y-89185713D02*
X124100000Y-89414285D01*
X126400000Y-89871429D02*
X126200000Y-89585714D01*
X126057143Y-89871429D02*
X126057143Y-89271429D01*
X126285715Y-89271429D01*
X126342857Y-89300000D01*
X126371429Y-89328571D01*
X126400000Y-89385714D01*
X126400000Y-89471429D01*
X126371429Y-89528571D01*
X126342857Y-89557143D01*
X126285715Y-89585714D01*
X126057143Y-89585714D01*
X126685715Y-89871429D02*
X126800000Y-89871429D01*
X126857143Y-89842857D01*
X126885715Y-89814286D01*
X126942857Y-89728571D01*
X126971429Y-89614286D01*
X126971429Y-89385714D01*
X126942857Y-89328571D01*
X126914286Y-89300000D01*
X126857143Y-89271429D01*
X126742857Y-89271429D01*
X126685715Y-89300000D01*
X126657143Y-89328571D01*
X126628572Y-89385714D01*
X126628572Y-89528571D01*
X126657143Y-89585714D01*
X126685715Y-89614286D01*
X126742857Y-89642857D01*
X126857143Y-89642857D01*
X126914286Y-89614286D01*
X126942857Y-89585714D01*
X126971429Y-89528571D01*
X128528572Y-90871429D02*
X128185715Y-90871429D01*
X128357143Y-90871429D02*
X128357143Y-90271429D01*
X128300000Y-90357143D01*
X128242858Y-90414286D01*
X128185715Y-90442857D01*
X128785715Y-90871429D02*
X128785715Y-90271429D01*
X128842858Y-90642857D02*
X129014287Y-90871429D01*
X129014287Y-90471429D02*
X128785715Y-90700000D01*
X106714285Y-75771429D02*
X106514285Y-75485714D01*
X106371428Y-75771429D02*
X106371428Y-75171429D01*
X106600000Y-75171429D01*
X106657142Y-75200000D01*
X106685714Y-75228571D01*
X106714285Y-75285714D01*
X106714285Y-75371429D01*
X106685714Y-75428571D01*
X106657142Y-75457143D01*
X106600000Y-75485714D01*
X106371428Y-75485714D01*
X107285714Y-75771429D02*
X106942857Y-75771429D01*
X107114285Y-75771429D02*
X107114285Y-75171429D01*
X107057142Y-75257143D01*
X107000000Y-75314286D01*
X106942857Y-75342857D01*
X107657143Y-75171429D02*
X107714286Y-75171429D01*
X107771429Y-75200000D01*
X107800000Y-75228571D01*
X107828571Y-75285714D01*
X107857143Y-75400000D01*
X107857143Y-75542857D01*
X107828571Y-75657143D01*
X107800000Y-75714286D01*
X107771429Y-75742857D01*
X107714286Y-75771429D01*
X107657143Y-75771429D01*
X107600000Y-75742857D01*
X107571429Y-75714286D01*
X107542857Y-75657143D01*
X107514286Y-75542857D01*
X107514286Y-75400000D01*
X107542857Y-75285714D01*
X107571429Y-75228571D01*
X107600000Y-75200000D01*
X107657143Y-75171429D01*
X104771429Y-76414286D02*
X104771429Y-76042857D01*
X105000000Y-76242857D01*
X105000000Y-76157143D01*
X105028571Y-76100000D01*
X105057143Y-76071429D01*
X105114286Y-76042857D01*
X105257143Y-76042857D01*
X105314286Y-76071429D01*
X105342857Y-76100000D01*
X105371429Y-76157143D01*
X105371429Y-76328571D01*
X105342857Y-76385714D01*
X105314286Y-76414286D01*
X105371429Y-75757142D02*
X105371429Y-75642857D01*
X105342857Y-75585714D01*
X105314286Y-75557142D01*
X105228571Y-75500000D01*
X105114286Y-75471428D01*
X104885714Y-75471428D01*
X104828571Y-75500000D01*
X104800000Y-75528571D01*
X104771429Y-75585714D01*
X104771429Y-75700000D01*
X104800000Y-75757142D01*
X104828571Y-75785714D01*
X104885714Y-75814285D01*
X105028571Y-75814285D01*
X105085714Y-75785714D01*
X105114286Y-75757142D01*
X105142857Y-75700000D01*
X105142857Y-75585714D01*
X105114286Y-75528571D01*
X105085714Y-75500000D01*
X105028571Y-75471428D01*
X104771429Y-75099999D02*
X104771429Y-75042856D01*
X104800000Y-74985713D01*
X104828571Y-74957142D01*
X104885714Y-74928571D01*
X105000000Y-74899999D01*
X105142857Y-74899999D01*
X105257143Y-74928571D01*
X105314286Y-74957142D01*
X105342857Y-74985713D01*
X105371429Y-75042856D01*
X105371429Y-75099999D01*
X105342857Y-75157142D01*
X105314286Y-75185713D01*
X105257143Y-75214285D01*
X105142857Y-75242856D01*
X105000000Y-75242856D01*
X104885714Y-75214285D01*
X104828571Y-75185713D01*
X104800000Y-75157142D01*
X104771429Y-75099999D01*
X105371429Y-74642856D02*
X104771429Y-74642856D01*
X105142857Y-74585713D02*
X105371429Y-74414284D01*
X104971429Y-74414284D02*
X105200000Y-74642856D01*
X106814285Y-74171429D02*
X106614285Y-73885714D01*
X106471428Y-74171429D02*
X106471428Y-73571429D01*
X106700000Y-73571429D01*
X106757142Y-73600000D01*
X106785714Y-73628571D01*
X106814285Y-73685714D01*
X106814285Y-73771429D01*
X106785714Y-73828571D01*
X106757142Y-73857143D01*
X106700000Y-73885714D01*
X106471428Y-73885714D01*
X107385714Y-74171429D02*
X107042857Y-74171429D01*
X107214285Y-74171429D02*
X107214285Y-73571429D01*
X107157142Y-73657143D01*
X107100000Y-73714286D01*
X107042857Y-73742857D01*
X107957143Y-74171429D02*
X107614286Y-74171429D01*
X107785714Y-74171429D02*
X107785714Y-73571429D01*
X107728571Y-73657143D01*
X107671429Y-73714286D01*
X107614286Y-73742857D01*
X105557143Y-72871429D02*
X105214286Y-72871429D01*
X105385714Y-72871429D02*
X105385714Y-72271429D01*
X105328571Y-72357143D01*
X105271429Y-72414286D01*
X105214286Y-72442857D01*
X105928572Y-72271429D02*
X105985715Y-72271429D01*
X106042858Y-72300000D01*
X106071429Y-72328571D01*
X106100000Y-72385714D01*
X106128572Y-72500000D01*
X106128572Y-72642857D01*
X106100000Y-72757143D01*
X106071429Y-72814286D01*
X106042858Y-72842857D01*
X105985715Y-72871429D01*
X105928572Y-72871429D01*
X105871429Y-72842857D01*
X105842858Y-72814286D01*
X105814286Y-72757143D01*
X105785715Y-72642857D01*
X105785715Y-72500000D01*
X105814286Y-72385714D01*
X105842858Y-72328571D01*
X105871429Y-72300000D01*
X105928572Y-72271429D01*
X106500001Y-72271429D02*
X106557144Y-72271429D01*
X106614287Y-72300000D01*
X106642858Y-72328571D01*
X106671429Y-72385714D01*
X106700001Y-72500000D01*
X106700001Y-72642857D01*
X106671429Y-72757143D01*
X106642858Y-72814286D01*
X106614287Y-72842857D01*
X106557144Y-72871429D01*
X106500001Y-72871429D01*
X106442858Y-72842857D01*
X106414287Y-72814286D01*
X106385715Y-72757143D01*
X106357144Y-72642857D01*
X106357144Y-72500000D01*
X106385715Y-72385714D01*
X106414287Y-72328571D01*
X106442858Y-72300000D01*
X106500001Y-72271429D01*
X106957144Y-72871429D02*
X106957144Y-72271429D01*
X107014287Y-72642857D02*
X107185716Y-72871429D01*
X107185716Y-72471429D02*
X106957144Y-72700000D01*
X104571429Y-97985715D02*
X104285714Y-98185715D01*
X104571429Y-98328572D02*
X103971429Y-98328572D01*
X103971429Y-98100000D01*
X104000000Y-98042858D01*
X104028571Y-98014286D01*
X104085714Y-97985715D01*
X104171429Y-97985715D01*
X104228571Y-98014286D01*
X104257143Y-98042858D01*
X104285714Y-98100000D01*
X104285714Y-98328572D01*
X104571429Y-97414286D02*
X104571429Y-97757143D01*
X104571429Y-97585715D02*
X103971429Y-97585715D01*
X104057143Y-97642858D01*
X104114286Y-97700000D01*
X104142857Y-97757143D01*
X104028571Y-97185714D02*
X104000000Y-97157143D01*
X103971429Y-97100000D01*
X103971429Y-96957143D01*
X104000000Y-96900000D01*
X104028571Y-96871429D01*
X104085714Y-96842857D01*
X104142857Y-96842857D01*
X104228571Y-96871429D01*
X104571429Y-97214286D01*
X104571429Y-96842857D01*
X105471429Y-98057143D02*
X105471429Y-98400000D01*
X105471429Y-98228572D02*
X104871429Y-98228572D01*
X104957143Y-98285715D01*
X105014286Y-98342857D01*
X105042857Y-98400000D01*
X104871429Y-97685714D02*
X104871429Y-97628571D01*
X104900000Y-97571428D01*
X104928571Y-97542857D01*
X104985714Y-97514286D01*
X105100000Y-97485714D01*
X105242857Y-97485714D01*
X105357143Y-97514286D01*
X105414286Y-97542857D01*
X105442857Y-97571428D01*
X105471429Y-97628571D01*
X105471429Y-97685714D01*
X105442857Y-97742857D01*
X105414286Y-97771428D01*
X105357143Y-97800000D01*
X105242857Y-97828571D01*
X105100000Y-97828571D01*
X104985714Y-97800000D01*
X104928571Y-97771428D01*
X104900000Y-97742857D01*
X104871429Y-97685714D01*
X105471429Y-97228571D02*
X104871429Y-97228571D01*
X105242857Y-97171428D02*
X105471429Y-96999999D01*
X105071429Y-96999999D02*
X105300000Y-97228571D01*
X100571429Y-98085715D02*
X100285714Y-98285715D01*
X100571429Y-98428572D02*
X99971429Y-98428572D01*
X99971429Y-98200000D01*
X100000000Y-98142858D01*
X100028571Y-98114286D01*
X100085714Y-98085715D01*
X100171429Y-98085715D01*
X100228571Y-98114286D01*
X100257143Y-98142858D01*
X100285714Y-98200000D01*
X100285714Y-98428572D01*
X100571429Y-97514286D02*
X100571429Y-97857143D01*
X100571429Y-97685715D02*
X99971429Y-97685715D01*
X100057143Y-97742858D01*
X100114286Y-97800000D01*
X100142857Y-97857143D01*
X99971429Y-97314286D02*
X99971429Y-96942857D01*
X100200000Y-97142857D01*
X100200000Y-97057143D01*
X100228571Y-97000000D01*
X100257143Y-96971429D01*
X100314286Y-96942857D01*
X100457143Y-96942857D01*
X100514286Y-96971429D01*
X100542857Y-97000000D01*
X100571429Y-97057143D01*
X100571429Y-97228571D01*
X100542857Y-97285714D01*
X100514286Y-97314286D01*
X100828571Y-98114285D02*
X100800000Y-98085714D01*
X100771429Y-98028571D01*
X100771429Y-97885714D01*
X100800000Y-97828571D01*
X100828571Y-97800000D01*
X100885714Y-97771428D01*
X100942857Y-97771428D01*
X101028571Y-97800000D01*
X101371429Y-98142857D01*
X101371429Y-97771428D01*
X101371429Y-97514285D02*
X100771429Y-97514285D01*
X101142857Y-97457142D02*
X101371429Y-97285713D01*
X100971429Y-97285713D02*
X101200000Y-97514285D01*
X99914285Y-64171429D02*
X99714285Y-63885714D01*
X99571428Y-64171429D02*
X99571428Y-63571429D01*
X99800000Y-63571429D01*
X99857142Y-63600000D01*
X99885714Y-63628571D01*
X99914285Y-63685714D01*
X99914285Y-63771429D01*
X99885714Y-63828571D01*
X99857142Y-63857143D01*
X99800000Y-63885714D01*
X99571428Y-63885714D01*
X100485714Y-64171429D02*
X100142857Y-64171429D01*
X100314285Y-64171429D02*
X100314285Y-63571429D01*
X100257142Y-63657143D01*
X100200000Y-63714286D01*
X100142857Y-63742857D01*
X101000000Y-63771429D02*
X101000000Y-64171429D01*
X100857143Y-63542857D02*
X100714286Y-63971429D01*
X101085714Y-63971429D01*
X97971429Y-64285715D02*
X97971429Y-64571429D01*
X98257143Y-64600000D01*
X98228571Y-64571429D01*
X98200000Y-64514286D01*
X98200000Y-64371429D01*
X98228571Y-64314286D01*
X98257143Y-64285715D01*
X98314286Y-64257143D01*
X98457143Y-64257143D01*
X98514286Y-64285715D01*
X98542857Y-64314286D01*
X98571429Y-64371429D01*
X98571429Y-64514286D01*
X98542857Y-64571429D01*
X98514286Y-64600000D01*
X97971429Y-63742857D02*
X97971429Y-63857143D01*
X98000000Y-63914286D01*
X98028571Y-63942857D01*
X98114286Y-64000000D01*
X98228571Y-64028571D01*
X98457143Y-64028571D01*
X98514286Y-64000000D01*
X98542857Y-63971428D01*
X98571429Y-63914286D01*
X98571429Y-63800000D01*
X98542857Y-63742857D01*
X98514286Y-63714286D01*
X98457143Y-63685714D01*
X98314286Y-63685714D01*
X98257143Y-63714286D01*
X98228571Y-63742857D01*
X98200000Y-63800000D01*
X98200000Y-63914286D01*
X98228571Y-63971428D01*
X98257143Y-64000000D01*
X98314286Y-64028571D01*
X98571429Y-63428571D02*
X97971429Y-63428571D01*
X98342857Y-63371428D02*
X98571429Y-63199999D01*
X98171429Y-63199999D02*
X98400000Y-63428571D01*
X97441429Y-65022215D02*
X97155714Y-65222215D01*
X97441429Y-65365072D02*
X96841429Y-65365072D01*
X96841429Y-65136500D01*
X96870000Y-65079358D01*
X96898571Y-65050786D01*
X96955714Y-65022215D01*
X97041429Y-65022215D01*
X97098571Y-65050786D01*
X97127143Y-65079358D01*
X97155714Y-65136500D01*
X97155714Y-65365072D01*
X97441429Y-64450786D02*
X97441429Y-64793643D01*
X97441429Y-64622215D02*
X96841429Y-64622215D01*
X96927143Y-64679358D01*
X96984286Y-64736500D01*
X97012857Y-64793643D01*
X96841429Y-63907929D02*
X96841429Y-64193643D01*
X97127143Y-64222214D01*
X97098571Y-64193643D01*
X97070000Y-64136500D01*
X97070000Y-63993643D01*
X97098571Y-63936500D01*
X97127143Y-63907929D01*
X97184286Y-63879357D01*
X97327143Y-63879357D01*
X97384286Y-63907929D01*
X97412857Y-63936500D01*
X97441429Y-63993643D01*
X97441429Y-64136500D01*
X97412857Y-64193643D01*
X97384286Y-64222214D01*
X95871429Y-62614286D02*
X96271429Y-62614286D01*
X95642857Y-62757143D02*
X96071429Y-62900000D01*
X96071429Y-62528572D01*
X96271429Y-62300000D02*
X95671429Y-62300000D01*
X96042857Y-62242857D02*
X96271429Y-62071428D01*
X95871429Y-62071428D02*
X96100000Y-62300000D01*
X95671429Y-61871429D02*
X95671429Y-61471429D01*
X96271429Y-61728572D01*
X97441429Y-68622215D02*
X97155714Y-68822215D01*
X97441429Y-68965072D02*
X96841429Y-68965072D01*
X96841429Y-68736500D01*
X96870000Y-68679358D01*
X96898571Y-68650786D01*
X96955714Y-68622215D01*
X97041429Y-68622215D01*
X97098571Y-68650786D01*
X97127143Y-68679358D01*
X97155714Y-68736500D01*
X97155714Y-68965072D01*
X97441429Y-68050786D02*
X97441429Y-68393643D01*
X97441429Y-68222215D02*
X96841429Y-68222215D01*
X96927143Y-68279358D01*
X96984286Y-68336500D01*
X97012857Y-68393643D01*
X96841429Y-67536500D02*
X96841429Y-67650786D01*
X96870000Y-67707929D01*
X96898571Y-67736500D01*
X96984286Y-67793643D01*
X97098571Y-67822214D01*
X97327143Y-67822214D01*
X97384286Y-67793643D01*
X97412857Y-67765071D01*
X97441429Y-67707929D01*
X97441429Y-67593643D01*
X97412857Y-67536500D01*
X97384286Y-67507929D01*
X97327143Y-67479357D01*
X97184286Y-67479357D01*
X97127143Y-67507929D01*
X97098571Y-67536500D01*
X97070000Y-67593643D01*
X97070000Y-67707929D01*
X97098571Y-67765071D01*
X97127143Y-67793643D01*
X97184286Y-67822214D01*
X95871429Y-71214286D02*
X96271429Y-71214286D01*
X95642857Y-71357143D02*
X96071429Y-71500000D01*
X96071429Y-71128572D01*
X96271429Y-70900000D02*
X95671429Y-70900000D01*
X96042857Y-70842857D02*
X96271429Y-70671428D01*
X95871429Y-70671428D02*
X96100000Y-70900000D01*
X95671429Y-70471429D02*
X95671429Y-70071429D01*
X96271429Y-70328572D01*
X115285715Y-84652381D02*
X114714286Y-84652381D01*
X115000000Y-84652381D02*
X115000000Y-83652381D01*
X114904762Y-83795238D01*
X114809524Y-83890476D01*
X114714286Y-83938095D01*
X124385715Y-87452381D02*
X123814286Y-87452381D01*
X124100000Y-87452381D02*
X124100000Y-86452381D01*
X124004762Y-86595238D01*
X123909524Y-86690476D01*
X123814286Y-86738095D01*
X133571429Y-78128572D02*
X134171429Y-77728572D01*
X133571429Y-77728572D02*
X134171429Y-78128572D01*
X134171429Y-77214286D02*
X134171429Y-77500000D01*
X133571429Y-77500000D01*
X133571429Y-77071429D02*
X133571429Y-76700000D01*
X133800000Y-76900000D01*
X133800000Y-76814286D01*
X133828571Y-76757143D01*
X133857143Y-76728572D01*
X133914286Y-76700000D01*
X134057143Y-76700000D01*
X134114286Y-76728572D01*
X134142857Y-76757143D01*
X134171429Y-76814286D01*
X134171429Y-76985714D01*
X134142857Y-77042857D01*
X134114286Y-77071429D01*
X133571429Y-82528572D02*
X134171429Y-82128572D01*
X133571429Y-82128572D02*
X134171429Y-82528572D01*
X134171429Y-81614286D02*
X134171429Y-81900000D01*
X133571429Y-81900000D01*
X133771429Y-81157143D02*
X134171429Y-81157143D01*
X133542857Y-81300000D02*
X133971429Y-81442857D01*
X133971429Y-81071429D01*
X133571429Y-86928572D02*
X134171429Y-86528572D01*
X133571429Y-86528572D02*
X134171429Y-86928572D01*
X134171429Y-86014286D02*
X134171429Y-86300000D01*
X133571429Y-86300000D01*
X133571429Y-85528572D02*
X133571429Y-85814286D01*
X133857143Y-85842857D01*
X133828571Y-85814286D01*
X133800000Y-85757143D01*
X133800000Y-85614286D01*
X133828571Y-85557143D01*
X133857143Y-85528572D01*
X133914286Y-85500000D01*
X134057143Y-85500000D01*
X134114286Y-85528572D01*
X134142857Y-85557143D01*
X134171429Y-85614286D01*
X134171429Y-85757143D01*
X134142857Y-85814286D01*
X134114286Y-85842857D01*
X133571429Y-91328572D02*
X134171429Y-90928572D01*
X133571429Y-90928572D02*
X134171429Y-91328572D01*
X134171429Y-90414286D02*
X134171429Y-90700000D01*
X133571429Y-90700000D01*
X133571429Y-89957143D02*
X133571429Y-90071429D01*
X133600000Y-90128572D01*
X133628571Y-90157143D01*
X133714286Y-90214286D01*
X133828571Y-90242857D01*
X134057143Y-90242857D01*
X134114286Y-90214286D01*
X134142857Y-90185714D01*
X134171429Y-90128572D01*
X134171429Y-90014286D01*
X134142857Y-89957143D01*
X134114286Y-89928572D01*
X134057143Y-89900000D01*
X133914286Y-89900000D01*
X133857143Y-89928572D01*
X133828571Y-89957143D01*
X133800000Y-90014286D01*
X133800000Y-90128572D01*
X133828571Y-90185714D01*
X133857143Y-90214286D01*
X133914286Y-90242857D01*
X135852381Y-61748285D02*
X135852381Y-62319714D01*
X135852381Y-62034000D02*
X134852381Y-62034000D01*
X134995238Y-62129238D01*
X135090476Y-62224476D01*
X135138095Y-62319714D01*
X114771428Y-95571429D02*
X115171428Y-96171429D01*
X115171428Y-95571429D02*
X114771428Y-96171429D01*
X115685714Y-96171429D02*
X115400000Y-96171429D01*
X115400000Y-95571429D01*
X115971428Y-95828571D02*
X115914286Y-95800000D01*
X115885714Y-95771429D01*
X115857143Y-95714286D01*
X115857143Y-95685714D01*
X115885714Y-95628571D01*
X115914286Y-95600000D01*
X115971428Y-95571429D01*
X116085714Y-95571429D01*
X116142857Y-95600000D01*
X116171428Y-95628571D01*
X116200000Y-95685714D01*
X116200000Y-95714286D01*
X116171428Y-95771429D01*
X116142857Y-95800000D01*
X116085714Y-95828571D01*
X115971428Y-95828571D01*
X115914286Y-95857143D01*
X115885714Y-95885714D01*
X115857143Y-95942857D01*
X115857143Y-96057143D01*
X115885714Y-96114286D01*
X115914286Y-96142857D01*
X115971428Y-96171429D01*
X116085714Y-96171429D01*
X116142857Y-96142857D01*
X116171428Y-96114286D01*
X116200000Y-96057143D01*
X116200000Y-95942857D01*
X116171428Y-95885714D01*
X116142857Y-95857143D01*
X116085714Y-95828571D01*
X119071428Y-95571429D02*
X119471428Y-96171429D01*
X119471428Y-95571429D02*
X119071428Y-96171429D01*
X119985714Y-96171429D02*
X119700000Y-96171429D01*
X119700000Y-95571429D01*
X120214286Y-96171429D02*
X120328571Y-96171429D01*
X120385714Y-96142857D01*
X120414286Y-96114286D01*
X120471428Y-96028571D01*
X120500000Y-95914286D01*
X120500000Y-95685714D01*
X120471428Y-95628571D01*
X120442857Y-95600000D01*
X120385714Y-95571429D01*
X120271428Y-95571429D01*
X120214286Y-95600000D01*
X120185714Y-95628571D01*
X120157143Y-95685714D01*
X120157143Y-95828571D01*
X120185714Y-95885714D01*
X120214286Y-95914286D01*
X120271428Y-95942857D01*
X120385714Y-95942857D01*
X120442857Y-95914286D01*
X120471428Y-95885714D01*
X120500000Y-95828571D01*
X123185714Y-95571429D02*
X123585714Y-96171429D01*
X123585714Y-95571429D02*
X123185714Y-96171429D01*
X124100000Y-96171429D02*
X123814286Y-96171429D01*
X123814286Y-95571429D01*
X124614286Y-96171429D02*
X124271429Y-96171429D01*
X124442857Y-96171429D02*
X124442857Y-95571429D01*
X124385714Y-95657143D01*
X124328572Y-95714286D01*
X124271429Y-95742857D01*
X124985715Y-95571429D02*
X125042858Y-95571429D01*
X125100001Y-95600000D01*
X125128572Y-95628571D01*
X125157143Y-95685714D01*
X125185715Y-95800000D01*
X125185715Y-95942857D01*
X125157143Y-96057143D01*
X125128572Y-96114286D01*
X125100001Y-96142857D01*
X125042858Y-96171429D01*
X124985715Y-96171429D01*
X124928572Y-96142857D01*
X124900001Y-96114286D01*
X124871429Y-96057143D01*
X124842858Y-95942857D01*
X124842858Y-95800000D01*
X124871429Y-95685714D01*
X124900001Y-95628571D01*
X124928572Y-95600000D01*
X124985715Y-95571429D01*
X127585714Y-95571429D02*
X127985714Y-96171429D01*
X127985714Y-95571429D02*
X127585714Y-96171429D01*
X128500000Y-96171429D02*
X128214286Y-96171429D01*
X128214286Y-95571429D01*
X129014286Y-96171429D02*
X128671429Y-96171429D01*
X128842857Y-96171429D02*
X128842857Y-95571429D01*
X128785714Y-95657143D01*
X128728572Y-95714286D01*
X128671429Y-95742857D01*
X129585715Y-96171429D02*
X129242858Y-96171429D01*
X129414286Y-96171429D02*
X129414286Y-95571429D01*
X129357143Y-95657143D01*
X129300001Y-95714286D01*
X129242858Y-95742857D01*
X92585714Y-89171429D02*
X92985714Y-89771429D01*
X92985714Y-89171429D02*
X92585714Y-89771429D01*
X93500000Y-89771429D02*
X93214286Y-89771429D01*
X93214286Y-89171429D01*
X94014286Y-89771429D02*
X93671429Y-89771429D01*
X93842857Y-89771429D02*
X93842857Y-89171429D01*
X93785714Y-89257143D01*
X93728572Y-89314286D01*
X93671429Y-89342857D01*
X94242858Y-89228571D02*
X94271429Y-89200000D01*
X94328572Y-89171429D01*
X94471429Y-89171429D01*
X94528572Y-89200000D01*
X94557143Y-89228571D01*
X94585715Y-89285714D01*
X94585715Y-89342857D01*
X94557143Y-89428571D01*
X94214286Y-89771429D01*
X94585715Y-89771429D01*
X94052381Y-72714285D02*
X94052381Y-73285714D01*
X94052381Y-73000000D02*
X93052381Y-73000000D01*
X93195238Y-73095238D01*
X93290476Y-73190476D01*
X93338095Y-73285714D01*
X94052381Y-61714285D02*
X94052381Y-62285714D01*
X94052381Y-62000000D02*
X93052381Y-62000000D01*
X93195238Y-62095238D01*
X93290476Y-62190476D01*
X93338095Y-62285714D01*
D15*
X116171735Y-63713152D02*
X116771175Y-63313525D01*
X116171735Y-63313525D02*
X116771175Y-63713152D01*
X116171735Y-63170801D02*
X116171735Y-62828264D01*
X116771175Y-62999533D02*
X116171735Y-62999533D01*
X116599907Y-62656996D02*
X116599907Y-62371548D01*
X116771175Y-62714085D02*
X116171735Y-62514272D01*
X116771175Y-62314459D01*
X116771175Y-61829198D02*
X116771175Y-62114645D01*
X116171735Y-62114645D01*
X116771175Y-61315392D02*
X116771175Y-61657929D01*
X116771175Y-61486660D02*
X116171735Y-61486660D01*
X116257370Y-61543750D01*
X116314459Y-61600839D01*
X116343004Y-61657929D01*
X117128825Y-63755876D02*
X117100280Y-63727331D01*
X117071735Y-63670242D01*
X117071735Y-63527518D01*
X117100280Y-63470428D01*
X117128825Y-63441884D01*
X117185914Y-63413339D01*
X117243004Y-63413339D01*
X117328638Y-63441884D01*
X117671175Y-63784421D01*
X117671175Y-63413339D01*
X117071735Y-63213526D02*
X117071735Y-62813899D01*
X117671175Y-63070802D01*
X117671175Y-62585541D02*
X117071735Y-62585541D01*
X117499907Y-62385728D01*
X117071735Y-62185915D01*
X117671175Y-62185915D01*
X117671175Y-61900467D02*
X117071735Y-61900467D01*
X117357183Y-61900467D02*
X117357183Y-61557930D01*
X117671175Y-61557930D02*
X117071735Y-61557930D01*
X117271549Y-61329572D02*
X117271549Y-61015579D01*
X117671175Y-61329572D01*
X117671175Y-61015579D01*
M02*
