M48
;DRILL file {KiCad 4.0.1-stable} date 25.01.2016 0:45:12
;FORMAT={-:-/ absolute / metric / decimal}
FMAT,2
METRIC,TZ
T1C0.300
T2C0.400
T3C0.500
T4C0.700
T5C0.900
T6C3.500
%
G90
G05
M71
T1
X103.253Y-67.451
X103.909Y-66.678
X104.234Y-67.665
X105.609Y-67.487
X105.642Y-94.957
X108.854Y-74.325
X110.331Y-82.767
X111.957Y-75.704
X112.533Y-73.428
X112.546Y-72.102
X112.566Y-76.497
X113.018Y-88.182
X114.166Y-71.164
X115.061Y-72.946
X115.214Y-77.616
X115.606Y-74.53
X116.246Y-76.664
X116.499Y-74.06
X116.564Y-80.284
X116.716Y-77.535
X117.609Y-77.038
X119.279Y-77.851
X120.346Y-74.929
X120.924Y-88.546
X121.132Y-74.095
X121.147Y-75.526
X121.198Y-73.134
X122.021Y-71.265
X122.133Y-68.863
X122.574Y-70.431
X122.601Y-78.235
X122.936Y-69.499
X124.87Y-88.66
X125.01Y-76.788
X126.531Y-76.443
T2
X93.1Y-83.
X93.5Y-61.4
X95.9Y-74.2
X96.2Y-71.4
X96.4Y-79.
X96.4Y-82.
X96.4Y-85.4
X96.6Y-88.2
X98.Y-65.6
X98.2Y-54.7
X98.443Y-62.559
X99.3Y-59.7
X99.4Y-68.4
X99.4Y-97.9
X99.6Y-85.3
X99.9Y-57.2
X100.3Y-88.6
X100.575Y-74.656
X101.1Y-54.7
X101.172Y-66.658
X101.463Y-61.143
X101.8Y-78.9
X101.9Y-58.5
X102.Y-81.7
X102.34Y-63.161
X103.1Y-97.8
X103.574Y-85.588
X103.7Y-54.7
X103.7Y-57.1
X103.806Y-59.819
X104.742Y-70.285
X105.Y-75.2
X105.05Y-63.85
X105.05Y-64.95
X106.15Y-63.85
X106.15Y-64.95
X106.9Y-97.7
X106.95Y-58.322
X107.052Y-67.844
X107.075Y-72.811
X107.2Y-54.7
X107.933Y-59.475
X108.9Y-62.2
X108.968Y-85.25
X109.15Y-65.378
X109.4Y-57.3
X109.623Y-73.649
X109.733Y-76.626
X109.8Y-54.7
X110.151Y-69.982
X110.179Y-61.567
X110.8Y-58.7
X111.34Y-63.647
X111.35Y-65.446
X111.5Y-97.9
X111.568Y-70.699
X111.6Y-81.
X111.7Y-87.
X112.156Y-92.291
X112.5Y-54.7
X112.602Y-74.447
X112.8Y-57.
X112.9Y-82.2
X113.3Y-84.4
X113.9Y-79.3
X114.1Y-60.1
X115.17Y-64.412
X115.2Y-54.7
X115.2Y-57.
X115.341Y-68.093
X115.4Y-61.7
X116.379Y-92.279
X117.888Y-72.529
X118.Y-59.9
X118.Y-63.
X118.1Y-54.7
X118.1Y-57.
X119.3Y-66.5
X119.375Y-80.4
X120.52Y-63.441
X120.741Y-76.551
X120.8Y-92.3
X121.1Y-54.7
X121.1Y-57.
X121.1Y-59.8
X122.659Y-65.555
X122.944Y-81.683
X124.1Y-54.7
X124.1Y-57.
X124.3Y-59.7
X124.392Y-62.834
X124.746Y-70.177
X124.964Y-65.558
X125.2Y-92.2
X125.4Y-80.2
X125.7Y-74.9
X125.7Y-84.9
X126.4Y-71.4
X126.596Y-61.79
X127.2Y-54.7
X127.2Y-57.
X127.3Y-59.8
X127.6Y-77.4
X127.791Y-65.022
X129.736Y-77.236
X129.8Y-71.2
X129.9Y-91.8
X130.1Y-64.1
X130.2Y-85.1
X130.279Y-80.821
X130.3Y-89.4
X130.766Y-60.254
X132.2Y-62.7
X132.602Y-72.782
X133.5Y-68.
X133.551Y-65.999
X133.6Y-70.5
X135.3Y-61.4
X135.7Y-73.8
T3
X106.55Y-81.35
X106.55Y-82.45
X106.55Y-83.55
X106.55Y-84.65
X107.65Y-81.35
X107.65Y-82.45
X107.65Y-83.55
X107.65Y-84.65
T4
X108.8Y-94.35
X108.8Y-96.85
T5
X93.5Y-88.2
X93.5Y-90.74
X93.6Y-64.
X93.6Y-66.54
X93.6Y-69.08
X93.6Y-71.62
X93.6Y-75.
X93.6Y-77.54
X93.6Y-80.08
X97.65Y-91.3
X101.15Y-91.3
X114.48Y-87.
X115.4Y-94.66
X115.4Y-97.2
X117.Y-84.2
X117.02Y-87.
X119.54Y-84.2
X119.56Y-87.
X119.8Y-94.66
X119.8Y-97.2
X122.08Y-84.2
X122.1Y-87.
X124.2Y-94.66
X124.2Y-97.2
X128.6Y-94.66
X128.6Y-97.2
X132.66Y-77.4
X132.66Y-81.8
X132.66Y-86.2
X132.66Y-90.6
X135.2Y-77.4
X135.2Y-81.8
X135.2Y-86.2
X135.2Y-90.6
X135.4Y-64.034
X135.4Y-66.574
X135.4Y-69.114
X135.4Y-71.654
T6
X95.5Y-57.5
X95.5Y-95.5
X133.5Y-57.5
X133.5Y-95.5
T0
M30
