G04 #@! TF.FileFunction,Copper,L2,Bot,Signal*
%FSLAX46Y46*%
G04 Gerber Fmt 4.6, Leading zero omitted, Abs format (unit mm)*
G04 Created by KiCad (PCBNEW 4.0.1-stable) date 25.01.2016 0:45:01*
%MOMM*%
G01*
G04 APERTURE LIST*
%ADD10C,0.100000*%
%ADD11R,1.600000X1.600000*%
%ADD12C,1.600000*%
%ADD13R,1.350000X1.350000*%
%ADD14C,1.350000*%
%ADD15R,1.100000X1.100000*%
%ADD16C,6.000000*%
%ADD17R,1.500000X1.500000*%
%ADD18C,1.500000*%
%ADD19C,0.900000*%
%ADD20C,0.700000*%
%ADD21C,0.500000*%
%ADD22C,0.200000*%
%ADD23C,0.254000*%
G04 APERTURE END LIST*
D10*
D11*
X101150000Y-91300000D03*
D12*
X97650000Y-91300000D03*
D13*
X108800000Y-94350000D03*
D14*
X108800000Y-96850000D03*
D15*
X106550000Y-83550000D03*
X106550000Y-82450000D03*
X107650000Y-83550000D03*
X107650000Y-82450000D03*
X106550000Y-84650000D03*
X107650000Y-84650000D03*
X106550000Y-81350000D03*
X107650000Y-81350000D03*
X105050000Y-64950000D03*
X105050000Y-63850000D03*
X106150000Y-64950000D03*
X106150000Y-63850000D03*
D16*
X95500000Y-57500000D03*
X133500000Y-57500000D03*
X133500000Y-95500000D03*
X95500000Y-95500000D03*
D17*
X117000000Y-84200000D03*
D18*
X119540000Y-84200000D03*
X122080000Y-84200000D03*
D17*
X122100000Y-87000000D03*
D18*
X119560000Y-87000000D03*
X117020000Y-87000000D03*
X114480000Y-87000000D03*
D17*
X135200000Y-77400000D03*
D18*
X132660000Y-77400000D03*
D17*
X135200000Y-81800000D03*
D18*
X132660000Y-81800000D03*
D17*
X135200000Y-86200000D03*
D18*
X132660000Y-86200000D03*
D17*
X135200000Y-90600000D03*
D18*
X132660000Y-90600000D03*
D17*
X135400000Y-64034000D03*
D18*
X135400000Y-66574000D03*
X135400000Y-69114000D03*
X135400000Y-71654000D03*
D17*
X115400000Y-97200000D03*
D18*
X115400000Y-94660000D03*
D17*
X119800000Y-97200000D03*
D18*
X119800000Y-94660000D03*
D17*
X124200000Y-97200000D03*
D18*
X124200000Y-94660000D03*
D17*
X128600000Y-97200000D03*
D18*
X128600000Y-94660000D03*
D17*
X93500000Y-88200000D03*
D18*
X93500000Y-90740000D03*
D17*
X93600000Y-75000000D03*
D18*
X93600000Y-77540000D03*
X93600000Y-80080000D03*
D17*
X93600000Y-64000000D03*
D18*
X93600000Y-66540000D03*
X93600000Y-69080000D03*
X93600000Y-71620000D03*
D19*
X102340200Y-63161400D03*
X98443400Y-62559500D03*
X107932600Y-59475100D03*
X103806000Y-59819400D03*
X107051800Y-67844100D03*
X111350000Y-65446000D03*
X115170100Y-64412500D03*
X119375000Y-80399800D03*
X109150000Y-65378100D03*
X100575000Y-74656400D03*
X112601500Y-74447100D03*
X117887700Y-72529300D03*
X109622800Y-73648800D03*
X107075200Y-72811000D03*
X104741900Y-70284700D03*
X112156200Y-92291300D03*
X116378900Y-92279200D03*
X120740600Y-76551100D03*
X98200000Y-54700000D03*
X101100000Y-54700000D03*
X103700000Y-54700000D03*
X107200000Y-54700000D03*
X109800000Y-54700000D03*
X112500000Y-54700000D03*
X115200000Y-54700000D03*
X118100000Y-54700000D03*
X121100000Y-54700000D03*
X124100000Y-54700000D03*
X127200000Y-54700000D03*
X106949800Y-58322300D03*
X109400000Y-57300000D03*
X110800000Y-58700000D03*
X114100000Y-60100000D03*
X112800000Y-57000000D03*
X108900000Y-62200000D03*
X115200000Y-57000000D03*
X118100000Y-57000000D03*
X121100000Y-57000000D03*
X124100000Y-57000000D03*
X127200000Y-57000000D03*
X118000000Y-59900000D03*
X121100000Y-59800000D03*
X124300000Y-59700000D03*
X127300000Y-59800000D03*
X130766100Y-60253600D03*
X135300000Y-61400000D03*
X132200000Y-62700000D03*
X126596200Y-61789600D03*
X124392200Y-62834000D03*
X120520400Y-63441100D03*
X118000000Y-63000000D03*
X115400000Y-61700000D03*
X119300000Y-66500000D03*
X122659200Y-65555300D03*
X124964300Y-65557600D03*
X127790800Y-65022100D03*
X133550900Y-65999500D03*
X133500000Y-68000000D03*
X133600000Y-70500000D03*
X130100000Y-64100000D03*
X126400000Y-71400000D03*
X129800000Y-71200000D03*
X132602300Y-72781600D03*
X135700000Y-73800000D03*
X125700000Y-74900000D03*
X127600000Y-77400000D03*
X129736000Y-77235800D03*
X130279200Y-80821200D03*
X125400000Y-80200000D03*
X125700000Y-84900000D03*
X130200000Y-85100000D03*
X130300000Y-89400000D03*
X125200000Y-92200000D03*
X129900000Y-91800000D03*
X120800000Y-92300000D03*
X111700000Y-87000000D03*
X112900000Y-82200000D03*
X111600000Y-81000000D03*
X113900000Y-79300000D03*
X113300000Y-84400000D03*
X105000000Y-75200000D03*
X96200000Y-71400000D03*
X95900000Y-74200000D03*
X99400000Y-68400000D03*
X98000000Y-65600000D03*
X93500000Y-61400000D03*
X99300000Y-59700000D03*
X99900000Y-57200000D03*
X103700000Y-57100000D03*
X96400000Y-79000000D03*
X101800000Y-78900000D03*
X96400000Y-82000000D03*
X102000000Y-81700000D03*
X96400000Y-85400000D03*
X99600000Y-85300000D03*
X96600000Y-88200000D03*
X100300000Y-88600000D03*
X93100000Y-83000000D03*
X99400000Y-97900000D03*
X103100000Y-97800000D03*
X106900000Y-97700000D03*
X111500000Y-97900000D03*
X101900000Y-58500000D03*
X108967800Y-85250200D03*
X103573900Y-85588200D03*
D20*
X105641600Y-94956700D03*
X110331400Y-82766600D03*
D19*
X111567800Y-70698600D03*
X115341200Y-68092700D03*
X124746400Y-70176700D03*
X122944500Y-81683000D03*
X109732700Y-76625900D03*
X101172400Y-66658100D03*
X101463000Y-61143400D03*
X111339700Y-63647100D03*
X110179500Y-61567300D03*
X110151400Y-69981700D03*
D20*
X116499300Y-74060300D03*
X105608700Y-67486800D03*
X114165800Y-71164200D03*
X115606300Y-74530300D03*
X108853700Y-74325000D03*
X103909000Y-66678100D03*
X112545800Y-72102500D03*
X104234500Y-67664600D03*
X115060700Y-72945900D03*
X103253300Y-67451100D03*
X112533300Y-73428000D03*
X111956900Y-75703800D03*
X112566100Y-76496800D03*
X122133300Y-68862800D03*
X115213800Y-77615900D03*
X122936500Y-69498900D03*
X116245900Y-76663800D03*
X116716400Y-77535300D03*
X122573900Y-70431200D03*
X117608900Y-77038100D03*
X122021500Y-71264900D03*
X119279500Y-77851400D03*
X122600700Y-78235100D03*
X126531200Y-76442600D03*
X125009900Y-76788500D03*
X113018100Y-88181700D03*
X121146900Y-75526100D03*
X116563900Y-80284100D03*
X120346200Y-74929400D03*
X120924500Y-88546300D03*
X121131600Y-74094700D03*
X124869800Y-88660000D03*
X121197600Y-73133700D03*
D21*
X106900000Y-97700000D02*
X108800000Y-96850000D01*
X99400000Y-97900000D02*
X95500000Y-95500000D01*
X99400000Y-97900000D02*
X103100000Y-97800000D01*
X102000000Y-81700000D02*
X99600000Y-85300000D01*
X113300000Y-84400000D02*
X112900000Y-82200000D01*
X112900000Y-82200000D02*
X113900000Y-79300000D01*
X113900000Y-79300000D02*
X111600000Y-81000000D01*
X129900000Y-91800000D02*
X130300000Y-89400000D01*
X125700000Y-84900000D02*
X130200000Y-85100000D01*
X127600000Y-77400000D02*
X129736000Y-77235800D01*
X125400000Y-80200000D02*
X127600000Y-77400000D01*
X125700000Y-74900000D02*
X126400000Y-71400000D01*
X129800000Y-71200000D02*
X126400000Y-71400000D01*
X129800000Y-71200000D02*
X132602300Y-72781600D01*
X135700000Y-73800000D02*
X135400000Y-71654000D01*
X133600000Y-70500000D02*
X135400000Y-71654000D01*
X133600000Y-70500000D02*
X133500000Y-68000000D01*
X133500000Y-68000000D02*
X133550900Y-65999500D01*
X118000000Y-63000000D02*
X119300000Y-66500000D01*
X124964300Y-65557600D02*
X127790800Y-65022100D01*
X124964300Y-65557600D02*
X122659200Y-65555300D01*
X132200000Y-62700000D02*
X135300000Y-61400000D01*
X132200000Y-62700000D02*
X133550900Y-65999500D01*
X132200000Y-62700000D02*
X130766100Y-60253600D01*
X132200000Y-62700000D02*
X130100000Y-64100000D01*
X126596200Y-61789600D02*
X127790800Y-65022100D01*
X126596200Y-61789600D02*
X130766100Y-60253600D01*
X121100000Y-57000000D02*
X118100000Y-57000000D01*
X124100000Y-57000000D02*
X127300000Y-59800000D01*
X124100000Y-57000000D02*
X121100000Y-59800000D01*
X124100000Y-57000000D02*
X127200000Y-54700000D01*
X124100000Y-57000000D02*
X121100000Y-54700000D01*
X124100000Y-57000000D02*
X127200000Y-57000000D01*
X124100000Y-57000000D02*
X121100000Y-57000000D01*
X124100000Y-57000000D02*
X124300000Y-59700000D01*
X124100000Y-57000000D02*
X124100000Y-54700000D01*
X115200000Y-57000000D02*
X115400000Y-61700000D01*
X115200000Y-57000000D02*
X118000000Y-59900000D01*
X115200000Y-57000000D02*
X118100000Y-54700000D01*
X115200000Y-57000000D02*
X114100000Y-60100000D01*
X115200000Y-57000000D02*
X118100000Y-57000000D01*
X115200000Y-57000000D02*
X112800000Y-57000000D01*
X115200000Y-57000000D02*
X115200000Y-54700000D01*
X112800000Y-57000000D02*
X112500000Y-54700000D01*
X108900000Y-62200000D02*
X107932600Y-59475100D01*
X117538400Y-83316800D02*
X119375000Y-80399800D01*
X117500000Y-83414500D02*
X117500000Y-83450000D01*
X117519700Y-83346500D02*
X117500000Y-83414500D01*
X117538400Y-83316800D02*
X117519700Y-83346500D01*
X117500000Y-83700000D02*
X117500000Y-83450000D01*
X117000000Y-84200000D02*
X117500000Y-83700000D01*
X94676300Y-89297700D02*
X93500000Y-90740000D01*
X94800100Y-89045000D02*
X94800100Y-88950000D01*
X94736400Y-89224100D02*
X94800100Y-89045000D01*
X94676300Y-89297700D02*
X94736400Y-89224100D01*
X94800100Y-87450000D02*
X94800100Y-88950000D01*
X94796400Y-87382900D02*
X94792900Y-87361100D01*
X94800100Y-87427900D02*
X94796400Y-87382900D01*
X94800100Y-87450000D02*
X94800100Y-87427900D01*
X93600000Y-80080000D02*
X94792900Y-87361100D01*
X119375000Y-80399800D02*
X120740600Y-76551100D01*
X116378900Y-92279200D02*
X117020000Y-87000000D01*
X93600000Y-71620000D02*
X100575000Y-74656400D01*
X112309900Y-74348800D02*
X109622800Y-73648800D01*
X112338800Y-74356300D02*
X112309900Y-74348800D01*
X112397300Y-74374300D02*
X112338800Y-74356300D01*
X112427200Y-74384900D02*
X112397300Y-74374300D01*
X112601500Y-74447100D02*
X112427200Y-74384900D01*
X106450000Y-65250000D02*
X106150000Y-64950000D01*
X106700000Y-65250000D02*
X106450000Y-65250000D01*
X106713100Y-65250300D02*
X106700000Y-65250000D01*
X109150000Y-65378100D02*
X106713100Y-65250300D01*
X106450000Y-63550000D02*
X106150000Y-63850000D01*
X106450000Y-63300000D02*
X106450000Y-63550000D01*
X106450000Y-63276700D02*
X106450000Y-63300000D01*
X106458700Y-63230700D02*
X106450000Y-63276700D01*
X106467300Y-63208700D02*
X106458700Y-63230700D01*
X107932600Y-59475100D02*
X106467300Y-63208700D01*
X104455300Y-63546000D02*
X102340200Y-63161400D01*
X104488700Y-63550000D02*
X104500000Y-63550000D01*
X104466500Y-63548000D02*
X104488700Y-63550000D01*
X104455300Y-63546000D02*
X104466500Y-63548000D01*
X104750000Y-63550000D02*
X104500000Y-63550000D01*
X105050000Y-63850000D02*
X104750000Y-63550000D01*
X109919000Y-95349800D02*
X112156200Y-92291300D01*
X109915900Y-95353900D02*
X109919000Y-95349800D01*
X108800000Y-96850000D02*
X109915900Y-95353900D01*
X111350000Y-65446000D02*
X115170100Y-64412500D01*
X104741100Y-63234000D02*
X103806000Y-59819400D01*
X104745500Y-63250000D02*
X104741100Y-63234000D01*
X104750000Y-63283400D02*
X104745500Y-63250000D01*
X104750000Y-63300000D02*
X104750000Y-63283400D01*
X104750000Y-63550000D02*
X104750000Y-63300000D01*
X105050000Y-63850000D02*
X104750000Y-63550000D01*
X106450000Y-65250000D02*
X106150000Y-64950000D01*
X106450000Y-65500000D02*
X106450000Y-65250000D01*
X106454000Y-65547400D02*
X106458100Y-65563000D01*
X106450000Y-65515700D02*
X106454000Y-65547400D01*
X106450000Y-65500000D02*
X106450000Y-65515700D01*
X107051800Y-67844100D02*
X106458100Y-65563000D01*
X116162400Y-73225600D02*
X117887700Y-72529300D01*
X116024500Y-73293900D02*
X115983000Y-73323000D01*
X116114300Y-73245100D02*
X116024500Y-73293900D01*
X116162400Y-73225600D02*
X116114300Y-73245100D01*
X115541300Y-73632300D02*
X115983000Y-73323000D01*
X115480000Y-73675200D02*
X115541300Y-73632300D01*
X115342800Y-73738400D02*
X115480000Y-73675200D01*
X115270400Y-73757100D02*
X115342800Y-73738400D01*
X112601500Y-74447100D02*
X115270400Y-73757100D01*
X107075200Y-72811000D02*
X104741900Y-70284700D01*
X101716700Y-90410100D02*
X103573900Y-85588200D01*
X101700000Y-90476900D02*
X101700000Y-90500000D01*
X101708400Y-90431700D02*
X101700000Y-90476900D01*
X101716700Y-90410100D02*
X101708400Y-90431700D01*
X101700000Y-90750000D02*
X101700000Y-90500000D01*
X101150000Y-91300000D02*
X101700000Y-90750000D01*
X105963100Y-85748900D02*
X103573900Y-85588200D01*
X105963100Y-85748900D02*
X106000000Y-85750100D01*
X108200000Y-85750100D02*
X106000000Y-85750100D01*
X108491500Y-85677500D02*
X108567400Y-85609500D01*
X108301900Y-85750100D02*
X108491500Y-85677500D01*
X108200000Y-85750100D02*
X108301900Y-85750100D01*
X108967800Y-85250200D02*
X108567400Y-85609500D01*
X134700000Y-91100000D02*
X135200000Y-90600000D01*
X134450000Y-91100000D02*
X134700000Y-91100000D01*
X134352700Y-91117300D02*
X134324000Y-91134100D01*
X134416600Y-91100000D02*
X134352700Y-91117300D01*
X134450000Y-91100000D02*
X134416600Y-91100000D01*
X133315400Y-91722800D02*
X134324000Y-91134100D01*
X133276900Y-91745300D02*
X133315400Y-91722800D01*
X133197600Y-91784600D02*
X133276900Y-91745300D01*
X133155600Y-91801900D02*
X133197600Y-91784600D01*
X132146600Y-92218000D02*
X133155600Y-91801900D01*
X130153800Y-94242900D02*
X130053900Y-94646900D01*
X130536200Y-93501600D02*
X130153800Y-94242900D01*
X131084600Y-92864900D02*
X130536200Y-93501600D01*
X131761000Y-92376900D02*
X131084600Y-92864900D01*
X132146600Y-92218000D02*
X131761000Y-92376900D01*
X129592700Y-96510100D02*
X130053900Y-94646900D01*
X129572000Y-96593600D02*
X129592700Y-96510100D01*
X129436100Y-96700000D02*
X129572000Y-96593600D01*
X129350000Y-96700000D02*
X129436100Y-96700000D01*
X129100000Y-96700000D02*
X129350000Y-96700000D01*
X128600000Y-97200000D02*
X129100000Y-96700000D01*
D22*
X109801400Y-85416900D02*
X110331400Y-82766600D01*
X109792500Y-85461500D02*
X109801400Y-85416900D01*
X109764900Y-85549300D02*
X109792500Y-85461500D01*
X109746400Y-85591500D02*
X109764900Y-85549300D01*
X105641600Y-94956700D02*
X109746400Y-85591500D01*
D21*
X111567800Y-70698600D02*
X115341200Y-68092700D01*
X124285300Y-79114500D02*
X122944500Y-81683000D01*
X124404000Y-77595300D02*
X124305600Y-77395800D01*
X124503600Y-78033900D02*
X124404000Y-77595300D01*
X124498400Y-78480400D02*
X124503600Y-78033900D01*
X124388700Y-78916600D02*
X124498400Y-78480400D01*
X124285300Y-79114500D02*
X124388700Y-78916600D01*
X124202400Y-77186000D02*
X124305600Y-77395800D01*
X124146900Y-77073300D02*
X124202400Y-77186000D01*
X124101900Y-76826000D02*
X124146900Y-77073300D01*
X124114000Y-76701700D02*
X124101900Y-76826000D01*
X124746400Y-70176700D02*
X124114000Y-76701700D01*
X122116100Y-67962900D02*
X115341200Y-68092700D01*
X122272700Y-67959900D02*
X122116100Y-67962900D01*
X122568900Y-68059800D02*
X122272700Y-67959900D01*
X122692100Y-68157200D02*
X122568900Y-68059800D01*
X123495300Y-68793300D02*
X122692100Y-68157200D01*
X123526200Y-68817800D02*
X123495300Y-68793300D01*
X123582200Y-68870700D02*
X123526200Y-68817800D01*
X123608400Y-68900000D02*
X123582200Y-68870700D01*
X124746400Y-70176700D02*
X123608400Y-68900000D01*
X94368300Y-75500700D02*
X109732700Y-76625900D01*
X94354800Y-75500000D02*
X94350000Y-75500000D01*
X94363900Y-75500400D02*
X94354800Y-75500000D01*
X94368300Y-75500700D02*
X94363900Y-75500400D01*
X94100000Y-75500000D02*
X94350000Y-75500000D01*
X93600000Y-75000000D02*
X94100000Y-75500000D01*
X110515500Y-64894800D02*
X111339700Y-63647100D01*
X110356800Y-65266500D02*
X110350800Y-65402500D01*
X110440900Y-65007600D02*
X110356800Y-65266500D01*
X110515500Y-64894800D02*
X110440900Y-65007600D01*
X110151400Y-69981700D02*
X110350800Y-65402500D01*
X101342000Y-63099700D02*
X101463000Y-61143400D01*
X101342000Y-63099700D02*
X101341200Y-63113800D01*
X101172400Y-66658100D02*
X101341200Y-63113800D01*
X111339700Y-63647100D02*
X110179500Y-61567300D01*
D22*
X116333400Y-74714700D02*
X116499300Y-74060300D01*
X116298700Y-74851700D02*
X116333400Y-74714700D01*
X116132700Y-75083200D02*
X116298700Y-74851700D01*
X116013700Y-75160100D02*
X116132700Y-75083200D01*
X112973500Y-77126600D02*
X116013700Y-75160100D01*
X112895400Y-77177200D02*
X112973500Y-77126600D01*
X112719700Y-77236900D02*
X112895400Y-77177200D01*
X112626600Y-77244500D02*
X112719700Y-77236900D01*
X109801300Y-77473200D02*
X112626600Y-77244500D01*
X109785000Y-77474600D02*
X109801300Y-77473200D01*
X109752400Y-77475900D02*
X109785000Y-77474600D01*
X109736100Y-77476000D02*
X109752400Y-77475900D01*
X93600000Y-77540000D02*
X109736100Y-77476000D01*
X112461400Y-71357200D02*
X114165800Y-71164200D01*
X112386400Y-71369100D02*
X112362700Y-71375100D01*
X112436700Y-71360000D02*
X112386400Y-71369100D01*
X112461400Y-71357200D02*
X112436700Y-71360000D01*
X111775400Y-71523000D02*
X112362700Y-71375100D01*
X111625900Y-71560500D02*
X111775400Y-71523000D01*
X111320300Y-71526300D02*
X111625900Y-71560500D01*
X111183900Y-71457100D02*
X111320300Y-71526300D01*
X109767500Y-70740200D02*
X111183900Y-71457100D01*
X109741800Y-70727100D02*
X109767500Y-70740200D01*
X109692000Y-70697500D02*
X109741800Y-70727100D01*
X109668800Y-70681500D02*
X109692000Y-70697500D01*
X106569200Y-68543900D02*
X109668800Y-70681500D01*
X106525200Y-68513600D02*
X106569200Y-68543900D01*
X106446500Y-68443300D02*
X106525200Y-68513600D01*
X106412300Y-68404200D02*
X106446500Y-68443300D01*
X105608700Y-67486800D02*
X106412300Y-68404200D01*
X109405800Y-74470700D02*
X108853700Y-74325000D01*
X109405800Y-74470700D02*
X109440400Y-74479100D01*
X112097700Y-75062900D02*
X109440400Y-74479100D01*
X112138800Y-75071900D02*
X112097700Y-75062900D01*
X112218600Y-75100500D02*
X112138800Y-75071900D01*
X112256400Y-75119900D02*
X112218600Y-75100500D01*
X112256400Y-75120000D02*
X112256400Y-75119900D01*
X112641000Y-75214100D02*
X112771400Y-75184000D01*
X112375000Y-75180900D02*
X112641000Y-75214100D01*
X112256400Y-75120000D02*
X112375000Y-75180900D01*
X115606300Y-74530300D02*
X112771400Y-75184000D01*
X111496400Y-72046900D02*
X112545800Y-72102500D01*
X111356700Y-72039600D02*
X111496400Y-72046900D01*
X111084800Y-71967300D02*
X111356700Y-72039600D01*
X110958100Y-71903300D02*
X111084800Y-71967300D01*
X109541700Y-71186400D02*
X110958100Y-71903300D01*
X109500800Y-71165600D02*
X109541700Y-71186400D01*
X109421800Y-71118700D02*
X109500800Y-71165600D01*
X109384900Y-71093200D02*
X109421800Y-71118700D01*
X106285300Y-68955600D02*
X109384900Y-71093200D01*
X106259000Y-68937500D02*
X106285300Y-68955600D01*
X106206500Y-68897500D02*
X106259000Y-68937500D01*
X106181300Y-68876200D02*
X106206500Y-68897500D01*
X105162000Y-68016500D02*
X106181300Y-68876200D01*
X105062900Y-67933100D02*
X105162000Y-68016500D01*
X104938100Y-67704300D02*
X105062900Y-67933100D01*
X104921500Y-67575700D02*
X104938100Y-67704300D01*
X104921700Y-67575700D02*
X104921500Y-67575700D01*
X104721000Y-67145200D02*
X104579900Y-67063900D01*
X104900800Y-67414500D02*
X104721000Y-67145200D01*
X104921700Y-67575700D02*
X104900800Y-67414500D01*
X103909000Y-66678100D02*
X104579900Y-67063900D01*
X112581000Y-72766900D02*
X115060700Y-72945900D01*
X112581000Y-72766900D02*
X112539600Y-72765200D01*
X112539500Y-72765300D02*
X112539600Y-72765200D01*
X112508900Y-72765000D02*
X112539500Y-72765300D01*
X112447900Y-72758700D02*
X112508900Y-72765000D01*
X112417200Y-72752700D02*
X112447900Y-72758700D01*
X111208800Y-72513700D02*
X112417200Y-72752700D01*
X111083200Y-72488800D02*
X111208800Y-72513700D01*
X110844700Y-72406500D02*
X111083200Y-72488800D01*
X110732200Y-72349500D02*
X110844700Y-72406500D01*
X109315800Y-71632600D02*
X110732200Y-72349500D01*
X109259700Y-71604200D02*
X109315800Y-71632600D01*
X109151400Y-71539800D02*
X109259700Y-71604200D01*
X109100900Y-71504900D02*
X109151400Y-71539800D01*
X106001300Y-69367300D02*
X109100900Y-71504900D01*
X105920000Y-69307800D02*
X106001300Y-69367300D01*
X104843900Y-68475800D02*
X105920000Y-69307800D01*
X104759700Y-68410600D02*
X104843900Y-68475800D01*
X104616200Y-68254400D02*
X104759700Y-68410600D01*
X104559200Y-68166200D02*
X104616200Y-68254400D01*
X104234500Y-67664600D02*
X104559200Y-68166200D01*
X110910400Y-72955200D02*
X112533300Y-73428000D01*
X110807800Y-72925400D02*
X110910400Y-72955200D01*
X110605300Y-72845700D02*
X110807800Y-72925400D01*
X110506400Y-72795700D02*
X110605300Y-72845700D01*
X109090000Y-72078800D02*
X110506400Y-72795700D01*
X109018700Y-72042700D02*
X109090000Y-72078800D01*
X108881200Y-71960900D02*
X109018700Y-72042700D01*
X108817000Y-71916600D02*
X108881200Y-71960900D01*
X105717400Y-69779000D02*
X108817000Y-71916600D01*
X105614000Y-69703500D02*
X105717400Y-69779000D01*
X104538000Y-68871400D02*
X105614000Y-69703500D01*
X104511200Y-68850200D02*
X104538000Y-68871400D01*
X103764100Y-68248900D02*
X104511200Y-68850200D01*
X103708200Y-68203800D02*
X103764100Y-68248900D01*
X103615800Y-68094600D02*
X103708200Y-68203800D01*
X103581000Y-68032800D02*
X103615800Y-68094600D01*
X103253300Y-67451100D02*
X103581000Y-68032800D01*
X110004000Y-75303200D02*
X111956900Y-75703800D01*
X110004000Y-75303200D02*
X109980700Y-75298700D01*
X108715900Y-75062300D02*
X109980700Y-75298700D01*
X108654500Y-75050800D02*
X108715900Y-75062300D01*
X108537400Y-75008000D02*
X108654500Y-75050800D01*
X108483800Y-74977500D02*
X108537400Y-75008000D01*
X93600000Y-66540000D02*
X108483800Y-74977500D01*
X111906300Y-76452200D02*
X112566100Y-76496800D01*
X111857000Y-76449000D02*
X111906300Y-76452200D01*
X111758100Y-76428800D02*
X111857000Y-76449000D01*
X111711000Y-76412500D02*
X111758100Y-76428800D01*
X110011300Y-75822800D02*
X111711000Y-76412500D01*
X109920200Y-75796200D02*
X109888800Y-75790300D01*
X109981900Y-75812600D02*
X109920200Y-75796200D01*
X110011300Y-75822800D02*
X109981900Y-75812600D01*
X108624100Y-75553900D02*
X109888800Y-75790300D01*
X108554600Y-75540900D02*
X108624100Y-75553900D01*
X108420900Y-75500000D02*
X108554600Y-75540900D01*
X108356800Y-75472200D02*
X108420900Y-75500000D01*
X93600000Y-69080000D02*
X108356800Y-75472200D01*
X115521400Y-76469400D02*
X115213800Y-77615900D01*
X115549200Y-76366400D02*
X115521400Y-76469400D01*
X115659000Y-76184800D02*
X115549200Y-76366400D01*
X115736400Y-76113300D02*
X115659000Y-76184800D01*
X116455400Y-75447900D02*
X115736400Y-76113300D01*
X116525100Y-75378700D02*
X116547400Y-75353300D01*
X116479400Y-75425700D02*
X116525100Y-75378700D01*
X116455400Y-75447900D02*
X116479400Y-75425700D01*
X118527600Y-73088900D02*
X116547400Y-75353300D01*
X118583000Y-73019200D02*
X118599000Y-72994800D01*
X118547100Y-73066600D02*
X118583000Y-73019200D01*
X118527600Y-73088900D02*
X118547100Y-73066600D01*
X119314600Y-71901400D02*
X118599000Y-72994800D01*
X119339600Y-71863200D02*
X119314600Y-71901400D01*
X119394400Y-71786500D02*
X119339600Y-71863200D01*
X119423400Y-71749300D02*
X119394400Y-71786500D01*
X120641600Y-70188100D02*
X119423400Y-71749300D01*
X120694300Y-70120400D02*
X120641600Y-70188100D01*
X120814600Y-69994300D02*
X120694300Y-70120400D01*
X120881800Y-69936500D02*
X120814600Y-69994300D01*
X122133300Y-68862800D02*
X120881800Y-69936500D01*
X118932100Y-73385000D02*
X116245900Y-76663800D01*
X118997800Y-73298800D02*
X119017500Y-73268700D01*
X118954500Y-73357700D02*
X118997800Y-73298800D01*
X118932100Y-73385000D02*
X118954500Y-73357700D01*
X119733100Y-72175200D02*
X119017500Y-73268700D01*
X119752500Y-72145500D02*
X119733100Y-72175200D01*
X119795100Y-72085800D02*
X119752500Y-72145500D01*
X119817700Y-72056900D02*
X119795100Y-72085800D01*
X121035900Y-70495800D02*
X119817700Y-72056900D01*
X121121600Y-70385700D02*
X121035900Y-70495800D01*
X121338800Y-70208200D02*
X121121600Y-70385700D01*
X121464300Y-70145700D02*
X121338800Y-70208200D01*
X122239600Y-69759700D02*
X121464300Y-70145700D01*
X122258400Y-69750400D02*
X122239600Y-69759700D01*
X122295600Y-69734300D02*
X122258400Y-69750400D01*
X122315300Y-69727100D02*
X122295600Y-69734300D01*
X122936500Y-69498900D02*
X122315300Y-69727100D01*
X116921200Y-76872400D02*
X116716400Y-77535300D01*
X116921200Y-76872400D02*
X116927500Y-76851000D01*
X116927300Y-76850900D02*
X116927500Y-76851000D01*
X116945800Y-76783400D02*
X116927300Y-76850900D01*
X117008600Y-76658400D02*
X116945800Y-76783400D01*
X117052000Y-76602800D02*
X117008600Y-76658400D01*
X119345500Y-73668800D02*
X117052000Y-76602800D01*
X119414500Y-73575200D02*
X119435900Y-73542500D01*
X119369400Y-73638300D02*
X119414500Y-73575200D01*
X119345500Y-73668800D02*
X119369400Y-73638300D01*
X120151500Y-72449100D02*
X119435900Y-73542500D01*
X120165400Y-72427900D02*
X120151500Y-72449100D01*
X120195900Y-72385200D02*
X120165400Y-72427900D01*
X120212000Y-72364600D02*
X120195900Y-72385200D01*
X121430100Y-70803500D02*
X120212000Y-72364600D01*
X121520400Y-70687900D02*
X121430100Y-70803500D01*
X121774200Y-70541800D02*
X121520400Y-70687900D01*
X121918700Y-70521900D02*
X121774200Y-70541800D01*
X122573900Y-70431200D02*
X121918700Y-70521900D01*
X120670300Y-72600200D02*
X122021500Y-71264900D01*
X120591700Y-72689700D02*
X120570000Y-72722900D01*
X120642300Y-72627800D02*
X120591700Y-72689700D01*
X120670300Y-72600200D02*
X120642300Y-72627800D01*
X119854400Y-73816400D02*
X120570000Y-72722900D01*
X119815600Y-73873800D02*
X119854400Y-73816400D01*
X117608900Y-77038100D02*
X119815600Y-73873800D01*
X115875800Y-83308500D02*
X114480000Y-87000000D01*
X115885900Y-83281700D02*
X115875800Y-83308500D01*
X115913300Y-83232100D02*
X115885900Y-83281700D01*
X115930100Y-83209700D02*
X115913300Y-83232100D01*
X117563500Y-81034900D02*
X115930100Y-83209700D01*
X117644000Y-80915500D02*
X117666800Y-80872800D01*
X117592300Y-80996500D02*
X117644000Y-80915500D01*
X117563500Y-81034900D02*
X117592300Y-80996500D01*
X119279500Y-77851400D02*
X117666800Y-80872800D01*
X118622000Y-83507200D02*
X122600700Y-78235100D01*
X118429900Y-84538500D02*
X118494800Y-84679900D01*
X118379800Y-84231600D02*
X118429900Y-84538500D01*
X118413600Y-83920400D02*
X118379800Y-84231600D01*
X118528300Y-83631300D02*
X118413600Y-83920400D01*
X118622000Y-83507200D02*
X118528300Y-83631300D01*
X119560000Y-87000000D02*
X118494800Y-84679900D01*
X125009900Y-76788500D02*
X126531200Y-76442600D01*
X120478800Y-75742300D02*
X121146900Y-75526100D01*
X120202300Y-75884900D02*
X120129200Y-75960500D01*
X120379500Y-75774400D02*
X120202300Y-75884900D01*
X120478800Y-75742300D02*
X120379500Y-75774400D01*
X118774100Y-77363200D02*
X120129200Y-75960500D01*
X118665800Y-77504100D02*
X118640900Y-77558200D01*
X118733100Y-77405600D02*
X118665800Y-77504100D01*
X118774100Y-77363200D02*
X118733100Y-77405600D01*
X117245600Y-80597100D02*
X118640900Y-77558200D01*
X117229000Y-80633400D02*
X117245600Y-80597100D01*
X117188100Y-80702100D02*
X117229000Y-80633400D01*
X117163700Y-80734600D02*
X117188100Y-80702100D01*
X115530200Y-82909400D02*
X117163700Y-80734600D01*
X115484700Y-82975300D02*
X115471300Y-82998400D01*
X115514200Y-82930800D02*
X115484700Y-82975300D01*
X115530200Y-82909400D02*
X115514200Y-82930800D01*
X113485100Y-86423000D02*
X115471300Y-82998400D01*
X113380200Y-86653000D02*
X113360900Y-86734900D01*
X113442700Y-86496100D02*
X113380200Y-86653000D01*
X113485100Y-86423000D02*
X113442700Y-86496100D01*
X113018100Y-88181700D02*
X113360900Y-86734900D01*
X118419000Y-77080400D02*
X120346200Y-74929400D01*
X118276100Y-77273000D02*
X118240600Y-77345600D01*
X118365100Y-77140600D02*
X118276100Y-77273000D01*
X118419000Y-77080400D02*
X118365100Y-77140600D01*
X118240700Y-77345700D02*
X118240600Y-77345600D01*
X118219100Y-77386700D02*
X118240700Y-77345700D01*
X116563900Y-80284100D02*
X118219100Y-77386700D01*
X121781500Y-75126200D02*
X121131600Y-74094700D01*
X121807800Y-75171400D02*
X121781500Y-75126200D01*
X123261600Y-77880400D02*
X121807800Y-75171400D01*
X123356300Y-78056700D02*
X123261600Y-77880400D01*
X123344700Y-78457100D02*
X123356300Y-78056700D01*
X123239500Y-78628300D02*
X123344700Y-78457100D01*
X121794700Y-80975200D02*
X123239500Y-78628300D01*
X121663700Y-81244100D02*
X121638200Y-81341700D01*
X121742700Y-81059600D02*
X121663700Y-81244100D01*
X121794700Y-80975200D02*
X121742700Y-81059600D01*
X120967300Y-83909200D02*
X121638200Y-81341700D01*
X120930100Y-84124700D02*
X120929900Y-84198600D01*
X120948900Y-83979200D02*
X120930100Y-84124700D01*
X120967300Y-83909200D02*
X120948900Y-83979200D01*
X120924500Y-88546300D02*
X120929900Y-84198600D01*
X121641100Y-73544200D02*
X121197600Y-73133700D01*
X121691700Y-73591000D02*
X121641100Y-73544200D01*
X121774800Y-73702600D02*
X121691700Y-73591000D01*
X121805400Y-73765100D02*
X121774800Y-73702600D01*
X123617400Y-77469600D02*
X121805400Y-73765100D01*
X123619100Y-77473200D02*
X123617400Y-77469600D01*
X123722400Y-77682900D02*
X123619100Y-77473200D01*
X123792400Y-77825200D02*
X123722400Y-77682900D01*
X123857000Y-78136600D02*
X123792400Y-77825200D01*
X123842100Y-78452100D02*
X123857000Y-78136600D01*
X123748200Y-78756000D02*
X123842100Y-78452100D01*
X123665300Y-78890500D02*
X123748200Y-78756000D01*
X122220600Y-81237300D02*
X123665300Y-78890500D01*
X122149600Y-82005400D02*
X122206600Y-82105100D01*
X122092700Y-81784300D02*
X122149600Y-82005400D01*
X122096400Y-81554400D02*
X122092700Y-81784300D01*
X122160400Y-81335200D02*
X122096400Y-81554400D01*
X122220600Y-81237300D02*
X122160400Y-81335200D01*
X123078300Y-83628900D02*
X122206600Y-82105100D01*
X123104000Y-83673800D02*
X123078300Y-83628900D01*
X123147400Y-83768700D02*
X123104000Y-83673800D01*
X123164800Y-83818000D02*
X123147400Y-83768700D01*
X124869800Y-88660000D02*
X123164800Y-83818000D01*
D23*
G36*
X136498000Y-63040078D02*
X136471494Y-62999854D01*
X136379605Y-62921537D01*
X136269535Y-62871921D01*
X136150000Y-62854934D01*
X134650000Y-62854934D01*
X134582002Y-62860356D01*
X134466670Y-62896073D01*
X134365854Y-62962506D01*
X134287537Y-63054395D01*
X134237921Y-63164465D01*
X134220934Y-63284000D01*
X134220934Y-64784000D01*
X134226356Y-64851998D01*
X134262073Y-64967330D01*
X134328506Y-65068146D01*
X134420395Y-65146463D01*
X134530465Y-65196079D01*
X134650000Y-65213066D01*
X136150000Y-65213066D01*
X136217998Y-65207644D01*
X136333330Y-65171927D01*
X136434146Y-65105494D01*
X136498000Y-65030574D01*
X136498000Y-66149147D01*
X136444258Y-66018758D01*
X136316523Y-65826502D01*
X136153878Y-65662718D01*
X135962518Y-65533644D01*
X135749732Y-65444197D01*
X135523625Y-65397784D01*
X135292809Y-65396173D01*
X135066076Y-65439424D01*
X134852062Y-65525891D01*
X134658919Y-65652281D01*
X134494003Y-65813778D01*
X134363596Y-66004232D01*
X134272666Y-66216389D01*
X134224676Y-66442166D01*
X134221453Y-66672965D01*
X134263121Y-66899995D01*
X134348092Y-67114607D01*
X134473130Y-67308628D01*
X134633472Y-67474668D01*
X134823011Y-67606401D01*
X135034527Y-67698810D01*
X135259964Y-67748375D01*
X135490735Y-67753209D01*
X135718050Y-67713128D01*
X135933251Y-67629657D01*
X136128140Y-67505976D01*
X136295294Y-67346797D01*
X136428347Y-67158183D01*
X136498000Y-67001740D01*
X136498000Y-68689147D01*
X136444258Y-68558758D01*
X136316523Y-68366502D01*
X136153878Y-68202718D01*
X135962518Y-68073644D01*
X135749732Y-67984197D01*
X135523625Y-67937784D01*
X135292809Y-67936173D01*
X135066076Y-67979424D01*
X134852062Y-68065891D01*
X134658919Y-68192281D01*
X134494003Y-68353778D01*
X134363596Y-68544232D01*
X134272666Y-68756389D01*
X134224676Y-68982166D01*
X134221453Y-69212965D01*
X134263121Y-69439995D01*
X134348092Y-69654607D01*
X134473130Y-69848628D01*
X134633472Y-70014668D01*
X134823011Y-70146401D01*
X135034527Y-70238810D01*
X135259964Y-70288375D01*
X135490735Y-70293209D01*
X135718050Y-70253128D01*
X135933251Y-70169657D01*
X136128140Y-70045976D01*
X136295294Y-69886797D01*
X136428347Y-69698183D01*
X136498000Y-69541740D01*
X136498000Y-98498000D01*
X92502000Y-98498000D01*
X92502000Y-96450000D01*
X114220934Y-96450000D01*
X114220934Y-97950000D01*
X114226356Y-98017998D01*
X114262073Y-98133330D01*
X114328506Y-98234146D01*
X114420395Y-98312463D01*
X114530465Y-98362079D01*
X114650000Y-98379066D01*
X116150000Y-98379066D01*
X116217998Y-98373644D01*
X116333330Y-98337927D01*
X116434146Y-98271494D01*
X116512463Y-98179605D01*
X116562079Y-98069535D01*
X116579066Y-97950000D01*
X116579066Y-96450000D01*
X118620934Y-96450000D01*
X118620934Y-97950000D01*
X118626356Y-98017998D01*
X118662073Y-98133330D01*
X118728506Y-98234146D01*
X118820395Y-98312463D01*
X118930465Y-98362079D01*
X119050000Y-98379066D01*
X120550000Y-98379066D01*
X120617998Y-98373644D01*
X120733330Y-98337927D01*
X120834146Y-98271494D01*
X120912463Y-98179605D01*
X120962079Y-98069535D01*
X120979066Y-97950000D01*
X120979066Y-96450000D01*
X123020934Y-96450000D01*
X123020934Y-97950000D01*
X123026356Y-98017998D01*
X123062073Y-98133330D01*
X123128506Y-98234146D01*
X123220395Y-98312463D01*
X123330465Y-98362079D01*
X123450000Y-98379066D01*
X124950000Y-98379066D01*
X125017998Y-98373644D01*
X125133330Y-98337927D01*
X125234146Y-98271494D01*
X125312463Y-98179605D01*
X125362079Y-98069535D01*
X125379066Y-97950000D01*
X125379066Y-96450000D01*
X127420934Y-96450000D01*
X127420934Y-97950000D01*
X127426356Y-98017998D01*
X127462073Y-98133330D01*
X127528506Y-98234146D01*
X127620395Y-98312463D01*
X127730465Y-98362079D01*
X127850000Y-98379066D01*
X129350000Y-98379066D01*
X129417998Y-98373644D01*
X129533330Y-98337927D01*
X129634146Y-98271494D01*
X129712463Y-98179605D01*
X129762079Y-98069535D01*
X129779066Y-97950000D01*
X129779066Y-97280733D01*
X129810746Y-97263888D01*
X129827530Y-97250199D01*
X129845963Y-97238833D01*
X129853446Y-97233058D01*
X129989346Y-97126658D01*
X130004838Y-97111875D01*
X130022157Y-97099257D01*
X130052546Y-97066351D01*
X130084937Y-97035443D01*
X130097266Y-97017927D01*
X130111799Y-97002191D01*
X130135210Y-96964022D01*
X130160989Y-96927399D01*
X130169683Y-96907817D01*
X130180881Y-96889561D01*
X130196431Y-96847575D01*
X130214607Y-96806640D01*
X130219332Y-96785745D01*
X130226771Y-96765659D01*
X130229109Y-96756500D01*
X130249809Y-96673000D01*
X130249812Y-96672983D01*
X130249866Y-96672769D01*
X130711066Y-94809569D01*
X130711067Y-94809560D01*
X130711105Y-94809412D01*
X130791918Y-94482602D01*
X131101263Y-93882923D01*
X131545452Y-93367213D01*
X132092545Y-92972504D01*
X132404539Y-92843936D01*
X132404543Y-92843934D01*
X132404701Y-92843870D01*
X133413701Y-92427770D01*
X133413703Y-92427769D01*
X133455442Y-92410576D01*
X133472046Y-92401752D01*
X133489722Y-92395332D01*
X133498220Y-92391194D01*
X133577520Y-92351894D01*
X133593295Y-92342051D01*
X133610299Y-92334515D01*
X133618493Y-92329803D01*
X133656993Y-92307303D01*
X133656996Y-92307301D01*
X134562003Y-91779066D01*
X135950000Y-91779066D01*
X136017998Y-91773644D01*
X136133330Y-91737927D01*
X136234146Y-91671494D01*
X136312463Y-91579605D01*
X136362079Y-91469535D01*
X136379066Y-91350000D01*
X136379066Y-89850000D01*
X136373644Y-89782002D01*
X136337927Y-89666670D01*
X136271494Y-89565854D01*
X136179605Y-89487537D01*
X136069535Y-89437921D01*
X135950000Y-89420934D01*
X134450000Y-89420934D01*
X134382002Y-89426356D01*
X134266670Y-89462073D01*
X134165854Y-89528506D01*
X134087537Y-89620395D01*
X134037921Y-89730465D01*
X134020934Y-89850000D01*
X134020934Y-90527411D01*
X134018885Y-90528321D01*
X134010694Y-90533039D01*
X133982337Y-90549638D01*
X133834941Y-90635671D01*
X133837050Y-90484589D01*
X133792217Y-90258164D01*
X133704258Y-90044758D01*
X133576523Y-89852502D01*
X133413878Y-89688718D01*
X133222518Y-89559644D01*
X133009732Y-89470197D01*
X132783625Y-89423784D01*
X132552809Y-89422173D01*
X132326076Y-89465424D01*
X132112062Y-89551891D01*
X131918919Y-89678281D01*
X131754003Y-89839778D01*
X131623596Y-90030232D01*
X131532666Y-90242389D01*
X131484676Y-90468166D01*
X131481453Y-90698965D01*
X131523121Y-90925995D01*
X131608092Y-91140607D01*
X131733130Y-91334628D01*
X131893472Y-91500668D01*
X131974211Y-91556783D01*
X131888499Y-91592130D01*
X131888493Y-91592133D01*
X131503061Y-91750964D01*
X131495665Y-91754896D01*
X131487700Y-91757516D01*
X131437387Y-91785877D01*
X131386395Y-91812985D01*
X131379897Y-91818284D01*
X131372600Y-91822397D01*
X131364896Y-91827873D01*
X130688496Y-92315873D01*
X130682037Y-92321569D01*
X130674711Y-92326087D01*
X130632564Y-92365199D01*
X130589399Y-92403266D01*
X130584168Y-92410110D01*
X130577861Y-92415963D01*
X130571642Y-92423082D01*
X130023243Y-93059781D01*
X130018288Y-93066820D01*
X130012213Y-93072920D01*
X129980312Y-93120777D01*
X129947195Y-93167830D01*
X129943700Y-93175701D01*
X129938928Y-93182861D01*
X129934536Y-93191231D01*
X129552136Y-93932531D01*
X129549074Y-93940230D01*
X129544744Y-93947299D01*
X129542920Y-93952233D01*
X129516523Y-93912502D01*
X129353878Y-93748718D01*
X129162518Y-93619644D01*
X128949732Y-93530197D01*
X128723625Y-93483784D01*
X128492809Y-93482173D01*
X128266076Y-93525424D01*
X128052062Y-93611891D01*
X127858919Y-93738281D01*
X127694003Y-93899778D01*
X127563596Y-94090232D01*
X127472666Y-94302389D01*
X127424676Y-94528166D01*
X127421453Y-94758965D01*
X127463121Y-94985995D01*
X127548092Y-95200607D01*
X127673130Y-95394628D01*
X127833472Y-95560668D01*
X128023011Y-95692401D01*
X128234527Y-95784810D01*
X128459964Y-95834375D01*
X128690735Y-95839209D01*
X128918050Y-95799128D01*
X129087528Y-95733392D01*
X129016352Y-96020934D01*
X127850000Y-96020934D01*
X127782002Y-96026356D01*
X127666670Y-96062073D01*
X127565854Y-96128506D01*
X127487537Y-96220395D01*
X127437921Y-96330465D01*
X127420934Y-96450000D01*
X125379066Y-96450000D01*
X125373644Y-96382002D01*
X125337927Y-96266670D01*
X125271494Y-96165854D01*
X125179605Y-96087537D01*
X125069535Y-96037921D01*
X124950000Y-96020934D01*
X123450000Y-96020934D01*
X123382002Y-96026356D01*
X123266670Y-96062073D01*
X123165854Y-96128506D01*
X123087537Y-96220395D01*
X123037921Y-96330465D01*
X123020934Y-96450000D01*
X120979066Y-96450000D01*
X120973644Y-96382002D01*
X120937927Y-96266670D01*
X120871494Y-96165854D01*
X120779605Y-96087537D01*
X120669535Y-96037921D01*
X120550000Y-96020934D01*
X119050000Y-96020934D01*
X118982002Y-96026356D01*
X118866670Y-96062073D01*
X118765854Y-96128506D01*
X118687537Y-96220395D01*
X118637921Y-96330465D01*
X118620934Y-96450000D01*
X116579066Y-96450000D01*
X116573644Y-96382002D01*
X116537927Y-96266670D01*
X116471494Y-96165854D01*
X116379605Y-96087537D01*
X116269535Y-96037921D01*
X116150000Y-96020934D01*
X114650000Y-96020934D01*
X114582002Y-96026356D01*
X114466670Y-96062073D01*
X114365854Y-96128506D01*
X114287537Y-96220395D01*
X114237921Y-96330465D01*
X114220934Y-96450000D01*
X92502000Y-96450000D01*
X92502000Y-90500000D01*
X99920934Y-90500000D01*
X99920934Y-92100000D01*
X99926356Y-92167998D01*
X99962073Y-92283330D01*
X100028506Y-92384146D01*
X100120395Y-92462463D01*
X100230465Y-92512079D01*
X100350000Y-92529066D01*
X101950000Y-92529066D01*
X102017998Y-92523644D01*
X102133330Y-92487927D01*
X102234146Y-92421494D01*
X102312463Y-92329605D01*
X102362079Y-92219535D01*
X102379066Y-92100000D01*
X102379066Y-90573965D01*
X104004567Y-86353630D01*
X104087107Y-86301249D01*
X105917667Y-86424374D01*
X105924696Y-86424159D01*
X105931651Y-86425169D01*
X105941095Y-86425542D01*
X105977996Y-86426742D01*
X105984283Y-86426331D01*
X105990548Y-86427034D01*
X106000000Y-86427100D01*
X108301900Y-86427100D01*
X108354486Y-86421944D01*
X108407251Y-86418853D01*
X108420142Y-86415507D01*
X108433397Y-86414207D01*
X108483992Y-86398932D01*
X108535139Y-86385654D01*
X108543990Y-86382335D01*
X108733590Y-86309735D01*
X108780614Y-86286236D01*
X108828543Y-86264638D01*
X108839616Y-86256752D01*
X108851781Y-86250673D01*
X108893359Y-86218477D01*
X108897483Y-86215541D01*
X105388749Y-94220801D01*
X105279877Y-94264788D01*
X105152373Y-94348224D01*
X105043503Y-94454837D01*
X104957415Y-94580566D01*
X104897387Y-94720622D01*
X104865706Y-94869670D01*
X104863578Y-95022032D01*
X104891085Y-95171907D01*
X104947179Y-95313584D01*
X105029723Y-95441667D01*
X105135574Y-95551279D01*
X105260699Y-95638243D01*
X105400332Y-95699247D01*
X105549155Y-95731968D01*
X105701499Y-95735159D01*
X105851562Y-95708699D01*
X105993627Y-95653595D01*
X106122284Y-95571947D01*
X106232631Y-95466865D01*
X106320467Y-95342350D01*
X106382444Y-95203146D01*
X106416203Y-95054555D01*
X106418634Y-94880511D01*
X106389037Y-94731036D01*
X106353596Y-94645049D01*
X106778771Y-93675000D01*
X107695934Y-93675000D01*
X107695934Y-95025000D01*
X107701356Y-95092998D01*
X107737073Y-95208330D01*
X107803506Y-95309146D01*
X107895395Y-95387463D01*
X108005465Y-95437079D01*
X108125000Y-95454066D01*
X109475000Y-95454066D01*
X109542998Y-95448644D01*
X109658330Y-95412927D01*
X109759146Y-95346494D01*
X109837463Y-95254605D01*
X109887079Y-95144535D01*
X109904066Y-95025000D01*
X109904066Y-94758965D01*
X114221453Y-94758965D01*
X114263121Y-94985995D01*
X114348092Y-95200607D01*
X114473130Y-95394628D01*
X114633472Y-95560668D01*
X114823011Y-95692401D01*
X115034527Y-95784810D01*
X115259964Y-95834375D01*
X115490735Y-95839209D01*
X115718050Y-95799128D01*
X115933251Y-95715657D01*
X116128140Y-95591976D01*
X116295294Y-95432797D01*
X116428347Y-95244183D01*
X116522231Y-95033317D01*
X116573369Y-94808231D01*
X116574056Y-94758965D01*
X118621453Y-94758965D01*
X118663121Y-94985995D01*
X118748092Y-95200607D01*
X118873130Y-95394628D01*
X119033472Y-95560668D01*
X119223011Y-95692401D01*
X119434527Y-95784810D01*
X119659964Y-95834375D01*
X119890735Y-95839209D01*
X120118050Y-95799128D01*
X120333251Y-95715657D01*
X120528140Y-95591976D01*
X120695294Y-95432797D01*
X120828347Y-95244183D01*
X120922231Y-95033317D01*
X120973369Y-94808231D01*
X120974056Y-94758965D01*
X123021453Y-94758965D01*
X123063121Y-94985995D01*
X123148092Y-95200607D01*
X123273130Y-95394628D01*
X123433472Y-95560668D01*
X123623011Y-95692401D01*
X123834527Y-95784810D01*
X124059964Y-95834375D01*
X124290735Y-95839209D01*
X124518050Y-95799128D01*
X124733251Y-95715657D01*
X124928140Y-95591976D01*
X125095294Y-95432797D01*
X125228347Y-95244183D01*
X125322231Y-95033317D01*
X125373369Y-94808231D01*
X125377050Y-94544589D01*
X125332217Y-94318164D01*
X125244258Y-94104758D01*
X125116523Y-93912502D01*
X124953878Y-93748718D01*
X124762518Y-93619644D01*
X124549732Y-93530197D01*
X124323625Y-93483784D01*
X124092809Y-93482173D01*
X123866076Y-93525424D01*
X123652062Y-93611891D01*
X123458919Y-93738281D01*
X123294003Y-93899778D01*
X123163596Y-94090232D01*
X123072666Y-94302389D01*
X123024676Y-94528166D01*
X123021453Y-94758965D01*
X120974056Y-94758965D01*
X120977050Y-94544589D01*
X120932217Y-94318164D01*
X120844258Y-94104758D01*
X120716523Y-93912502D01*
X120553878Y-93748718D01*
X120362518Y-93619644D01*
X120149732Y-93530197D01*
X119923625Y-93483784D01*
X119692809Y-93482173D01*
X119466076Y-93525424D01*
X119252062Y-93611891D01*
X119058919Y-93738281D01*
X118894003Y-93899778D01*
X118763596Y-94090232D01*
X118672666Y-94302389D01*
X118624676Y-94528166D01*
X118621453Y-94758965D01*
X116574056Y-94758965D01*
X116577050Y-94544589D01*
X116532217Y-94318164D01*
X116444258Y-94104758D01*
X116316523Y-93912502D01*
X116153878Y-93748718D01*
X115962518Y-93619644D01*
X115749732Y-93530197D01*
X115523625Y-93483784D01*
X115292809Y-93482173D01*
X115066076Y-93525424D01*
X114852062Y-93611891D01*
X114658919Y-93738281D01*
X114494003Y-93899778D01*
X114363596Y-94090232D01*
X114272666Y-94302389D01*
X114224676Y-94528166D01*
X114221453Y-94758965D01*
X109904066Y-94758965D01*
X109904066Y-93675000D01*
X109898644Y-93607002D01*
X109862927Y-93491670D01*
X109796494Y-93390854D01*
X109704605Y-93312537D01*
X109594535Y-93262921D01*
X109475000Y-93245934D01*
X108125000Y-93245934D01*
X108057002Y-93251356D01*
X107941670Y-93287073D01*
X107840854Y-93353506D01*
X107762537Y-93445395D01*
X107712921Y-93555465D01*
X107695934Y-93675000D01*
X106778771Y-93675000D01*
X110229072Y-85803057D01*
X110229072Y-85803056D01*
X110247557Y-85760891D01*
X110255297Y-85737171D01*
X110265390Y-85714342D01*
X110267645Y-85707338D01*
X110295245Y-85619538D01*
X110300315Y-85595375D01*
X110307821Y-85571836D01*
X110309311Y-85564630D01*
X110318210Y-85520031D01*
X110736163Y-83430028D01*
X110812084Y-83381847D01*
X110922431Y-83276765D01*
X111010267Y-83152250D01*
X111072244Y-83013046D01*
X111106003Y-82864455D01*
X111108434Y-82690411D01*
X111078837Y-82540936D01*
X111020770Y-82400055D01*
X110936446Y-82273137D01*
X110829075Y-82165014D01*
X110702748Y-82079806D01*
X110562277Y-82020757D01*
X110413012Y-81990117D01*
X110260638Y-81989053D01*
X110110959Y-82017606D01*
X109969677Y-82074688D01*
X109842173Y-82158124D01*
X109733303Y-82264737D01*
X109647215Y-82390466D01*
X109587187Y-82530522D01*
X109555506Y-82679570D01*
X109553378Y-82831932D01*
X109580885Y-82981807D01*
X109636979Y-83123484D01*
X109702321Y-83224875D01*
X109444551Y-84513875D01*
X109386941Y-84475016D01*
X109228391Y-84408368D01*
X109059915Y-84373785D01*
X108887931Y-84372584D01*
X108718989Y-84404811D01*
X108559524Y-84469239D01*
X108415610Y-84563414D01*
X108292729Y-84683748D01*
X108195561Y-84825658D01*
X108127807Y-84983739D01*
X108108813Y-85073100D01*
X106010996Y-85073100D01*
X105996843Y-85072640D01*
X104176340Y-84950191D01*
X104135625Y-84909191D01*
X103993041Y-84813016D01*
X103834491Y-84746368D01*
X103666015Y-84711785D01*
X103494031Y-84710584D01*
X103325089Y-84742811D01*
X103165624Y-84807239D01*
X103021710Y-84901414D01*
X102898829Y-85021748D01*
X102801661Y-85163658D01*
X102733907Y-85321739D01*
X102698149Y-85489969D01*
X102695748Y-85661941D01*
X102726795Y-85831103D01*
X102741023Y-85867038D01*
X101121853Y-90070934D01*
X100350000Y-90070934D01*
X100282002Y-90076356D01*
X100166670Y-90112073D01*
X100065854Y-90178506D01*
X99987537Y-90270395D01*
X99937921Y-90380465D01*
X99920934Y-90500000D01*
X92502000Y-90500000D01*
X92502000Y-89296785D01*
X92520395Y-89312463D01*
X92630465Y-89362079D01*
X92750000Y-89379066D01*
X94250000Y-89379066D01*
X94317998Y-89373644D01*
X94433330Y-89337927D01*
X94534146Y-89271494D01*
X94612463Y-89179605D01*
X94662079Y-89069535D01*
X94679066Y-88950000D01*
X94679066Y-87450000D01*
X94673644Y-87382002D01*
X94637927Y-87266670D01*
X94571494Y-87165854D01*
X94479605Y-87087537D01*
X94369535Y-87037921D01*
X94250000Y-87020934D01*
X92750000Y-87020934D01*
X92682002Y-87026356D01*
X92566670Y-87062073D01*
X92502000Y-87104687D01*
X92502000Y-77964192D01*
X92548092Y-78080607D01*
X92673130Y-78274628D01*
X92833472Y-78440668D01*
X93023011Y-78572401D01*
X93234527Y-78664810D01*
X93459964Y-78714375D01*
X93690735Y-78719209D01*
X93918050Y-78679128D01*
X94133251Y-78595657D01*
X94328140Y-78471976D01*
X94495294Y-78312797D01*
X94628347Y-78124183D01*
X94655669Y-78062817D01*
X109738190Y-78002996D01*
X109738257Y-78002989D01*
X109739333Y-78002990D01*
X109755633Y-78002890D01*
X109760827Y-78002348D01*
X109766044Y-78002724D01*
X109773399Y-78002481D01*
X109805999Y-78001181D01*
X109814336Y-78000027D01*
X109822762Y-78000246D01*
X109830098Y-77999667D01*
X109845120Y-77998377D01*
X112669120Y-77769782D01*
X112669141Y-77769778D01*
X112669478Y-77769753D01*
X112762578Y-77762153D01*
X112772111Y-77760426D01*
X112781797Y-77760229D01*
X112822645Y-77751273D01*
X112863784Y-77743821D01*
X112872798Y-77740276D01*
X112882263Y-77738201D01*
X112889246Y-77735882D01*
X113064946Y-77676182D01*
X113074069Y-77672050D01*
X113083734Y-77669399D01*
X113120861Y-77650857D01*
X113158637Y-77633747D01*
X113166784Y-77627921D01*
X113175749Y-77623444D01*
X113181952Y-77619486D01*
X113260052Y-77568886D01*
X114979103Y-76456948D01*
X114854008Y-76923208D01*
X114852077Y-76923988D01*
X114724573Y-77007424D01*
X114615703Y-77114037D01*
X114529615Y-77239766D01*
X114469587Y-77379822D01*
X114437906Y-77528870D01*
X114435778Y-77681232D01*
X114463285Y-77831107D01*
X114519379Y-77972784D01*
X114601923Y-78100867D01*
X114707774Y-78210479D01*
X114832899Y-78297443D01*
X114972532Y-78358447D01*
X115121355Y-78391168D01*
X115273699Y-78394359D01*
X115423762Y-78367899D01*
X115565827Y-78312795D01*
X115694484Y-78231147D01*
X115804831Y-78126065D01*
X115892667Y-78001550D01*
X115954644Y-77862346D01*
X115974887Y-77773244D01*
X116021979Y-77892184D01*
X116104523Y-78020267D01*
X116210374Y-78129879D01*
X116335499Y-78216843D01*
X116475132Y-78277847D01*
X116623955Y-78310568D01*
X116776299Y-78313759D01*
X116926362Y-78287299D01*
X117068427Y-78232195D01*
X117163703Y-78171731D01*
X116389909Y-79526245D01*
X116343459Y-79535106D01*
X116202177Y-79592188D01*
X116074673Y-79675624D01*
X115965803Y-79782237D01*
X115879715Y-79907966D01*
X115819687Y-80048022D01*
X115788006Y-80197070D01*
X115785878Y-80349432D01*
X115813385Y-80499307D01*
X115869479Y-80640984D01*
X115952023Y-80769067D01*
X116057874Y-80878679D01*
X116182999Y-80965643D01*
X116294481Y-81014348D01*
X115108823Y-82592902D01*
X115108785Y-82592965D01*
X115108127Y-82593832D01*
X115092127Y-82615231D01*
X115086293Y-82624870D01*
X115079060Y-82633508D01*
X115074952Y-82639613D01*
X115045452Y-82684113D01*
X115039784Y-82694799D01*
X115032582Y-82704526D01*
X115028846Y-82710865D01*
X115015458Y-82733944D01*
X115015424Y-82734002D01*
X113029252Y-86158555D01*
X113029234Y-86158585D01*
X112986834Y-86231685D01*
X112972347Y-86263453D01*
X112955884Y-86294260D01*
X112953113Y-86301077D01*
X112890614Y-86457977D01*
X112880839Y-86491800D01*
X112868988Y-86524972D01*
X112867250Y-86532122D01*
X112848097Y-86613399D01*
X112637526Y-87502124D01*
X112528873Y-87573224D01*
X112420003Y-87679837D01*
X112333915Y-87805566D01*
X112273887Y-87945622D01*
X112242206Y-88094670D01*
X112240078Y-88247032D01*
X112267585Y-88396907D01*
X112323679Y-88538584D01*
X112406223Y-88666667D01*
X112512074Y-88776279D01*
X112637199Y-88863243D01*
X112776832Y-88924247D01*
X112925655Y-88956968D01*
X113077999Y-88960159D01*
X113228062Y-88933699D01*
X113370127Y-88878595D01*
X113498784Y-88796947D01*
X113609131Y-88691865D01*
X113696967Y-88567350D01*
X113758944Y-88428146D01*
X113792703Y-88279555D01*
X113795134Y-88105511D01*
X113765537Y-87956036D01*
X113754457Y-87929153D01*
X113903011Y-88032401D01*
X114114527Y-88124810D01*
X114339964Y-88174375D01*
X114570735Y-88179209D01*
X114798050Y-88139128D01*
X115013251Y-88055657D01*
X115208140Y-87931976D01*
X115375294Y-87772797D01*
X115508347Y-87584183D01*
X115602231Y-87373317D01*
X115653369Y-87148231D01*
X115657050Y-86884589D01*
X115612217Y-86658164D01*
X115524258Y-86444758D01*
X115396523Y-86252502D01*
X115345485Y-86201106D01*
X116362398Y-83511656D01*
X117984886Y-81351385D01*
X117984897Y-81351366D01*
X117985100Y-81351100D01*
X118013900Y-81312700D01*
X118022321Y-81298834D01*
X118032524Y-81286211D01*
X118036525Y-81280036D01*
X118088225Y-81199037D01*
X118095842Y-81184054D01*
X118105369Y-81170193D01*
X118108879Y-81163726D01*
X118131679Y-81121026D01*
X118131679Y-81121025D01*
X118131718Y-81120954D01*
X119474034Y-78606119D01*
X119489462Y-78603399D01*
X119631527Y-78548295D01*
X119760184Y-78466647D01*
X119870531Y-78361565D01*
X119958367Y-78237050D01*
X120020344Y-78097846D01*
X120054103Y-77949255D01*
X120056534Y-77775211D01*
X120026937Y-77625736D01*
X119968870Y-77484855D01*
X119884546Y-77357937D01*
X119777175Y-77249814D01*
X119679826Y-77184152D01*
X120508221Y-76326658D01*
X120536125Y-76297800D01*
X120603318Y-76255900D01*
X120640900Y-76243751D01*
X120640917Y-76243744D01*
X120641055Y-76243700D01*
X120761704Y-76204658D01*
X120765999Y-76207643D01*
X120905632Y-76268647D01*
X121054455Y-76301368D01*
X121206799Y-76304559D01*
X121356862Y-76278099D01*
X121498927Y-76222995D01*
X121627584Y-76141347D01*
X121695517Y-76076655D01*
X122445253Y-77473708D01*
X122380259Y-77486106D01*
X122238977Y-77543188D01*
X122111473Y-77626624D01*
X122002603Y-77733237D01*
X121916515Y-77858966D01*
X121856487Y-77999022D01*
X121824806Y-78148070D01*
X121822678Y-78300432D01*
X121836076Y-78373431D01*
X118201419Y-83189646D01*
X118107719Y-83313746D01*
X118099510Y-83327166D01*
X118089557Y-83339352D01*
X118072724Y-83370956D01*
X118054049Y-83401486D01*
X118048605Y-83416240D01*
X118041206Y-83430131D01*
X118038445Y-83436951D01*
X117923745Y-83726051D01*
X117919361Y-83741300D01*
X117912961Y-83755811D01*
X117905179Y-83790627D01*
X117895326Y-83824899D01*
X117893988Y-83840698D01*
X117890526Y-83856187D01*
X117889681Y-83863496D01*
X117855881Y-84174696D01*
X117855714Y-84190687D01*
X117853397Y-84206513D01*
X117855178Y-84242017D01*
X117854807Y-84277544D01*
X117857749Y-84293261D01*
X117858550Y-84309236D01*
X117859685Y-84316506D01*
X117909785Y-84623406D01*
X117913786Y-84638473D01*
X117915701Y-84653949D01*
X117926959Y-84688081D01*
X117936182Y-84722814D01*
X117943035Y-84736820D01*
X117947918Y-84751625D01*
X117950941Y-84758334D01*
X118015823Y-84899694D01*
X118015865Y-84899788D01*
X118640280Y-86259819D01*
X118523596Y-86430232D01*
X118432666Y-86642389D01*
X118384676Y-86868166D01*
X118381453Y-87098965D01*
X118423121Y-87325995D01*
X118508092Y-87540607D01*
X118633130Y-87734628D01*
X118793472Y-87900668D01*
X118983011Y-88032401D01*
X119194527Y-88124810D01*
X119419964Y-88174375D01*
X119650735Y-88179209D01*
X119878050Y-88139128D01*
X120093251Y-88055657D01*
X120288140Y-87931976D01*
X120398393Y-87826984D01*
X120398210Y-87974119D01*
X120326403Y-88044437D01*
X120240315Y-88170166D01*
X120180287Y-88310222D01*
X120148606Y-88459270D01*
X120146478Y-88611632D01*
X120173985Y-88761507D01*
X120230079Y-88903184D01*
X120312623Y-89031267D01*
X120418474Y-89140879D01*
X120543599Y-89227843D01*
X120683232Y-89288847D01*
X120832055Y-89321568D01*
X120984399Y-89324759D01*
X121134462Y-89298299D01*
X121276527Y-89243195D01*
X121405184Y-89161547D01*
X121515531Y-89056465D01*
X121603367Y-88931950D01*
X121665344Y-88792746D01*
X121699103Y-88644155D01*
X121701534Y-88470111D01*
X121671937Y-88320636D01*
X121613870Y-88179755D01*
X121613412Y-88179066D01*
X122850000Y-88179066D01*
X122917998Y-88173644D01*
X123033330Y-88137927D01*
X123134146Y-88071494D01*
X123212463Y-87979605D01*
X123262079Y-87869535D01*
X123279066Y-87750000D01*
X123279066Y-86250000D01*
X123273644Y-86182002D01*
X123237927Y-86066670D01*
X123171494Y-85965854D01*
X123079605Y-85887537D01*
X122969535Y-85837921D01*
X122850000Y-85820934D01*
X121454886Y-85820934D01*
X121455658Y-85199490D01*
X121503011Y-85232401D01*
X121714527Y-85324810D01*
X121939964Y-85374375D01*
X122170735Y-85379209D01*
X122398050Y-85339128D01*
X122613251Y-85255657D01*
X122808140Y-85131976D01*
X122975294Y-84972797D01*
X123000257Y-84937410D01*
X124181783Y-88292807D01*
X124125587Y-88423922D01*
X124093906Y-88572970D01*
X124091778Y-88725332D01*
X124119285Y-88875207D01*
X124175379Y-89016884D01*
X124257923Y-89144967D01*
X124363774Y-89254579D01*
X124488899Y-89341543D01*
X124628532Y-89402547D01*
X124777355Y-89435268D01*
X124929699Y-89438459D01*
X125079762Y-89411999D01*
X125221827Y-89356895D01*
X125350484Y-89275247D01*
X125460831Y-89170165D01*
X125548667Y-89045650D01*
X125610644Y-88906446D01*
X125644403Y-88757855D01*
X125646834Y-88583811D01*
X125617237Y-88434336D01*
X125559170Y-88293455D01*
X125474846Y-88166537D01*
X125367475Y-88058414D01*
X125241148Y-87973206D01*
X125177216Y-87946331D01*
X124597134Y-86298965D01*
X131481453Y-86298965D01*
X131523121Y-86525995D01*
X131608092Y-86740607D01*
X131733130Y-86934628D01*
X131893472Y-87100668D01*
X132083011Y-87232401D01*
X132294527Y-87324810D01*
X132519964Y-87374375D01*
X132750735Y-87379209D01*
X132978050Y-87339128D01*
X133193251Y-87255657D01*
X133388140Y-87131976D01*
X133555294Y-86972797D01*
X133688347Y-86784183D01*
X133782231Y-86573317D01*
X133833369Y-86348231D01*
X133837050Y-86084589D01*
X133792217Y-85858164D01*
X133704258Y-85644758D01*
X133576523Y-85452502D01*
X133574039Y-85450000D01*
X134020934Y-85450000D01*
X134020934Y-86950000D01*
X134026356Y-87017998D01*
X134062073Y-87133330D01*
X134128506Y-87234146D01*
X134220395Y-87312463D01*
X134330465Y-87362079D01*
X134450000Y-87379066D01*
X135950000Y-87379066D01*
X136017998Y-87373644D01*
X136133330Y-87337927D01*
X136234146Y-87271494D01*
X136312463Y-87179605D01*
X136362079Y-87069535D01*
X136379066Y-86950000D01*
X136379066Y-85450000D01*
X136373644Y-85382002D01*
X136337927Y-85266670D01*
X136271494Y-85165854D01*
X136179605Y-85087537D01*
X136069535Y-85037921D01*
X135950000Y-85020934D01*
X134450000Y-85020934D01*
X134382002Y-85026356D01*
X134266670Y-85062073D01*
X134165854Y-85128506D01*
X134087537Y-85220395D01*
X134037921Y-85330465D01*
X134020934Y-85450000D01*
X133574039Y-85450000D01*
X133413878Y-85288718D01*
X133222518Y-85159644D01*
X133009732Y-85070197D01*
X132783625Y-85023784D01*
X132552809Y-85022173D01*
X132326076Y-85065424D01*
X132112062Y-85151891D01*
X131918919Y-85278281D01*
X131754003Y-85439778D01*
X131623596Y-85630232D01*
X131532666Y-85842389D01*
X131484676Y-86068166D01*
X131481453Y-86298965D01*
X124597134Y-86298965D01*
X123661883Y-83642964D01*
X123661874Y-83642944D01*
X123661756Y-83642603D01*
X123644356Y-83593304D01*
X123635904Y-83575212D01*
X123629674Y-83556236D01*
X123626660Y-83549523D01*
X123583260Y-83454623D01*
X123573052Y-83437066D01*
X123564987Y-83418417D01*
X123561376Y-83412006D01*
X123535676Y-83367106D01*
X123535676Y-83367105D01*
X123069153Y-82551587D01*
X123181484Y-82531780D01*
X123341833Y-82469585D01*
X123487047Y-82377429D01*
X123611597Y-82258822D01*
X123710736Y-82118283D01*
X123780690Y-81961164D01*
X123794821Y-81898965D01*
X131481453Y-81898965D01*
X131523121Y-82125995D01*
X131608092Y-82340607D01*
X131733130Y-82534628D01*
X131893472Y-82700668D01*
X132083011Y-82832401D01*
X132294527Y-82924810D01*
X132519964Y-82974375D01*
X132750735Y-82979209D01*
X132978050Y-82939128D01*
X133193251Y-82855657D01*
X133388140Y-82731976D01*
X133555294Y-82572797D01*
X133688347Y-82384183D01*
X133782231Y-82173317D01*
X133833369Y-81948231D01*
X133837050Y-81684589D01*
X133792217Y-81458164D01*
X133704258Y-81244758D01*
X133576523Y-81052502D01*
X133574039Y-81050000D01*
X134020934Y-81050000D01*
X134020934Y-82550000D01*
X134026356Y-82617998D01*
X134062073Y-82733330D01*
X134128506Y-82834146D01*
X134220395Y-82912463D01*
X134330465Y-82962079D01*
X134450000Y-82979066D01*
X135950000Y-82979066D01*
X136017998Y-82973644D01*
X136133330Y-82937927D01*
X136234146Y-82871494D01*
X136312463Y-82779605D01*
X136362079Y-82669535D01*
X136379066Y-82550000D01*
X136379066Y-81050000D01*
X136373644Y-80982002D01*
X136337927Y-80866670D01*
X136271494Y-80765854D01*
X136179605Y-80687537D01*
X136069535Y-80637921D01*
X135950000Y-80620934D01*
X134450000Y-80620934D01*
X134382002Y-80626356D01*
X134266670Y-80662073D01*
X134165854Y-80728506D01*
X134087537Y-80820395D01*
X134037921Y-80930465D01*
X134020934Y-81050000D01*
X133574039Y-81050000D01*
X133413878Y-80888718D01*
X133222518Y-80759644D01*
X133009732Y-80670197D01*
X132783625Y-80623784D01*
X132552809Y-80622173D01*
X132326076Y-80665424D01*
X132112062Y-80751891D01*
X131918919Y-80878281D01*
X131754003Y-81039778D01*
X131623596Y-81230232D01*
X131532666Y-81442389D01*
X131484676Y-81668166D01*
X131481453Y-81898965D01*
X123794821Y-81898965D01*
X123818794Y-81793449D01*
X123821537Y-81597006D01*
X123802712Y-81501932D01*
X124885450Y-79427788D01*
X124885452Y-79427784D01*
X124988734Y-79230109D01*
X124991996Y-79222030D01*
X124996579Y-79214614D01*
X125016704Y-79160833D01*
X125038201Y-79107591D01*
X125039832Y-79099028D01*
X125042886Y-79090868D01*
X125045256Y-79081717D01*
X125154956Y-78645517D01*
X125156229Y-78637017D01*
X125158922Y-78628858D01*
X125165999Y-78571777D01*
X125174524Y-78514846D01*
X125174121Y-78506257D01*
X125175178Y-78497734D01*
X125175354Y-78488284D01*
X125180554Y-78041784D01*
X125179809Y-78033152D01*
X125180535Y-78024517D01*
X125174135Y-77967410D01*
X125169193Y-77910146D01*
X125166785Y-77901820D01*
X125165820Y-77893212D01*
X125163792Y-77883980D01*
X125090954Y-77563229D01*
X125219862Y-77540499D01*
X125326941Y-77498965D01*
X131481453Y-77498965D01*
X131523121Y-77725995D01*
X131608092Y-77940607D01*
X131733130Y-78134628D01*
X131893472Y-78300668D01*
X132083011Y-78432401D01*
X132294527Y-78524810D01*
X132519964Y-78574375D01*
X132750735Y-78579209D01*
X132978050Y-78539128D01*
X133193251Y-78455657D01*
X133388140Y-78331976D01*
X133555294Y-78172797D01*
X133688347Y-77984183D01*
X133782231Y-77773317D01*
X133833369Y-77548231D01*
X133837050Y-77284589D01*
X133792217Y-77058164D01*
X133704258Y-76844758D01*
X133576523Y-76652502D01*
X133574039Y-76650000D01*
X134020934Y-76650000D01*
X134020934Y-78150000D01*
X134026356Y-78217998D01*
X134062073Y-78333330D01*
X134128506Y-78434146D01*
X134220395Y-78512463D01*
X134330465Y-78562079D01*
X134450000Y-78579066D01*
X135950000Y-78579066D01*
X136017998Y-78573644D01*
X136133330Y-78537927D01*
X136234146Y-78471494D01*
X136312463Y-78379605D01*
X136362079Y-78269535D01*
X136379066Y-78150000D01*
X136379066Y-76650000D01*
X136373644Y-76582002D01*
X136337927Y-76466670D01*
X136271494Y-76365854D01*
X136179605Y-76287537D01*
X136069535Y-76237921D01*
X135950000Y-76220934D01*
X134450000Y-76220934D01*
X134382002Y-76226356D01*
X134266670Y-76262073D01*
X134165854Y-76328506D01*
X134087537Y-76420395D01*
X134037921Y-76530465D01*
X134020934Y-76650000D01*
X133574039Y-76650000D01*
X133413878Y-76488718D01*
X133222518Y-76359644D01*
X133009732Y-76270197D01*
X132783625Y-76223784D01*
X132552809Y-76222173D01*
X132326076Y-76265424D01*
X132112062Y-76351891D01*
X131918919Y-76478281D01*
X131754003Y-76639778D01*
X131623596Y-76830232D01*
X131532666Y-77042389D01*
X131484676Y-77268166D01*
X131481453Y-77498965D01*
X125326941Y-77498965D01*
X125361927Y-77485395D01*
X125490584Y-77403747D01*
X125600931Y-77298665D01*
X125688392Y-77174681D01*
X126091228Y-77083088D01*
X126150299Y-77124143D01*
X126289932Y-77185147D01*
X126438755Y-77217868D01*
X126591099Y-77221059D01*
X126741162Y-77194599D01*
X126883227Y-77139495D01*
X127011884Y-77057847D01*
X127122231Y-76952765D01*
X127210067Y-76828250D01*
X127272044Y-76689046D01*
X127305803Y-76540455D01*
X127308234Y-76366411D01*
X127278637Y-76216936D01*
X127220570Y-76076055D01*
X127136246Y-75949137D01*
X127028875Y-75841014D01*
X126902548Y-75755806D01*
X126762077Y-75696757D01*
X126612812Y-75666117D01*
X126460438Y-75665053D01*
X126310759Y-75693606D01*
X126169477Y-75750688D01*
X126041973Y-75834124D01*
X125933103Y-75940737D01*
X125854113Y-76056099D01*
X125449893Y-76148007D01*
X125381248Y-76101706D01*
X125240777Y-76042657D01*
X125091512Y-76012017D01*
X124939138Y-76010953D01*
X124859650Y-76026116D01*
X125366419Y-70797353D01*
X125413497Y-70752522D01*
X125512636Y-70611983D01*
X125582590Y-70454864D01*
X125620694Y-70287149D01*
X125623437Y-70090706D01*
X125590031Y-69921993D01*
X125524491Y-69762981D01*
X125429314Y-69619729D01*
X125308125Y-69497691D01*
X125165541Y-69401516D01*
X125006991Y-69334868D01*
X124879629Y-69308724D01*
X124113775Y-68449528D01*
X124113730Y-68449487D01*
X124113064Y-68448731D01*
X124086863Y-68419431D01*
X124069318Y-68403299D01*
X124053921Y-68385099D01*
X124047096Y-68378561D01*
X123991096Y-68325661D01*
X123971640Y-68310585D01*
X123954177Y-68293238D01*
X123946811Y-68287314D01*
X123915912Y-68262814D01*
X123915888Y-68262799D01*
X123915611Y-68262576D01*
X123112411Y-67626476D01*
X123112384Y-67626458D01*
X123111963Y-67626121D01*
X122988762Y-67528721D01*
X122950544Y-67504157D01*
X122913905Y-67477305D01*
X122895093Y-67468518D01*
X122877613Y-67457283D01*
X122835338Y-67440606D01*
X122794194Y-67421387D01*
X122785259Y-67418303D01*
X122489059Y-67318403D01*
X122444554Y-67308097D01*
X122400747Y-67295119D01*
X122380319Y-67293223D01*
X122360337Y-67288596D01*
X122314677Y-67287131D01*
X122269185Y-67282909D01*
X122259733Y-67283024D01*
X122103136Y-67286024D01*
X122103131Y-67286024D01*
X115890127Y-67405059D01*
X115760341Y-67317516D01*
X115601791Y-67250868D01*
X115433315Y-67216285D01*
X115261331Y-67215084D01*
X115092389Y-67247311D01*
X114932924Y-67311739D01*
X114789010Y-67405914D01*
X114666129Y-67526248D01*
X114568961Y-67668158D01*
X114501207Y-67826239D01*
X114495276Y-67854144D01*
X111645652Y-69822085D01*
X111487931Y-69820984D01*
X111318989Y-69853211D01*
X111159524Y-69917639D01*
X111026919Y-70004414D01*
X111028437Y-69895706D01*
X110995031Y-69726993D01*
X110929491Y-69567981D01*
X110852127Y-69451540D01*
X111027159Y-65431952D01*
X111029089Y-65388202D01*
X111056348Y-65304287D01*
X111080181Y-65268250D01*
X111080193Y-65268227D01*
X111080381Y-65267947D01*
X111595111Y-64488733D01*
X111737033Y-64433685D01*
X111882247Y-64341529D01*
X112006797Y-64222922D01*
X112105936Y-64082383D01*
X112175890Y-63925264D01*
X112213994Y-63757549D01*
X112216737Y-63561106D01*
X112183331Y-63392393D01*
X112117791Y-63233381D01*
X112022614Y-63090129D01*
X111901425Y-62968091D01*
X111758841Y-62871916D01*
X111659093Y-62829986D01*
X111042951Y-61725476D01*
X111053794Y-61677749D01*
X111056537Y-61481306D01*
X111023131Y-61312593D01*
X110957591Y-61153581D01*
X110862414Y-61010329D01*
X110741225Y-60888291D01*
X110598641Y-60792116D01*
X110440091Y-60725468D01*
X110271615Y-60690885D01*
X110099631Y-60689684D01*
X109930689Y-60721911D01*
X109771224Y-60786339D01*
X109627310Y-60880514D01*
X109504429Y-61000848D01*
X109407261Y-61142758D01*
X109339507Y-61300839D01*
X109303749Y-61469069D01*
X109301348Y-61641041D01*
X109332395Y-61810203D01*
X109395708Y-61970114D01*
X109488876Y-62114682D01*
X109608349Y-62238400D01*
X109749577Y-62336556D01*
X109860425Y-62384985D01*
X110476569Y-63489497D01*
X110463949Y-63548869D01*
X110461548Y-63720841D01*
X110465477Y-63742246D01*
X109950619Y-64521653D01*
X109950617Y-64521658D01*
X109876220Y-64634150D01*
X109866579Y-64652376D01*
X109854575Y-64669145D01*
X109835752Y-64710648D01*
X109814436Y-64750943D01*
X109808516Y-64770701D01*
X109800002Y-64789475D01*
X109797019Y-64798444D01*
X109712919Y-65057344D01*
X109708510Y-65077404D01*
X109701441Y-65096694D01*
X109694356Y-65141803D01*
X109684556Y-65186392D01*
X109684127Y-65206928D01*
X109680940Y-65227222D01*
X109680458Y-65236662D01*
X109674458Y-65372661D01*
X109674459Y-65372686D01*
X109674441Y-65373048D01*
X109499409Y-69392647D01*
X109476329Y-69415248D01*
X109379161Y-69557158D01*
X109311407Y-69715239D01*
X109296647Y-69784680D01*
X106868390Y-68110063D01*
X106868373Y-68110053D01*
X106868096Y-68109860D01*
X106851478Y-68098417D01*
X106821795Y-68071902D01*
X106808971Y-68057240D01*
X106808950Y-68057220D01*
X106808720Y-68056954D01*
X106383487Y-67571502D01*
X106385734Y-67410611D01*
X106356137Y-67261136D01*
X106298070Y-67120255D01*
X106213746Y-66993337D01*
X106106375Y-66885214D01*
X105980048Y-66800006D01*
X105839577Y-66740957D01*
X105690312Y-66710317D01*
X105537938Y-66709253D01*
X105388259Y-66737806D01*
X105246977Y-66794888D01*
X105159128Y-66852375D01*
X105150172Y-66841445D01*
X105142709Y-66829146D01*
X105117645Y-66801746D01*
X105094104Y-66773014D01*
X105082996Y-66763867D01*
X105073289Y-66753255D01*
X105043383Y-66731246D01*
X105014708Y-66707633D01*
X105002039Y-66700820D01*
X104990451Y-66692292D01*
X104984101Y-66688575D01*
X104843002Y-66607275D01*
X104842976Y-66607263D01*
X104842611Y-66607050D01*
X104667063Y-66506101D01*
X104656437Y-66452436D01*
X104598370Y-66311555D01*
X104514046Y-66184637D01*
X104406675Y-66076514D01*
X104280348Y-65991306D01*
X104139877Y-65932257D01*
X103990612Y-65901617D01*
X103838238Y-65900553D01*
X103688559Y-65929106D01*
X103547277Y-65986188D01*
X103419773Y-66069624D01*
X103310903Y-66176237D01*
X103224815Y-66301966D01*
X103164787Y-66442022D01*
X103133106Y-66591070D01*
X103131819Y-66683228D01*
X103032859Y-66702106D01*
X102891577Y-66759188D01*
X102764073Y-66842624D01*
X102655203Y-66949237D01*
X102569115Y-67074966D01*
X102509087Y-67215022D01*
X102477406Y-67364070D01*
X102475278Y-67516432D01*
X102502785Y-67666307D01*
X102558879Y-67807984D01*
X102641423Y-67936067D01*
X102747274Y-68045679D01*
X102872399Y-68132643D01*
X103012032Y-68193647D01*
X103074476Y-68207376D01*
X103121799Y-68291379D01*
X103156599Y-68353179D01*
X103183051Y-68390978D01*
X103208782Y-68429362D01*
X103213495Y-68435012D01*
X103305896Y-68544212D01*
X103339057Y-68576419D01*
X103371594Y-68609294D01*
X103377288Y-68613954D01*
X103433188Y-68659054D01*
X103433218Y-68659073D01*
X103433674Y-68659446D01*
X104180774Y-69260745D01*
X104180876Y-69260812D01*
X104184248Y-69263517D01*
X104211047Y-69284717D01*
X104211121Y-69284765D01*
X104215611Y-69288286D01*
X105291610Y-70120386D01*
X105294658Y-70122299D01*
X105297314Y-70124736D01*
X105303226Y-70129116D01*
X105406627Y-70204616D01*
X105409588Y-70206362D01*
X105412182Y-70208617D01*
X105418210Y-70212837D01*
X108517694Y-72350357D01*
X108581894Y-72394657D01*
X108594224Y-72401493D01*
X108605461Y-72410007D01*
X108611758Y-72413813D01*
X108749258Y-72495613D01*
X108762173Y-72501676D01*
X108774106Y-72509501D01*
X108780647Y-72512870D01*
X108851947Y-72548970D01*
X108851955Y-72548973D01*
X108852011Y-72549002D01*
X110268411Y-73265902D01*
X110268424Y-73265907D01*
X110268628Y-73266012D01*
X110367529Y-73316012D01*
X110386997Y-73323571D01*
X110405466Y-73333343D01*
X110412294Y-73336085D01*
X110614794Y-73415785D01*
X110634672Y-73421441D01*
X110653757Y-73429384D01*
X110660808Y-73431485D01*
X110762953Y-73461153D01*
X110762997Y-73461166D01*
X111834278Y-73773263D01*
X111838879Y-73784884D01*
X111921423Y-73912967D01*
X112027274Y-74022579D01*
X112152399Y-74109543D01*
X112292032Y-74170547D01*
X112440855Y-74203268D01*
X112593199Y-74206459D01*
X112743262Y-74179999D01*
X112885327Y-74124895D01*
X113013984Y-74043247D01*
X113124331Y-73938165D01*
X113212167Y-73813650D01*
X113274144Y-73674446D01*
X113307903Y-73525855D01*
X113310334Y-73351811D01*
X113309552Y-73347862D01*
X114448306Y-73430065D01*
X114448823Y-73430867D01*
X114554674Y-73540479D01*
X114679799Y-73627443D01*
X114819432Y-73688447D01*
X114968255Y-73721168D01*
X115120599Y-73724359D01*
X115270662Y-73697899D01*
X115412727Y-73642795D01*
X115541384Y-73561147D01*
X115651731Y-73456065D01*
X115739567Y-73331550D01*
X115801544Y-73192346D01*
X115835303Y-73043755D01*
X115837734Y-72869711D01*
X115808137Y-72720236D01*
X115750070Y-72579355D01*
X115665746Y-72452437D01*
X115558375Y-72344314D01*
X115432048Y-72259106D01*
X115291577Y-72200057D01*
X115142312Y-72169417D01*
X114989938Y-72168353D01*
X114840259Y-72196906D01*
X114698977Y-72253988D01*
X114571473Y-72337424D01*
X114528875Y-72379139D01*
X113299939Y-72290427D01*
X113320403Y-72200355D01*
X113322834Y-72026311D01*
X113293237Y-71876836D01*
X113260370Y-71797095D01*
X113653758Y-71752549D01*
X113659774Y-71758779D01*
X113784899Y-71845743D01*
X113924532Y-71906747D01*
X114073355Y-71939468D01*
X114225699Y-71942659D01*
X114375762Y-71916199D01*
X114517827Y-71861095D01*
X114646484Y-71779447D01*
X114756831Y-71674365D01*
X114844667Y-71549850D01*
X114906644Y-71410646D01*
X114940403Y-71262055D01*
X114942834Y-71088011D01*
X114913237Y-70938536D01*
X114855170Y-70797655D01*
X114770846Y-70670737D01*
X114663475Y-70562614D01*
X114537148Y-70477406D01*
X114396677Y-70418357D01*
X114247412Y-70387717D01*
X114095038Y-70386653D01*
X113945359Y-70415206D01*
X113804077Y-70472288D01*
X113676573Y-70555724D01*
X113567703Y-70662337D01*
X113538590Y-70704855D01*
X112595459Y-70811652D01*
X115264635Y-68968326D01*
X115408808Y-68971346D01*
X115578184Y-68941480D01*
X115738533Y-68879285D01*
X115883747Y-68787129D01*
X115913431Y-68758861D01*
X121383275Y-68654065D01*
X121357406Y-68775770D01*
X121356582Y-68834800D01*
X120538651Y-69536527D01*
X120538618Y-69536561D01*
X120538148Y-69536960D01*
X120470948Y-69594760D01*
X120455525Y-69610899D01*
X120438404Y-69625239D01*
X120433288Y-69630527D01*
X120312989Y-69756627D01*
X120298935Y-69774582D01*
X120283004Y-69790908D01*
X120278444Y-69796683D01*
X120226131Y-69863885D01*
X120226119Y-69863901D01*
X119007919Y-71425101D01*
X119007909Y-71425117D01*
X119007772Y-71425290D01*
X118978773Y-71462489D01*
X118974840Y-71468701D01*
X118969919Y-71474177D01*
X118965600Y-71480135D01*
X118910800Y-71556835D01*
X118907248Y-71563002D01*
X118902711Y-71568485D01*
X118898639Y-71574613D01*
X118873681Y-71612748D01*
X118873643Y-71612806D01*
X118158313Y-72705794D01*
X118158299Y-72705816D01*
X118152099Y-72715271D01*
X118138184Y-72733644D01*
X118130882Y-72741994D01*
X118130880Y-72741997D01*
X117223877Y-73779173D01*
X117188670Y-73693755D01*
X117104346Y-73566837D01*
X116996975Y-73458714D01*
X116870648Y-73373506D01*
X116730177Y-73314457D01*
X116580912Y-73283817D01*
X116428538Y-73282753D01*
X116278859Y-73311306D01*
X116137577Y-73368388D01*
X116010073Y-73451824D01*
X115901203Y-73558437D01*
X115815115Y-73684166D01*
X115777390Y-73772184D01*
X115687912Y-73753817D01*
X115535538Y-73752753D01*
X115385859Y-73781306D01*
X115244577Y-73838388D01*
X115117073Y-73921824D01*
X115008203Y-74028437D01*
X114927749Y-74145938D01*
X112652986Y-74670476D01*
X112652870Y-74670502D01*
X112613532Y-74679582D01*
X112532786Y-74669504D01*
X112503847Y-74654644D01*
X112503553Y-74654449D01*
X112497030Y-74651044D01*
X112459230Y-74631644D01*
X112430781Y-74620398D01*
X112403310Y-74606930D01*
X112396400Y-74604399D01*
X112316601Y-74575799D01*
X112287310Y-74568432D01*
X112258707Y-74558722D01*
X112251530Y-74557098D01*
X112210430Y-74548098D01*
X112210426Y-74548097D01*
X109559148Y-73965621D01*
X109544564Y-73962080D01*
X109543070Y-73958455D01*
X109458746Y-73831537D01*
X109351375Y-73723414D01*
X109225048Y-73638206D01*
X109084577Y-73579157D01*
X108935312Y-73548517D01*
X108782938Y-73547453D01*
X108633259Y-73576006D01*
X108491977Y-73633088D01*
X108364473Y-73716524D01*
X108255603Y-73823137D01*
X108169515Y-73948866D01*
X108109487Y-74088922D01*
X108096096Y-74151924D01*
X95007026Y-66731841D01*
X100294248Y-66731841D01*
X100325295Y-66901003D01*
X100388608Y-67060914D01*
X100481776Y-67205482D01*
X100601249Y-67329200D01*
X100742477Y-67427356D01*
X100900081Y-67496212D01*
X101068057Y-67533144D01*
X101240008Y-67536746D01*
X101409384Y-67506880D01*
X101569733Y-67444685D01*
X101714947Y-67352529D01*
X101839497Y-67233922D01*
X101938636Y-67093383D01*
X102008590Y-66936264D01*
X102046694Y-66768549D01*
X102049437Y-66572106D01*
X102016031Y-66403393D01*
X101950491Y-66244381D01*
X101875264Y-66131156D01*
X102017284Y-63149143D01*
X102017812Y-63139823D01*
X102104150Y-61743931D01*
X102130097Y-61719222D01*
X102229236Y-61578683D01*
X102299190Y-61421564D01*
X102337294Y-61253849D01*
X102340037Y-61057406D01*
X102306631Y-60888693D01*
X102241091Y-60729681D01*
X102145914Y-60586429D01*
X102024725Y-60464391D01*
X101882141Y-60368216D01*
X101723591Y-60301568D01*
X101555115Y-60266985D01*
X101383131Y-60265784D01*
X101214189Y-60298011D01*
X101054724Y-60362439D01*
X100910810Y-60456614D01*
X100787929Y-60576948D01*
X100690761Y-60718858D01*
X100623007Y-60876939D01*
X100587249Y-61045169D01*
X100584848Y-61217141D01*
X100615895Y-61386303D01*
X100679208Y-61546214D01*
X100752735Y-61660305D01*
X100666291Y-63057906D01*
X100666297Y-63058061D01*
X100666087Y-63061350D01*
X100665287Y-63075450D01*
X100665293Y-63075606D01*
X100664966Y-63081594D01*
X100522798Y-66066707D01*
X100497329Y-66091648D01*
X100400161Y-66233558D01*
X100332407Y-66391639D01*
X100296649Y-66559869D01*
X100294248Y-66731841D01*
X95007026Y-66731841D01*
X94774600Y-66600081D01*
X94777050Y-66424589D01*
X94732217Y-66198164D01*
X94644258Y-65984758D01*
X94516523Y-65792502D01*
X94353878Y-65628718D01*
X94162518Y-65499644D01*
X93949732Y-65410197D01*
X93723625Y-65363784D01*
X93492809Y-65362173D01*
X93266076Y-65405424D01*
X93052062Y-65491891D01*
X92858919Y-65618281D01*
X92694003Y-65779778D01*
X92563596Y-65970232D01*
X92502000Y-66113947D01*
X92502000Y-64993922D01*
X92528506Y-65034146D01*
X92620395Y-65112463D01*
X92730465Y-65162079D01*
X92850000Y-65179066D01*
X94350000Y-65179066D01*
X94417998Y-65173644D01*
X94533330Y-65137927D01*
X94634146Y-65071494D01*
X94712463Y-64979605D01*
X94762079Y-64869535D01*
X94779066Y-64750000D01*
X94779066Y-63250000D01*
X94773644Y-63182002D01*
X94737927Y-63066670D01*
X94671494Y-62965854D01*
X94579605Y-62887537D01*
X94469535Y-62837921D01*
X94350000Y-62820934D01*
X92850000Y-62820934D01*
X92782002Y-62826356D01*
X92666670Y-62862073D01*
X92565854Y-62928506D01*
X92502000Y-63003426D01*
X92502000Y-54127000D01*
X136498000Y-54127000D01*
X136498000Y-63040078D01*
X136498000Y-63040078D01*
G37*
X136498000Y-63040078D02*
X136471494Y-62999854D01*
X136379605Y-62921537D01*
X136269535Y-62871921D01*
X136150000Y-62854934D01*
X134650000Y-62854934D01*
X134582002Y-62860356D01*
X134466670Y-62896073D01*
X134365854Y-62962506D01*
X134287537Y-63054395D01*
X134237921Y-63164465D01*
X134220934Y-63284000D01*
X134220934Y-64784000D01*
X134226356Y-64851998D01*
X134262073Y-64967330D01*
X134328506Y-65068146D01*
X134420395Y-65146463D01*
X134530465Y-65196079D01*
X134650000Y-65213066D01*
X136150000Y-65213066D01*
X136217998Y-65207644D01*
X136333330Y-65171927D01*
X136434146Y-65105494D01*
X136498000Y-65030574D01*
X136498000Y-66149147D01*
X136444258Y-66018758D01*
X136316523Y-65826502D01*
X136153878Y-65662718D01*
X135962518Y-65533644D01*
X135749732Y-65444197D01*
X135523625Y-65397784D01*
X135292809Y-65396173D01*
X135066076Y-65439424D01*
X134852062Y-65525891D01*
X134658919Y-65652281D01*
X134494003Y-65813778D01*
X134363596Y-66004232D01*
X134272666Y-66216389D01*
X134224676Y-66442166D01*
X134221453Y-66672965D01*
X134263121Y-66899995D01*
X134348092Y-67114607D01*
X134473130Y-67308628D01*
X134633472Y-67474668D01*
X134823011Y-67606401D01*
X135034527Y-67698810D01*
X135259964Y-67748375D01*
X135490735Y-67753209D01*
X135718050Y-67713128D01*
X135933251Y-67629657D01*
X136128140Y-67505976D01*
X136295294Y-67346797D01*
X136428347Y-67158183D01*
X136498000Y-67001740D01*
X136498000Y-68689147D01*
X136444258Y-68558758D01*
X136316523Y-68366502D01*
X136153878Y-68202718D01*
X135962518Y-68073644D01*
X135749732Y-67984197D01*
X135523625Y-67937784D01*
X135292809Y-67936173D01*
X135066076Y-67979424D01*
X134852062Y-68065891D01*
X134658919Y-68192281D01*
X134494003Y-68353778D01*
X134363596Y-68544232D01*
X134272666Y-68756389D01*
X134224676Y-68982166D01*
X134221453Y-69212965D01*
X134263121Y-69439995D01*
X134348092Y-69654607D01*
X134473130Y-69848628D01*
X134633472Y-70014668D01*
X134823011Y-70146401D01*
X135034527Y-70238810D01*
X135259964Y-70288375D01*
X135490735Y-70293209D01*
X135718050Y-70253128D01*
X135933251Y-70169657D01*
X136128140Y-70045976D01*
X136295294Y-69886797D01*
X136428347Y-69698183D01*
X136498000Y-69541740D01*
X136498000Y-98498000D01*
X92502000Y-98498000D01*
X92502000Y-96450000D01*
X114220934Y-96450000D01*
X114220934Y-97950000D01*
X114226356Y-98017998D01*
X114262073Y-98133330D01*
X114328506Y-98234146D01*
X114420395Y-98312463D01*
X114530465Y-98362079D01*
X114650000Y-98379066D01*
X116150000Y-98379066D01*
X116217998Y-98373644D01*
X116333330Y-98337927D01*
X116434146Y-98271494D01*
X116512463Y-98179605D01*
X116562079Y-98069535D01*
X116579066Y-97950000D01*
X116579066Y-96450000D01*
X118620934Y-96450000D01*
X118620934Y-97950000D01*
X118626356Y-98017998D01*
X118662073Y-98133330D01*
X118728506Y-98234146D01*
X118820395Y-98312463D01*
X118930465Y-98362079D01*
X119050000Y-98379066D01*
X120550000Y-98379066D01*
X120617998Y-98373644D01*
X120733330Y-98337927D01*
X120834146Y-98271494D01*
X120912463Y-98179605D01*
X120962079Y-98069535D01*
X120979066Y-97950000D01*
X120979066Y-96450000D01*
X123020934Y-96450000D01*
X123020934Y-97950000D01*
X123026356Y-98017998D01*
X123062073Y-98133330D01*
X123128506Y-98234146D01*
X123220395Y-98312463D01*
X123330465Y-98362079D01*
X123450000Y-98379066D01*
X124950000Y-98379066D01*
X125017998Y-98373644D01*
X125133330Y-98337927D01*
X125234146Y-98271494D01*
X125312463Y-98179605D01*
X125362079Y-98069535D01*
X125379066Y-97950000D01*
X125379066Y-96450000D01*
X127420934Y-96450000D01*
X127420934Y-97950000D01*
X127426356Y-98017998D01*
X127462073Y-98133330D01*
X127528506Y-98234146D01*
X127620395Y-98312463D01*
X127730465Y-98362079D01*
X127850000Y-98379066D01*
X129350000Y-98379066D01*
X129417998Y-98373644D01*
X129533330Y-98337927D01*
X129634146Y-98271494D01*
X129712463Y-98179605D01*
X129762079Y-98069535D01*
X129779066Y-97950000D01*
X129779066Y-97280733D01*
X129810746Y-97263888D01*
X129827530Y-97250199D01*
X129845963Y-97238833D01*
X129853446Y-97233058D01*
X129989346Y-97126658D01*
X130004838Y-97111875D01*
X130022157Y-97099257D01*
X130052546Y-97066351D01*
X130084937Y-97035443D01*
X130097266Y-97017927D01*
X130111799Y-97002191D01*
X130135210Y-96964022D01*
X130160989Y-96927399D01*
X130169683Y-96907817D01*
X130180881Y-96889561D01*
X130196431Y-96847575D01*
X130214607Y-96806640D01*
X130219332Y-96785745D01*
X130226771Y-96765659D01*
X130229109Y-96756500D01*
X130249809Y-96673000D01*
X130249812Y-96672983D01*
X130249866Y-96672769D01*
X130711066Y-94809569D01*
X130711067Y-94809560D01*
X130711105Y-94809412D01*
X130791918Y-94482602D01*
X131101263Y-93882923D01*
X131545452Y-93367213D01*
X132092545Y-92972504D01*
X132404539Y-92843936D01*
X132404543Y-92843934D01*
X132404701Y-92843870D01*
X133413701Y-92427770D01*
X133413703Y-92427769D01*
X133455442Y-92410576D01*
X133472046Y-92401752D01*
X133489722Y-92395332D01*
X133498220Y-92391194D01*
X133577520Y-92351894D01*
X133593295Y-92342051D01*
X133610299Y-92334515D01*
X133618493Y-92329803D01*
X133656993Y-92307303D01*
X133656996Y-92307301D01*
X134562003Y-91779066D01*
X135950000Y-91779066D01*
X136017998Y-91773644D01*
X136133330Y-91737927D01*
X136234146Y-91671494D01*
X136312463Y-91579605D01*
X136362079Y-91469535D01*
X136379066Y-91350000D01*
X136379066Y-89850000D01*
X136373644Y-89782002D01*
X136337927Y-89666670D01*
X136271494Y-89565854D01*
X136179605Y-89487537D01*
X136069535Y-89437921D01*
X135950000Y-89420934D01*
X134450000Y-89420934D01*
X134382002Y-89426356D01*
X134266670Y-89462073D01*
X134165854Y-89528506D01*
X134087537Y-89620395D01*
X134037921Y-89730465D01*
X134020934Y-89850000D01*
X134020934Y-90527411D01*
X134018885Y-90528321D01*
X134010694Y-90533039D01*
X133982337Y-90549638D01*
X133834941Y-90635671D01*
X133837050Y-90484589D01*
X133792217Y-90258164D01*
X133704258Y-90044758D01*
X133576523Y-89852502D01*
X133413878Y-89688718D01*
X133222518Y-89559644D01*
X133009732Y-89470197D01*
X132783625Y-89423784D01*
X132552809Y-89422173D01*
X132326076Y-89465424D01*
X132112062Y-89551891D01*
X131918919Y-89678281D01*
X131754003Y-89839778D01*
X131623596Y-90030232D01*
X131532666Y-90242389D01*
X131484676Y-90468166D01*
X131481453Y-90698965D01*
X131523121Y-90925995D01*
X131608092Y-91140607D01*
X131733130Y-91334628D01*
X131893472Y-91500668D01*
X131974211Y-91556783D01*
X131888499Y-91592130D01*
X131888493Y-91592133D01*
X131503061Y-91750964D01*
X131495665Y-91754896D01*
X131487700Y-91757516D01*
X131437387Y-91785877D01*
X131386395Y-91812985D01*
X131379897Y-91818284D01*
X131372600Y-91822397D01*
X131364896Y-91827873D01*
X130688496Y-92315873D01*
X130682037Y-92321569D01*
X130674711Y-92326087D01*
X130632564Y-92365199D01*
X130589399Y-92403266D01*
X130584168Y-92410110D01*
X130577861Y-92415963D01*
X130571642Y-92423082D01*
X130023243Y-93059781D01*
X130018288Y-93066820D01*
X130012213Y-93072920D01*
X129980312Y-93120777D01*
X129947195Y-93167830D01*
X129943700Y-93175701D01*
X129938928Y-93182861D01*
X129934536Y-93191231D01*
X129552136Y-93932531D01*
X129549074Y-93940230D01*
X129544744Y-93947299D01*
X129542920Y-93952233D01*
X129516523Y-93912502D01*
X129353878Y-93748718D01*
X129162518Y-93619644D01*
X128949732Y-93530197D01*
X128723625Y-93483784D01*
X128492809Y-93482173D01*
X128266076Y-93525424D01*
X128052062Y-93611891D01*
X127858919Y-93738281D01*
X127694003Y-93899778D01*
X127563596Y-94090232D01*
X127472666Y-94302389D01*
X127424676Y-94528166D01*
X127421453Y-94758965D01*
X127463121Y-94985995D01*
X127548092Y-95200607D01*
X127673130Y-95394628D01*
X127833472Y-95560668D01*
X128023011Y-95692401D01*
X128234527Y-95784810D01*
X128459964Y-95834375D01*
X128690735Y-95839209D01*
X128918050Y-95799128D01*
X129087528Y-95733392D01*
X129016352Y-96020934D01*
X127850000Y-96020934D01*
X127782002Y-96026356D01*
X127666670Y-96062073D01*
X127565854Y-96128506D01*
X127487537Y-96220395D01*
X127437921Y-96330465D01*
X127420934Y-96450000D01*
X125379066Y-96450000D01*
X125373644Y-96382002D01*
X125337927Y-96266670D01*
X125271494Y-96165854D01*
X125179605Y-96087537D01*
X125069535Y-96037921D01*
X124950000Y-96020934D01*
X123450000Y-96020934D01*
X123382002Y-96026356D01*
X123266670Y-96062073D01*
X123165854Y-96128506D01*
X123087537Y-96220395D01*
X123037921Y-96330465D01*
X123020934Y-96450000D01*
X120979066Y-96450000D01*
X120973644Y-96382002D01*
X120937927Y-96266670D01*
X120871494Y-96165854D01*
X120779605Y-96087537D01*
X120669535Y-96037921D01*
X120550000Y-96020934D01*
X119050000Y-96020934D01*
X118982002Y-96026356D01*
X118866670Y-96062073D01*
X118765854Y-96128506D01*
X118687537Y-96220395D01*
X118637921Y-96330465D01*
X118620934Y-96450000D01*
X116579066Y-96450000D01*
X116573644Y-96382002D01*
X116537927Y-96266670D01*
X116471494Y-96165854D01*
X116379605Y-96087537D01*
X116269535Y-96037921D01*
X116150000Y-96020934D01*
X114650000Y-96020934D01*
X114582002Y-96026356D01*
X114466670Y-96062073D01*
X114365854Y-96128506D01*
X114287537Y-96220395D01*
X114237921Y-96330465D01*
X114220934Y-96450000D01*
X92502000Y-96450000D01*
X92502000Y-90500000D01*
X99920934Y-90500000D01*
X99920934Y-92100000D01*
X99926356Y-92167998D01*
X99962073Y-92283330D01*
X100028506Y-92384146D01*
X100120395Y-92462463D01*
X100230465Y-92512079D01*
X100350000Y-92529066D01*
X101950000Y-92529066D01*
X102017998Y-92523644D01*
X102133330Y-92487927D01*
X102234146Y-92421494D01*
X102312463Y-92329605D01*
X102362079Y-92219535D01*
X102379066Y-92100000D01*
X102379066Y-90573965D01*
X104004567Y-86353630D01*
X104087107Y-86301249D01*
X105917667Y-86424374D01*
X105924696Y-86424159D01*
X105931651Y-86425169D01*
X105941095Y-86425542D01*
X105977996Y-86426742D01*
X105984283Y-86426331D01*
X105990548Y-86427034D01*
X106000000Y-86427100D01*
X108301900Y-86427100D01*
X108354486Y-86421944D01*
X108407251Y-86418853D01*
X108420142Y-86415507D01*
X108433397Y-86414207D01*
X108483992Y-86398932D01*
X108535139Y-86385654D01*
X108543990Y-86382335D01*
X108733590Y-86309735D01*
X108780614Y-86286236D01*
X108828543Y-86264638D01*
X108839616Y-86256752D01*
X108851781Y-86250673D01*
X108893359Y-86218477D01*
X108897483Y-86215541D01*
X105388749Y-94220801D01*
X105279877Y-94264788D01*
X105152373Y-94348224D01*
X105043503Y-94454837D01*
X104957415Y-94580566D01*
X104897387Y-94720622D01*
X104865706Y-94869670D01*
X104863578Y-95022032D01*
X104891085Y-95171907D01*
X104947179Y-95313584D01*
X105029723Y-95441667D01*
X105135574Y-95551279D01*
X105260699Y-95638243D01*
X105400332Y-95699247D01*
X105549155Y-95731968D01*
X105701499Y-95735159D01*
X105851562Y-95708699D01*
X105993627Y-95653595D01*
X106122284Y-95571947D01*
X106232631Y-95466865D01*
X106320467Y-95342350D01*
X106382444Y-95203146D01*
X106416203Y-95054555D01*
X106418634Y-94880511D01*
X106389037Y-94731036D01*
X106353596Y-94645049D01*
X106778771Y-93675000D01*
X107695934Y-93675000D01*
X107695934Y-95025000D01*
X107701356Y-95092998D01*
X107737073Y-95208330D01*
X107803506Y-95309146D01*
X107895395Y-95387463D01*
X108005465Y-95437079D01*
X108125000Y-95454066D01*
X109475000Y-95454066D01*
X109542998Y-95448644D01*
X109658330Y-95412927D01*
X109759146Y-95346494D01*
X109837463Y-95254605D01*
X109887079Y-95144535D01*
X109904066Y-95025000D01*
X109904066Y-94758965D01*
X114221453Y-94758965D01*
X114263121Y-94985995D01*
X114348092Y-95200607D01*
X114473130Y-95394628D01*
X114633472Y-95560668D01*
X114823011Y-95692401D01*
X115034527Y-95784810D01*
X115259964Y-95834375D01*
X115490735Y-95839209D01*
X115718050Y-95799128D01*
X115933251Y-95715657D01*
X116128140Y-95591976D01*
X116295294Y-95432797D01*
X116428347Y-95244183D01*
X116522231Y-95033317D01*
X116573369Y-94808231D01*
X116574056Y-94758965D01*
X118621453Y-94758965D01*
X118663121Y-94985995D01*
X118748092Y-95200607D01*
X118873130Y-95394628D01*
X119033472Y-95560668D01*
X119223011Y-95692401D01*
X119434527Y-95784810D01*
X119659964Y-95834375D01*
X119890735Y-95839209D01*
X120118050Y-95799128D01*
X120333251Y-95715657D01*
X120528140Y-95591976D01*
X120695294Y-95432797D01*
X120828347Y-95244183D01*
X120922231Y-95033317D01*
X120973369Y-94808231D01*
X120974056Y-94758965D01*
X123021453Y-94758965D01*
X123063121Y-94985995D01*
X123148092Y-95200607D01*
X123273130Y-95394628D01*
X123433472Y-95560668D01*
X123623011Y-95692401D01*
X123834527Y-95784810D01*
X124059964Y-95834375D01*
X124290735Y-95839209D01*
X124518050Y-95799128D01*
X124733251Y-95715657D01*
X124928140Y-95591976D01*
X125095294Y-95432797D01*
X125228347Y-95244183D01*
X125322231Y-95033317D01*
X125373369Y-94808231D01*
X125377050Y-94544589D01*
X125332217Y-94318164D01*
X125244258Y-94104758D01*
X125116523Y-93912502D01*
X124953878Y-93748718D01*
X124762518Y-93619644D01*
X124549732Y-93530197D01*
X124323625Y-93483784D01*
X124092809Y-93482173D01*
X123866076Y-93525424D01*
X123652062Y-93611891D01*
X123458919Y-93738281D01*
X123294003Y-93899778D01*
X123163596Y-94090232D01*
X123072666Y-94302389D01*
X123024676Y-94528166D01*
X123021453Y-94758965D01*
X120974056Y-94758965D01*
X120977050Y-94544589D01*
X120932217Y-94318164D01*
X120844258Y-94104758D01*
X120716523Y-93912502D01*
X120553878Y-93748718D01*
X120362518Y-93619644D01*
X120149732Y-93530197D01*
X119923625Y-93483784D01*
X119692809Y-93482173D01*
X119466076Y-93525424D01*
X119252062Y-93611891D01*
X119058919Y-93738281D01*
X118894003Y-93899778D01*
X118763596Y-94090232D01*
X118672666Y-94302389D01*
X118624676Y-94528166D01*
X118621453Y-94758965D01*
X116574056Y-94758965D01*
X116577050Y-94544589D01*
X116532217Y-94318164D01*
X116444258Y-94104758D01*
X116316523Y-93912502D01*
X116153878Y-93748718D01*
X115962518Y-93619644D01*
X115749732Y-93530197D01*
X115523625Y-93483784D01*
X115292809Y-93482173D01*
X115066076Y-93525424D01*
X114852062Y-93611891D01*
X114658919Y-93738281D01*
X114494003Y-93899778D01*
X114363596Y-94090232D01*
X114272666Y-94302389D01*
X114224676Y-94528166D01*
X114221453Y-94758965D01*
X109904066Y-94758965D01*
X109904066Y-93675000D01*
X109898644Y-93607002D01*
X109862927Y-93491670D01*
X109796494Y-93390854D01*
X109704605Y-93312537D01*
X109594535Y-93262921D01*
X109475000Y-93245934D01*
X108125000Y-93245934D01*
X108057002Y-93251356D01*
X107941670Y-93287073D01*
X107840854Y-93353506D01*
X107762537Y-93445395D01*
X107712921Y-93555465D01*
X107695934Y-93675000D01*
X106778771Y-93675000D01*
X110229072Y-85803057D01*
X110229072Y-85803056D01*
X110247557Y-85760891D01*
X110255297Y-85737171D01*
X110265390Y-85714342D01*
X110267645Y-85707338D01*
X110295245Y-85619538D01*
X110300315Y-85595375D01*
X110307821Y-85571836D01*
X110309311Y-85564630D01*
X110318210Y-85520031D01*
X110736163Y-83430028D01*
X110812084Y-83381847D01*
X110922431Y-83276765D01*
X111010267Y-83152250D01*
X111072244Y-83013046D01*
X111106003Y-82864455D01*
X111108434Y-82690411D01*
X111078837Y-82540936D01*
X111020770Y-82400055D01*
X110936446Y-82273137D01*
X110829075Y-82165014D01*
X110702748Y-82079806D01*
X110562277Y-82020757D01*
X110413012Y-81990117D01*
X110260638Y-81989053D01*
X110110959Y-82017606D01*
X109969677Y-82074688D01*
X109842173Y-82158124D01*
X109733303Y-82264737D01*
X109647215Y-82390466D01*
X109587187Y-82530522D01*
X109555506Y-82679570D01*
X109553378Y-82831932D01*
X109580885Y-82981807D01*
X109636979Y-83123484D01*
X109702321Y-83224875D01*
X109444551Y-84513875D01*
X109386941Y-84475016D01*
X109228391Y-84408368D01*
X109059915Y-84373785D01*
X108887931Y-84372584D01*
X108718989Y-84404811D01*
X108559524Y-84469239D01*
X108415610Y-84563414D01*
X108292729Y-84683748D01*
X108195561Y-84825658D01*
X108127807Y-84983739D01*
X108108813Y-85073100D01*
X106010996Y-85073100D01*
X105996843Y-85072640D01*
X104176340Y-84950191D01*
X104135625Y-84909191D01*
X103993041Y-84813016D01*
X103834491Y-84746368D01*
X103666015Y-84711785D01*
X103494031Y-84710584D01*
X103325089Y-84742811D01*
X103165624Y-84807239D01*
X103021710Y-84901414D01*
X102898829Y-85021748D01*
X102801661Y-85163658D01*
X102733907Y-85321739D01*
X102698149Y-85489969D01*
X102695748Y-85661941D01*
X102726795Y-85831103D01*
X102741023Y-85867038D01*
X101121853Y-90070934D01*
X100350000Y-90070934D01*
X100282002Y-90076356D01*
X100166670Y-90112073D01*
X100065854Y-90178506D01*
X99987537Y-90270395D01*
X99937921Y-90380465D01*
X99920934Y-90500000D01*
X92502000Y-90500000D01*
X92502000Y-89296785D01*
X92520395Y-89312463D01*
X92630465Y-89362079D01*
X92750000Y-89379066D01*
X94250000Y-89379066D01*
X94317998Y-89373644D01*
X94433330Y-89337927D01*
X94534146Y-89271494D01*
X94612463Y-89179605D01*
X94662079Y-89069535D01*
X94679066Y-88950000D01*
X94679066Y-87450000D01*
X94673644Y-87382002D01*
X94637927Y-87266670D01*
X94571494Y-87165854D01*
X94479605Y-87087537D01*
X94369535Y-87037921D01*
X94250000Y-87020934D01*
X92750000Y-87020934D01*
X92682002Y-87026356D01*
X92566670Y-87062073D01*
X92502000Y-87104687D01*
X92502000Y-77964192D01*
X92548092Y-78080607D01*
X92673130Y-78274628D01*
X92833472Y-78440668D01*
X93023011Y-78572401D01*
X93234527Y-78664810D01*
X93459964Y-78714375D01*
X93690735Y-78719209D01*
X93918050Y-78679128D01*
X94133251Y-78595657D01*
X94328140Y-78471976D01*
X94495294Y-78312797D01*
X94628347Y-78124183D01*
X94655669Y-78062817D01*
X109738190Y-78002996D01*
X109738257Y-78002989D01*
X109739333Y-78002990D01*
X109755633Y-78002890D01*
X109760827Y-78002348D01*
X109766044Y-78002724D01*
X109773399Y-78002481D01*
X109805999Y-78001181D01*
X109814336Y-78000027D01*
X109822762Y-78000246D01*
X109830098Y-77999667D01*
X109845120Y-77998377D01*
X112669120Y-77769782D01*
X112669141Y-77769778D01*
X112669478Y-77769753D01*
X112762578Y-77762153D01*
X112772111Y-77760426D01*
X112781797Y-77760229D01*
X112822645Y-77751273D01*
X112863784Y-77743821D01*
X112872798Y-77740276D01*
X112882263Y-77738201D01*
X112889246Y-77735882D01*
X113064946Y-77676182D01*
X113074069Y-77672050D01*
X113083734Y-77669399D01*
X113120861Y-77650857D01*
X113158637Y-77633747D01*
X113166784Y-77627921D01*
X113175749Y-77623444D01*
X113181952Y-77619486D01*
X113260052Y-77568886D01*
X114979103Y-76456948D01*
X114854008Y-76923208D01*
X114852077Y-76923988D01*
X114724573Y-77007424D01*
X114615703Y-77114037D01*
X114529615Y-77239766D01*
X114469587Y-77379822D01*
X114437906Y-77528870D01*
X114435778Y-77681232D01*
X114463285Y-77831107D01*
X114519379Y-77972784D01*
X114601923Y-78100867D01*
X114707774Y-78210479D01*
X114832899Y-78297443D01*
X114972532Y-78358447D01*
X115121355Y-78391168D01*
X115273699Y-78394359D01*
X115423762Y-78367899D01*
X115565827Y-78312795D01*
X115694484Y-78231147D01*
X115804831Y-78126065D01*
X115892667Y-78001550D01*
X115954644Y-77862346D01*
X115974887Y-77773244D01*
X116021979Y-77892184D01*
X116104523Y-78020267D01*
X116210374Y-78129879D01*
X116335499Y-78216843D01*
X116475132Y-78277847D01*
X116623955Y-78310568D01*
X116776299Y-78313759D01*
X116926362Y-78287299D01*
X117068427Y-78232195D01*
X117163703Y-78171731D01*
X116389909Y-79526245D01*
X116343459Y-79535106D01*
X116202177Y-79592188D01*
X116074673Y-79675624D01*
X115965803Y-79782237D01*
X115879715Y-79907966D01*
X115819687Y-80048022D01*
X115788006Y-80197070D01*
X115785878Y-80349432D01*
X115813385Y-80499307D01*
X115869479Y-80640984D01*
X115952023Y-80769067D01*
X116057874Y-80878679D01*
X116182999Y-80965643D01*
X116294481Y-81014348D01*
X115108823Y-82592902D01*
X115108785Y-82592965D01*
X115108127Y-82593832D01*
X115092127Y-82615231D01*
X115086293Y-82624870D01*
X115079060Y-82633508D01*
X115074952Y-82639613D01*
X115045452Y-82684113D01*
X115039784Y-82694799D01*
X115032582Y-82704526D01*
X115028846Y-82710865D01*
X115015458Y-82733944D01*
X115015424Y-82734002D01*
X113029252Y-86158555D01*
X113029234Y-86158585D01*
X112986834Y-86231685D01*
X112972347Y-86263453D01*
X112955884Y-86294260D01*
X112953113Y-86301077D01*
X112890614Y-86457977D01*
X112880839Y-86491800D01*
X112868988Y-86524972D01*
X112867250Y-86532122D01*
X112848097Y-86613399D01*
X112637526Y-87502124D01*
X112528873Y-87573224D01*
X112420003Y-87679837D01*
X112333915Y-87805566D01*
X112273887Y-87945622D01*
X112242206Y-88094670D01*
X112240078Y-88247032D01*
X112267585Y-88396907D01*
X112323679Y-88538584D01*
X112406223Y-88666667D01*
X112512074Y-88776279D01*
X112637199Y-88863243D01*
X112776832Y-88924247D01*
X112925655Y-88956968D01*
X113077999Y-88960159D01*
X113228062Y-88933699D01*
X113370127Y-88878595D01*
X113498784Y-88796947D01*
X113609131Y-88691865D01*
X113696967Y-88567350D01*
X113758944Y-88428146D01*
X113792703Y-88279555D01*
X113795134Y-88105511D01*
X113765537Y-87956036D01*
X113754457Y-87929153D01*
X113903011Y-88032401D01*
X114114527Y-88124810D01*
X114339964Y-88174375D01*
X114570735Y-88179209D01*
X114798050Y-88139128D01*
X115013251Y-88055657D01*
X115208140Y-87931976D01*
X115375294Y-87772797D01*
X115508347Y-87584183D01*
X115602231Y-87373317D01*
X115653369Y-87148231D01*
X115657050Y-86884589D01*
X115612217Y-86658164D01*
X115524258Y-86444758D01*
X115396523Y-86252502D01*
X115345485Y-86201106D01*
X116362398Y-83511656D01*
X117984886Y-81351385D01*
X117984897Y-81351366D01*
X117985100Y-81351100D01*
X118013900Y-81312700D01*
X118022321Y-81298834D01*
X118032524Y-81286211D01*
X118036525Y-81280036D01*
X118088225Y-81199037D01*
X118095842Y-81184054D01*
X118105369Y-81170193D01*
X118108879Y-81163726D01*
X118131679Y-81121026D01*
X118131679Y-81121025D01*
X118131718Y-81120954D01*
X119474034Y-78606119D01*
X119489462Y-78603399D01*
X119631527Y-78548295D01*
X119760184Y-78466647D01*
X119870531Y-78361565D01*
X119958367Y-78237050D01*
X120020344Y-78097846D01*
X120054103Y-77949255D01*
X120056534Y-77775211D01*
X120026937Y-77625736D01*
X119968870Y-77484855D01*
X119884546Y-77357937D01*
X119777175Y-77249814D01*
X119679826Y-77184152D01*
X120508221Y-76326658D01*
X120536125Y-76297800D01*
X120603318Y-76255900D01*
X120640900Y-76243751D01*
X120640917Y-76243744D01*
X120641055Y-76243700D01*
X120761704Y-76204658D01*
X120765999Y-76207643D01*
X120905632Y-76268647D01*
X121054455Y-76301368D01*
X121206799Y-76304559D01*
X121356862Y-76278099D01*
X121498927Y-76222995D01*
X121627584Y-76141347D01*
X121695517Y-76076655D01*
X122445253Y-77473708D01*
X122380259Y-77486106D01*
X122238977Y-77543188D01*
X122111473Y-77626624D01*
X122002603Y-77733237D01*
X121916515Y-77858966D01*
X121856487Y-77999022D01*
X121824806Y-78148070D01*
X121822678Y-78300432D01*
X121836076Y-78373431D01*
X118201419Y-83189646D01*
X118107719Y-83313746D01*
X118099510Y-83327166D01*
X118089557Y-83339352D01*
X118072724Y-83370956D01*
X118054049Y-83401486D01*
X118048605Y-83416240D01*
X118041206Y-83430131D01*
X118038445Y-83436951D01*
X117923745Y-83726051D01*
X117919361Y-83741300D01*
X117912961Y-83755811D01*
X117905179Y-83790627D01*
X117895326Y-83824899D01*
X117893988Y-83840698D01*
X117890526Y-83856187D01*
X117889681Y-83863496D01*
X117855881Y-84174696D01*
X117855714Y-84190687D01*
X117853397Y-84206513D01*
X117855178Y-84242017D01*
X117854807Y-84277544D01*
X117857749Y-84293261D01*
X117858550Y-84309236D01*
X117859685Y-84316506D01*
X117909785Y-84623406D01*
X117913786Y-84638473D01*
X117915701Y-84653949D01*
X117926959Y-84688081D01*
X117936182Y-84722814D01*
X117943035Y-84736820D01*
X117947918Y-84751625D01*
X117950941Y-84758334D01*
X118015823Y-84899694D01*
X118015865Y-84899788D01*
X118640280Y-86259819D01*
X118523596Y-86430232D01*
X118432666Y-86642389D01*
X118384676Y-86868166D01*
X118381453Y-87098965D01*
X118423121Y-87325995D01*
X118508092Y-87540607D01*
X118633130Y-87734628D01*
X118793472Y-87900668D01*
X118983011Y-88032401D01*
X119194527Y-88124810D01*
X119419964Y-88174375D01*
X119650735Y-88179209D01*
X119878050Y-88139128D01*
X120093251Y-88055657D01*
X120288140Y-87931976D01*
X120398393Y-87826984D01*
X120398210Y-87974119D01*
X120326403Y-88044437D01*
X120240315Y-88170166D01*
X120180287Y-88310222D01*
X120148606Y-88459270D01*
X120146478Y-88611632D01*
X120173985Y-88761507D01*
X120230079Y-88903184D01*
X120312623Y-89031267D01*
X120418474Y-89140879D01*
X120543599Y-89227843D01*
X120683232Y-89288847D01*
X120832055Y-89321568D01*
X120984399Y-89324759D01*
X121134462Y-89298299D01*
X121276527Y-89243195D01*
X121405184Y-89161547D01*
X121515531Y-89056465D01*
X121603367Y-88931950D01*
X121665344Y-88792746D01*
X121699103Y-88644155D01*
X121701534Y-88470111D01*
X121671937Y-88320636D01*
X121613870Y-88179755D01*
X121613412Y-88179066D01*
X122850000Y-88179066D01*
X122917998Y-88173644D01*
X123033330Y-88137927D01*
X123134146Y-88071494D01*
X123212463Y-87979605D01*
X123262079Y-87869535D01*
X123279066Y-87750000D01*
X123279066Y-86250000D01*
X123273644Y-86182002D01*
X123237927Y-86066670D01*
X123171494Y-85965854D01*
X123079605Y-85887537D01*
X122969535Y-85837921D01*
X122850000Y-85820934D01*
X121454886Y-85820934D01*
X121455658Y-85199490D01*
X121503011Y-85232401D01*
X121714527Y-85324810D01*
X121939964Y-85374375D01*
X122170735Y-85379209D01*
X122398050Y-85339128D01*
X122613251Y-85255657D01*
X122808140Y-85131976D01*
X122975294Y-84972797D01*
X123000257Y-84937410D01*
X124181783Y-88292807D01*
X124125587Y-88423922D01*
X124093906Y-88572970D01*
X124091778Y-88725332D01*
X124119285Y-88875207D01*
X124175379Y-89016884D01*
X124257923Y-89144967D01*
X124363774Y-89254579D01*
X124488899Y-89341543D01*
X124628532Y-89402547D01*
X124777355Y-89435268D01*
X124929699Y-89438459D01*
X125079762Y-89411999D01*
X125221827Y-89356895D01*
X125350484Y-89275247D01*
X125460831Y-89170165D01*
X125548667Y-89045650D01*
X125610644Y-88906446D01*
X125644403Y-88757855D01*
X125646834Y-88583811D01*
X125617237Y-88434336D01*
X125559170Y-88293455D01*
X125474846Y-88166537D01*
X125367475Y-88058414D01*
X125241148Y-87973206D01*
X125177216Y-87946331D01*
X124597134Y-86298965D01*
X131481453Y-86298965D01*
X131523121Y-86525995D01*
X131608092Y-86740607D01*
X131733130Y-86934628D01*
X131893472Y-87100668D01*
X132083011Y-87232401D01*
X132294527Y-87324810D01*
X132519964Y-87374375D01*
X132750735Y-87379209D01*
X132978050Y-87339128D01*
X133193251Y-87255657D01*
X133388140Y-87131976D01*
X133555294Y-86972797D01*
X133688347Y-86784183D01*
X133782231Y-86573317D01*
X133833369Y-86348231D01*
X133837050Y-86084589D01*
X133792217Y-85858164D01*
X133704258Y-85644758D01*
X133576523Y-85452502D01*
X133574039Y-85450000D01*
X134020934Y-85450000D01*
X134020934Y-86950000D01*
X134026356Y-87017998D01*
X134062073Y-87133330D01*
X134128506Y-87234146D01*
X134220395Y-87312463D01*
X134330465Y-87362079D01*
X134450000Y-87379066D01*
X135950000Y-87379066D01*
X136017998Y-87373644D01*
X136133330Y-87337927D01*
X136234146Y-87271494D01*
X136312463Y-87179605D01*
X136362079Y-87069535D01*
X136379066Y-86950000D01*
X136379066Y-85450000D01*
X136373644Y-85382002D01*
X136337927Y-85266670D01*
X136271494Y-85165854D01*
X136179605Y-85087537D01*
X136069535Y-85037921D01*
X135950000Y-85020934D01*
X134450000Y-85020934D01*
X134382002Y-85026356D01*
X134266670Y-85062073D01*
X134165854Y-85128506D01*
X134087537Y-85220395D01*
X134037921Y-85330465D01*
X134020934Y-85450000D01*
X133574039Y-85450000D01*
X133413878Y-85288718D01*
X133222518Y-85159644D01*
X133009732Y-85070197D01*
X132783625Y-85023784D01*
X132552809Y-85022173D01*
X132326076Y-85065424D01*
X132112062Y-85151891D01*
X131918919Y-85278281D01*
X131754003Y-85439778D01*
X131623596Y-85630232D01*
X131532666Y-85842389D01*
X131484676Y-86068166D01*
X131481453Y-86298965D01*
X124597134Y-86298965D01*
X123661883Y-83642964D01*
X123661874Y-83642944D01*
X123661756Y-83642603D01*
X123644356Y-83593304D01*
X123635904Y-83575212D01*
X123629674Y-83556236D01*
X123626660Y-83549523D01*
X123583260Y-83454623D01*
X123573052Y-83437066D01*
X123564987Y-83418417D01*
X123561376Y-83412006D01*
X123535676Y-83367106D01*
X123535676Y-83367105D01*
X123069153Y-82551587D01*
X123181484Y-82531780D01*
X123341833Y-82469585D01*
X123487047Y-82377429D01*
X123611597Y-82258822D01*
X123710736Y-82118283D01*
X123780690Y-81961164D01*
X123794821Y-81898965D01*
X131481453Y-81898965D01*
X131523121Y-82125995D01*
X131608092Y-82340607D01*
X131733130Y-82534628D01*
X131893472Y-82700668D01*
X132083011Y-82832401D01*
X132294527Y-82924810D01*
X132519964Y-82974375D01*
X132750735Y-82979209D01*
X132978050Y-82939128D01*
X133193251Y-82855657D01*
X133388140Y-82731976D01*
X133555294Y-82572797D01*
X133688347Y-82384183D01*
X133782231Y-82173317D01*
X133833369Y-81948231D01*
X133837050Y-81684589D01*
X133792217Y-81458164D01*
X133704258Y-81244758D01*
X133576523Y-81052502D01*
X133574039Y-81050000D01*
X134020934Y-81050000D01*
X134020934Y-82550000D01*
X134026356Y-82617998D01*
X134062073Y-82733330D01*
X134128506Y-82834146D01*
X134220395Y-82912463D01*
X134330465Y-82962079D01*
X134450000Y-82979066D01*
X135950000Y-82979066D01*
X136017998Y-82973644D01*
X136133330Y-82937927D01*
X136234146Y-82871494D01*
X136312463Y-82779605D01*
X136362079Y-82669535D01*
X136379066Y-82550000D01*
X136379066Y-81050000D01*
X136373644Y-80982002D01*
X136337927Y-80866670D01*
X136271494Y-80765854D01*
X136179605Y-80687537D01*
X136069535Y-80637921D01*
X135950000Y-80620934D01*
X134450000Y-80620934D01*
X134382002Y-80626356D01*
X134266670Y-80662073D01*
X134165854Y-80728506D01*
X134087537Y-80820395D01*
X134037921Y-80930465D01*
X134020934Y-81050000D01*
X133574039Y-81050000D01*
X133413878Y-80888718D01*
X133222518Y-80759644D01*
X133009732Y-80670197D01*
X132783625Y-80623784D01*
X132552809Y-80622173D01*
X132326076Y-80665424D01*
X132112062Y-80751891D01*
X131918919Y-80878281D01*
X131754003Y-81039778D01*
X131623596Y-81230232D01*
X131532666Y-81442389D01*
X131484676Y-81668166D01*
X131481453Y-81898965D01*
X123794821Y-81898965D01*
X123818794Y-81793449D01*
X123821537Y-81597006D01*
X123802712Y-81501932D01*
X124885450Y-79427788D01*
X124885452Y-79427784D01*
X124988734Y-79230109D01*
X124991996Y-79222030D01*
X124996579Y-79214614D01*
X125016704Y-79160833D01*
X125038201Y-79107591D01*
X125039832Y-79099028D01*
X125042886Y-79090868D01*
X125045256Y-79081717D01*
X125154956Y-78645517D01*
X125156229Y-78637017D01*
X125158922Y-78628858D01*
X125165999Y-78571777D01*
X125174524Y-78514846D01*
X125174121Y-78506257D01*
X125175178Y-78497734D01*
X125175354Y-78488284D01*
X125180554Y-78041784D01*
X125179809Y-78033152D01*
X125180535Y-78024517D01*
X125174135Y-77967410D01*
X125169193Y-77910146D01*
X125166785Y-77901820D01*
X125165820Y-77893212D01*
X125163792Y-77883980D01*
X125090954Y-77563229D01*
X125219862Y-77540499D01*
X125326941Y-77498965D01*
X131481453Y-77498965D01*
X131523121Y-77725995D01*
X131608092Y-77940607D01*
X131733130Y-78134628D01*
X131893472Y-78300668D01*
X132083011Y-78432401D01*
X132294527Y-78524810D01*
X132519964Y-78574375D01*
X132750735Y-78579209D01*
X132978050Y-78539128D01*
X133193251Y-78455657D01*
X133388140Y-78331976D01*
X133555294Y-78172797D01*
X133688347Y-77984183D01*
X133782231Y-77773317D01*
X133833369Y-77548231D01*
X133837050Y-77284589D01*
X133792217Y-77058164D01*
X133704258Y-76844758D01*
X133576523Y-76652502D01*
X133574039Y-76650000D01*
X134020934Y-76650000D01*
X134020934Y-78150000D01*
X134026356Y-78217998D01*
X134062073Y-78333330D01*
X134128506Y-78434146D01*
X134220395Y-78512463D01*
X134330465Y-78562079D01*
X134450000Y-78579066D01*
X135950000Y-78579066D01*
X136017998Y-78573644D01*
X136133330Y-78537927D01*
X136234146Y-78471494D01*
X136312463Y-78379605D01*
X136362079Y-78269535D01*
X136379066Y-78150000D01*
X136379066Y-76650000D01*
X136373644Y-76582002D01*
X136337927Y-76466670D01*
X136271494Y-76365854D01*
X136179605Y-76287537D01*
X136069535Y-76237921D01*
X135950000Y-76220934D01*
X134450000Y-76220934D01*
X134382002Y-76226356D01*
X134266670Y-76262073D01*
X134165854Y-76328506D01*
X134087537Y-76420395D01*
X134037921Y-76530465D01*
X134020934Y-76650000D01*
X133574039Y-76650000D01*
X133413878Y-76488718D01*
X133222518Y-76359644D01*
X133009732Y-76270197D01*
X132783625Y-76223784D01*
X132552809Y-76222173D01*
X132326076Y-76265424D01*
X132112062Y-76351891D01*
X131918919Y-76478281D01*
X131754003Y-76639778D01*
X131623596Y-76830232D01*
X131532666Y-77042389D01*
X131484676Y-77268166D01*
X131481453Y-77498965D01*
X125326941Y-77498965D01*
X125361927Y-77485395D01*
X125490584Y-77403747D01*
X125600931Y-77298665D01*
X125688392Y-77174681D01*
X126091228Y-77083088D01*
X126150299Y-77124143D01*
X126289932Y-77185147D01*
X126438755Y-77217868D01*
X126591099Y-77221059D01*
X126741162Y-77194599D01*
X126883227Y-77139495D01*
X127011884Y-77057847D01*
X127122231Y-76952765D01*
X127210067Y-76828250D01*
X127272044Y-76689046D01*
X127305803Y-76540455D01*
X127308234Y-76366411D01*
X127278637Y-76216936D01*
X127220570Y-76076055D01*
X127136246Y-75949137D01*
X127028875Y-75841014D01*
X126902548Y-75755806D01*
X126762077Y-75696757D01*
X126612812Y-75666117D01*
X126460438Y-75665053D01*
X126310759Y-75693606D01*
X126169477Y-75750688D01*
X126041973Y-75834124D01*
X125933103Y-75940737D01*
X125854113Y-76056099D01*
X125449893Y-76148007D01*
X125381248Y-76101706D01*
X125240777Y-76042657D01*
X125091512Y-76012017D01*
X124939138Y-76010953D01*
X124859650Y-76026116D01*
X125366419Y-70797353D01*
X125413497Y-70752522D01*
X125512636Y-70611983D01*
X125582590Y-70454864D01*
X125620694Y-70287149D01*
X125623437Y-70090706D01*
X125590031Y-69921993D01*
X125524491Y-69762981D01*
X125429314Y-69619729D01*
X125308125Y-69497691D01*
X125165541Y-69401516D01*
X125006991Y-69334868D01*
X124879629Y-69308724D01*
X124113775Y-68449528D01*
X124113730Y-68449487D01*
X124113064Y-68448731D01*
X124086863Y-68419431D01*
X124069318Y-68403299D01*
X124053921Y-68385099D01*
X124047096Y-68378561D01*
X123991096Y-68325661D01*
X123971640Y-68310585D01*
X123954177Y-68293238D01*
X123946811Y-68287314D01*
X123915912Y-68262814D01*
X123915888Y-68262799D01*
X123915611Y-68262576D01*
X123112411Y-67626476D01*
X123112384Y-67626458D01*
X123111963Y-67626121D01*
X122988762Y-67528721D01*
X122950544Y-67504157D01*
X122913905Y-67477305D01*
X122895093Y-67468518D01*
X122877613Y-67457283D01*
X122835338Y-67440606D01*
X122794194Y-67421387D01*
X122785259Y-67418303D01*
X122489059Y-67318403D01*
X122444554Y-67308097D01*
X122400747Y-67295119D01*
X122380319Y-67293223D01*
X122360337Y-67288596D01*
X122314677Y-67287131D01*
X122269185Y-67282909D01*
X122259733Y-67283024D01*
X122103136Y-67286024D01*
X122103131Y-67286024D01*
X115890127Y-67405059D01*
X115760341Y-67317516D01*
X115601791Y-67250868D01*
X115433315Y-67216285D01*
X115261331Y-67215084D01*
X115092389Y-67247311D01*
X114932924Y-67311739D01*
X114789010Y-67405914D01*
X114666129Y-67526248D01*
X114568961Y-67668158D01*
X114501207Y-67826239D01*
X114495276Y-67854144D01*
X111645652Y-69822085D01*
X111487931Y-69820984D01*
X111318989Y-69853211D01*
X111159524Y-69917639D01*
X111026919Y-70004414D01*
X111028437Y-69895706D01*
X110995031Y-69726993D01*
X110929491Y-69567981D01*
X110852127Y-69451540D01*
X111027159Y-65431952D01*
X111029089Y-65388202D01*
X111056348Y-65304287D01*
X111080181Y-65268250D01*
X111080193Y-65268227D01*
X111080381Y-65267947D01*
X111595111Y-64488733D01*
X111737033Y-64433685D01*
X111882247Y-64341529D01*
X112006797Y-64222922D01*
X112105936Y-64082383D01*
X112175890Y-63925264D01*
X112213994Y-63757549D01*
X112216737Y-63561106D01*
X112183331Y-63392393D01*
X112117791Y-63233381D01*
X112022614Y-63090129D01*
X111901425Y-62968091D01*
X111758841Y-62871916D01*
X111659093Y-62829986D01*
X111042951Y-61725476D01*
X111053794Y-61677749D01*
X111056537Y-61481306D01*
X111023131Y-61312593D01*
X110957591Y-61153581D01*
X110862414Y-61010329D01*
X110741225Y-60888291D01*
X110598641Y-60792116D01*
X110440091Y-60725468D01*
X110271615Y-60690885D01*
X110099631Y-60689684D01*
X109930689Y-60721911D01*
X109771224Y-60786339D01*
X109627310Y-60880514D01*
X109504429Y-61000848D01*
X109407261Y-61142758D01*
X109339507Y-61300839D01*
X109303749Y-61469069D01*
X109301348Y-61641041D01*
X109332395Y-61810203D01*
X109395708Y-61970114D01*
X109488876Y-62114682D01*
X109608349Y-62238400D01*
X109749577Y-62336556D01*
X109860425Y-62384985D01*
X110476569Y-63489497D01*
X110463949Y-63548869D01*
X110461548Y-63720841D01*
X110465477Y-63742246D01*
X109950619Y-64521653D01*
X109950617Y-64521658D01*
X109876220Y-64634150D01*
X109866579Y-64652376D01*
X109854575Y-64669145D01*
X109835752Y-64710648D01*
X109814436Y-64750943D01*
X109808516Y-64770701D01*
X109800002Y-64789475D01*
X109797019Y-64798444D01*
X109712919Y-65057344D01*
X109708510Y-65077404D01*
X109701441Y-65096694D01*
X109694356Y-65141803D01*
X109684556Y-65186392D01*
X109684127Y-65206928D01*
X109680940Y-65227222D01*
X109680458Y-65236662D01*
X109674458Y-65372661D01*
X109674459Y-65372686D01*
X109674441Y-65373048D01*
X109499409Y-69392647D01*
X109476329Y-69415248D01*
X109379161Y-69557158D01*
X109311407Y-69715239D01*
X109296647Y-69784680D01*
X106868390Y-68110063D01*
X106868373Y-68110053D01*
X106868096Y-68109860D01*
X106851478Y-68098417D01*
X106821795Y-68071902D01*
X106808971Y-68057240D01*
X106808950Y-68057220D01*
X106808720Y-68056954D01*
X106383487Y-67571502D01*
X106385734Y-67410611D01*
X106356137Y-67261136D01*
X106298070Y-67120255D01*
X106213746Y-66993337D01*
X106106375Y-66885214D01*
X105980048Y-66800006D01*
X105839577Y-66740957D01*
X105690312Y-66710317D01*
X105537938Y-66709253D01*
X105388259Y-66737806D01*
X105246977Y-66794888D01*
X105159128Y-66852375D01*
X105150172Y-66841445D01*
X105142709Y-66829146D01*
X105117645Y-66801746D01*
X105094104Y-66773014D01*
X105082996Y-66763867D01*
X105073289Y-66753255D01*
X105043383Y-66731246D01*
X105014708Y-66707633D01*
X105002039Y-66700820D01*
X104990451Y-66692292D01*
X104984101Y-66688575D01*
X104843002Y-66607275D01*
X104842976Y-66607263D01*
X104842611Y-66607050D01*
X104667063Y-66506101D01*
X104656437Y-66452436D01*
X104598370Y-66311555D01*
X104514046Y-66184637D01*
X104406675Y-66076514D01*
X104280348Y-65991306D01*
X104139877Y-65932257D01*
X103990612Y-65901617D01*
X103838238Y-65900553D01*
X103688559Y-65929106D01*
X103547277Y-65986188D01*
X103419773Y-66069624D01*
X103310903Y-66176237D01*
X103224815Y-66301966D01*
X103164787Y-66442022D01*
X103133106Y-66591070D01*
X103131819Y-66683228D01*
X103032859Y-66702106D01*
X102891577Y-66759188D01*
X102764073Y-66842624D01*
X102655203Y-66949237D01*
X102569115Y-67074966D01*
X102509087Y-67215022D01*
X102477406Y-67364070D01*
X102475278Y-67516432D01*
X102502785Y-67666307D01*
X102558879Y-67807984D01*
X102641423Y-67936067D01*
X102747274Y-68045679D01*
X102872399Y-68132643D01*
X103012032Y-68193647D01*
X103074476Y-68207376D01*
X103121799Y-68291379D01*
X103156599Y-68353179D01*
X103183051Y-68390978D01*
X103208782Y-68429362D01*
X103213495Y-68435012D01*
X103305896Y-68544212D01*
X103339057Y-68576419D01*
X103371594Y-68609294D01*
X103377288Y-68613954D01*
X103433188Y-68659054D01*
X103433218Y-68659073D01*
X103433674Y-68659446D01*
X104180774Y-69260745D01*
X104180876Y-69260812D01*
X104184248Y-69263517D01*
X104211047Y-69284717D01*
X104211121Y-69284765D01*
X104215611Y-69288286D01*
X105291610Y-70120386D01*
X105294658Y-70122299D01*
X105297314Y-70124736D01*
X105303226Y-70129116D01*
X105406627Y-70204616D01*
X105409588Y-70206362D01*
X105412182Y-70208617D01*
X105418210Y-70212837D01*
X108517694Y-72350357D01*
X108581894Y-72394657D01*
X108594224Y-72401493D01*
X108605461Y-72410007D01*
X108611758Y-72413813D01*
X108749258Y-72495613D01*
X108762173Y-72501676D01*
X108774106Y-72509501D01*
X108780647Y-72512870D01*
X108851947Y-72548970D01*
X108851955Y-72548973D01*
X108852011Y-72549002D01*
X110268411Y-73265902D01*
X110268424Y-73265907D01*
X110268628Y-73266012D01*
X110367529Y-73316012D01*
X110386997Y-73323571D01*
X110405466Y-73333343D01*
X110412294Y-73336085D01*
X110614794Y-73415785D01*
X110634672Y-73421441D01*
X110653757Y-73429384D01*
X110660808Y-73431485D01*
X110762953Y-73461153D01*
X110762997Y-73461166D01*
X111834278Y-73773263D01*
X111838879Y-73784884D01*
X111921423Y-73912967D01*
X112027274Y-74022579D01*
X112152399Y-74109543D01*
X112292032Y-74170547D01*
X112440855Y-74203268D01*
X112593199Y-74206459D01*
X112743262Y-74179999D01*
X112885327Y-74124895D01*
X113013984Y-74043247D01*
X113124331Y-73938165D01*
X113212167Y-73813650D01*
X113274144Y-73674446D01*
X113307903Y-73525855D01*
X113310334Y-73351811D01*
X113309552Y-73347862D01*
X114448306Y-73430065D01*
X114448823Y-73430867D01*
X114554674Y-73540479D01*
X114679799Y-73627443D01*
X114819432Y-73688447D01*
X114968255Y-73721168D01*
X115120599Y-73724359D01*
X115270662Y-73697899D01*
X115412727Y-73642795D01*
X115541384Y-73561147D01*
X115651731Y-73456065D01*
X115739567Y-73331550D01*
X115801544Y-73192346D01*
X115835303Y-73043755D01*
X115837734Y-72869711D01*
X115808137Y-72720236D01*
X115750070Y-72579355D01*
X115665746Y-72452437D01*
X115558375Y-72344314D01*
X115432048Y-72259106D01*
X115291577Y-72200057D01*
X115142312Y-72169417D01*
X114989938Y-72168353D01*
X114840259Y-72196906D01*
X114698977Y-72253988D01*
X114571473Y-72337424D01*
X114528875Y-72379139D01*
X113299939Y-72290427D01*
X113320403Y-72200355D01*
X113322834Y-72026311D01*
X113293237Y-71876836D01*
X113260370Y-71797095D01*
X113653758Y-71752549D01*
X113659774Y-71758779D01*
X113784899Y-71845743D01*
X113924532Y-71906747D01*
X114073355Y-71939468D01*
X114225699Y-71942659D01*
X114375762Y-71916199D01*
X114517827Y-71861095D01*
X114646484Y-71779447D01*
X114756831Y-71674365D01*
X114844667Y-71549850D01*
X114906644Y-71410646D01*
X114940403Y-71262055D01*
X114942834Y-71088011D01*
X114913237Y-70938536D01*
X114855170Y-70797655D01*
X114770846Y-70670737D01*
X114663475Y-70562614D01*
X114537148Y-70477406D01*
X114396677Y-70418357D01*
X114247412Y-70387717D01*
X114095038Y-70386653D01*
X113945359Y-70415206D01*
X113804077Y-70472288D01*
X113676573Y-70555724D01*
X113567703Y-70662337D01*
X113538590Y-70704855D01*
X112595459Y-70811652D01*
X115264635Y-68968326D01*
X115408808Y-68971346D01*
X115578184Y-68941480D01*
X115738533Y-68879285D01*
X115883747Y-68787129D01*
X115913431Y-68758861D01*
X121383275Y-68654065D01*
X121357406Y-68775770D01*
X121356582Y-68834800D01*
X120538651Y-69536527D01*
X120538618Y-69536561D01*
X120538148Y-69536960D01*
X120470948Y-69594760D01*
X120455525Y-69610899D01*
X120438404Y-69625239D01*
X120433288Y-69630527D01*
X120312989Y-69756627D01*
X120298935Y-69774582D01*
X120283004Y-69790908D01*
X120278444Y-69796683D01*
X120226131Y-69863885D01*
X120226119Y-69863901D01*
X119007919Y-71425101D01*
X119007909Y-71425117D01*
X119007772Y-71425290D01*
X118978773Y-71462489D01*
X118974840Y-71468701D01*
X118969919Y-71474177D01*
X118965600Y-71480135D01*
X118910800Y-71556835D01*
X118907248Y-71563002D01*
X118902711Y-71568485D01*
X118898639Y-71574613D01*
X118873681Y-71612748D01*
X118873643Y-71612806D01*
X118158313Y-72705794D01*
X118158299Y-72705816D01*
X118152099Y-72715271D01*
X118138184Y-72733644D01*
X118130882Y-72741994D01*
X118130880Y-72741997D01*
X117223877Y-73779173D01*
X117188670Y-73693755D01*
X117104346Y-73566837D01*
X116996975Y-73458714D01*
X116870648Y-73373506D01*
X116730177Y-73314457D01*
X116580912Y-73283817D01*
X116428538Y-73282753D01*
X116278859Y-73311306D01*
X116137577Y-73368388D01*
X116010073Y-73451824D01*
X115901203Y-73558437D01*
X115815115Y-73684166D01*
X115777390Y-73772184D01*
X115687912Y-73753817D01*
X115535538Y-73752753D01*
X115385859Y-73781306D01*
X115244577Y-73838388D01*
X115117073Y-73921824D01*
X115008203Y-74028437D01*
X114927749Y-74145938D01*
X112652986Y-74670476D01*
X112652870Y-74670502D01*
X112613532Y-74679582D01*
X112532786Y-74669504D01*
X112503847Y-74654644D01*
X112503553Y-74654449D01*
X112497030Y-74651044D01*
X112459230Y-74631644D01*
X112430781Y-74620398D01*
X112403310Y-74606930D01*
X112396400Y-74604399D01*
X112316601Y-74575799D01*
X112287310Y-74568432D01*
X112258707Y-74558722D01*
X112251530Y-74557098D01*
X112210430Y-74548098D01*
X112210426Y-74548097D01*
X109559148Y-73965621D01*
X109544564Y-73962080D01*
X109543070Y-73958455D01*
X109458746Y-73831537D01*
X109351375Y-73723414D01*
X109225048Y-73638206D01*
X109084577Y-73579157D01*
X108935312Y-73548517D01*
X108782938Y-73547453D01*
X108633259Y-73576006D01*
X108491977Y-73633088D01*
X108364473Y-73716524D01*
X108255603Y-73823137D01*
X108169515Y-73948866D01*
X108109487Y-74088922D01*
X108096096Y-74151924D01*
X95007026Y-66731841D01*
X100294248Y-66731841D01*
X100325295Y-66901003D01*
X100388608Y-67060914D01*
X100481776Y-67205482D01*
X100601249Y-67329200D01*
X100742477Y-67427356D01*
X100900081Y-67496212D01*
X101068057Y-67533144D01*
X101240008Y-67536746D01*
X101409384Y-67506880D01*
X101569733Y-67444685D01*
X101714947Y-67352529D01*
X101839497Y-67233922D01*
X101938636Y-67093383D01*
X102008590Y-66936264D01*
X102046694Y-66768549D01*
X102049437Y-66572106D01*
X102016031Y-66403393D01*
X101950491Y-66244381D01*
X101875264Y-66131156D01*
X102017284Y-63149143D01*
X102017812Y-63139823D01*
X102104150Y-61743931D01*
X102130097Y-61719222D01*
X102229236Y-61578683D01*
X102299190Y-61421564D01*
X102337294Y-61253849D01*
X102340037Y-61057406D01*
X102306631Y-60888693D01*
X102241091Y-60729681D01*
X102145914Y-60586429D01*
X102024725Y-60464391D01*
X101882141Y-60368216D01*
X101723591Y-60301568D01*
X101555115Y-60266985D01*
X101383131Y-60265784D01*
X101214189Y-60298011D01*
X101054724Y-60362439D01*
X100910810Y-60456614D01*
X100787929Y-60576948D01*
X100690761Y-60718858D01*
X100623007Y-60876939D01*
X100587249Y-61045169D01*
X100584848Y-61217141D01*
X100615895Y-61386303D01*
X100679208Y-61546214D01*
X100752735Y-61660305D01*
X100666291Y-63057906D01*
X100666297Y-63058061D01*
X100666087Y-63061350D01*
X100665287Y-63075450D01*
X100665293Y-63075606D01*
X100664966Y-63081594D01*
X100522798Y-66066707D01*
X100497329Y-66091648D01*
X100400161Y-66233558D01*
X100332407Y-66391639D01*
X100296649Y-66559869D01*
X100294248Y-66731841D01*
X95007026Y-66731841D01*
X94774600Y-66600081D01*
X94777050Y-66424589D01*
X94732217Y-66198164D01*
X94644258Y-65984758D01*
X94516523Y-65792502D01*
X94353878Y-65628718D01*
X94162518Y-65499644D01*
X93949732Y-65410197D01*
X93723625Y-65363784D01*
X93492809Y-65362173D01*
X93266076Y-65405424D01*
X93052062Y-65491891D01*
X92858919Y-65618281D01*
X92694003Y-65779778D01*
X92563596Y-65970232D01*
X92502000Y-66113947D01*
X92502000Y-64993922D01*
X92528506Y-65034146D01*
X92620395Y-65112463D01*
X92730465Y-65162079D01*
X92850000Y-65179066D01*
X94350000Y-65179066D01*
X94417998Y-65173644D01*
X94533330Y-65137927D01*
X94634146Y-65071494D01*
X94712463Y-64979605D01*
X94762079Y-64869535D01*
X94779066Y-64750000D01*
X94779066Y-63250000D01*
X94773644Y-63182002D01*
X94737927Y-63066670D01*
X94671494Y-62965854D01*
X94579605Y-62887537D01*
X94469535Y-62837921D01*
X94350000Y-62820934D01*
X92850000Y-62820934D01*
X92782002Y-62826356D01*
X92666670Y-62862073D01*
X92565854Y-62928506D01*
X92502000Y-63003426D01*
X92502000Y-54127000D01*
X136498000Y-54127000D01*
X136498000Y-63040078D01*
G36*
X92548092Y-69620607D02*
X92673130Y-69814628D01*
X92833472Y-69980668D01*
X93023011Y-70112401D01*
X93234527Y-70204810D01*
X93459964Y-70254375D01*
X93690735Y-70259209D01*
X93918050Y-70219128D01*
X94133251Y-70135657D01*
X94328140Y-70011976D01*
X94358635Y-69982936D01*
X107800604Y-75805591D01*
X94779066Y-74851969D01*
X94779066Y-74250000D01*
X94773644Y-74182002D01*
X94737927Y-74066670D01*
X94671494Y-73965854D01*
X94579605Y-73887537D01*
X94469535Y-73837921D01*
X94350000Y-73820934D01*
X92850000Y-73820934D01*
X92782002Y-73826356D01*
X92666670Y-73862073D01*
X92565854Y-73928506D01*
X92502000Y-74003426D01*
X92502000Y-69504192D01*
X92548092Y-69620607D01*
X92548092Y-69620607D01*
G37*
X92548092Y-69620607D02*
X92673130Y-69814628D01*
X92833472Y-69980668D01*
X93023011Y-70112401D01*
X93234527Y-70204810D01*
X93459964Y-70254375D01*
X93690735Y-70259209D01*
X93918050Y-70219128D01*
X94133251Y-70135657D01*
X94328140Y-70011976D01*
X94358635Y-69982936D01*
X107800604Y-75805591D01*
X94779066Y-74851969D01*
X94779066Y-74250000D01*
X94773644Y-74182002D01*
X94737927Y-74066670D01*
X94671494Y-73965854D01*
X94579605Y-73887537D01*
X94469535Y-73837921D01*
X94350000Y-73820934D01*
X92850000Y-73820934D01*
X92782002Y-73826356D01*
X92666670Y-73862073D01*
X92565854Y-73928506D01*
X92502000Y-74003426D01*
X92502000Y-69504192D01*
X92548092Y-69620607D01*
M02*
