G04 #@! TF.FileFunction,Soldermask,Bot*
%FSLAX46Y46*%
G04 Gerber Fmt 4.6, Leading zero omitted, Abs format (unit mm)*
G04 Created by KiCad (PCBNEW 4.0.1-stable) date 25.01.2016 0:45:01*
%MOMM*%
G01*
G04 APERTURE LIST*
%ADD10C,0.100000*%
%ADD11R,1.800000X1.800000*%
%ADD12C,1.800000*%
%ADD13R,1.550000X1.550000*%
%ADD14C,1.550000*%
%ADD15C,6.200000*%
%ADD16R,1.700000X1.700000*%
%ADD17C,1.700000*%
G04 APERTURE END LIST*
D10*
D11*
X101150000Y-91300000D03*
D12*
X97650000Y-91300000D03*
D13*
X108800000Y-94350000D03*
D14*
X108800000Y-96850000D03*
D15*
X95500000Y-57500000D03*
X133500000Y-57500000D03*
X133500000Y-95500000D03*
X95500000Y-95500000D03*
D16*
X117000000Y-84200000D03*
D17*
X119540000Y-84200000D03*
X122080000Y-84200000D03*
D16*
X122100000Y-87000000D03*
D17*
X119560000Y-87000000D03*
X117020000Y-87000000D03*
X114480000Y-87000000D03*
D16*
X135200000Y-77400000D03*
D17*
X132660000Y-77400000D03*
D16*
X135200000Y-81800000D03*
D17*
X132660000Y-81800000D03*
D16*
X135200000Y-86200000D03*
D17*
X132660000Y-86200000D03*
D16*
X135200000Y-90600000D03*
D17*
X132660000Y-90600000D03*
D16*
X135400000Y-64034000D03*
D17*
X135400000Y-66574000D03*
X135400000Y-69114000D03*
X135400000Y-71654000D03*
D16*
X115400000Y-97200000D03*
D17*
X115400000Y-94660000D03*
D16*
X119800000Y-97200000D03*
D17*
X119800000Y-94660000D03*
D16*
X124200000Y-97200000D03*
D17*
X124200000Y-94660000D03*
D16*
X128600000Y-97200000D03*
D17*
X128600000Y-94660000D03*
D16*
X93500000Y-88200000D03*
D17*
X93500000Y-90740000D03*
D16*
X93600000Y-75000000D03*
D17*
X93600000Y-77540000D03*
X93600000Y-80080000D03*
D16*
X93600000Y-64000000D03*
D17*
X93600000Y-66540000D03*
X93600000Y-69080000D03*
X93600000Y-71620000D03*
M02*
