G04 #@! TF.FileFunction,Soldermask,Top*
%FSLAX46Y46*%
G04 Gerber Fmt 4.6, Leading zero omitted, Abs format (unit mm)*
G04 Created by KiCad (PCBNEW 4.0.1-stable) date 25.01.2016 0:45:01*
%MOMM*%
G01*
G04 APERTURE LIST*
%ADD10C,0.100000*%
%ADD11R,1.200000X0.550000*%
%ADD12R,1.343000X1.597000*%
%ADD13R,1.216000X1.089000*%
%ADD14R,1.800000X1.800000*%
%ADD15C,1.800000*%
%ADD16R,1.089000X1.216000*%
%ADD17R,1.550000X1.550000*%
%ADD18C,1.550000*%
%ADD19R,0.800000X0.800000*%
%ADD20R,1.200760X1.200760*%
%ADD21R,1.300000X1.300000*%
%ADD22R,1.400000X0.600000*%
%ADD23O,1.400000X0.600000*%
%ADD24R,0.901040X1.099160*%
%ADD25O,0.901040X1.099160*%
%ADD26R,0.470000X1.400000*%
%ADD27O,0.470000X1.400000*%
%ADD28O,1.400000X0.470000*%
%ADD29R,0.480000X1.300000*%
%ADD30O,0.480000X1.300000*%
%ADD31O,1.300000X0.480000*%
%ADD32C,6.200000*%
%ADD33R,5.998820X2.348840*%
%ADD34R,1.114400X1.114400*%
%ADD35R,1.200000X1.100000*%
%ADD36R,1.100000X1.200000*%
%ADD37C,3.000000*%
%ADD38C,1.200000*%
%ADD39R,1.700000X1.700000*%
%ADD40C,1.700000*%
%ADD41R,1.200000X1.600000*%
G04 APERTURE END LIST*
D10*
D11*
X105000000Y-59150000D03*
X105000000Y-59800000D03*
X105000000Y-60450000D03*
X106800000Y-60450000D03*
X106800000Y-59800000D03*
X106800000Y-59150000D03*
D12*
X106084000Y-79300000D03*
X108116000Y-79300000D03*
D13*
X111600000Y-83762000D03*
X111600000Y-82238000D03*
D14*
X101150000Y-91300000D03*
D15*
X97650000Y-91300000D03*
D16*
X98238000Y-75700000D03*
X99762000Y-75700000D03*
X107862000Y-77500000D03*
X106338000Y-77500000D03*
D13*
X101100000Y-72038000D03*
X101100000Y-73562000D03*
X102600000Y-94338000D03*
X102600000Y-95862000D03*
D17*
X108800000Y-94350000D03*
D18*
X108800000Y-96850000D03*
D16*
X114062000Y-67500000D03*
X112538000Y-67500000D03*
X112538000Y-61500000D03*
X114062000Y-61500000D03*
D13*
X108100000Y-68738000D03*
X108100000Y-70262000D03*
X111500000Y-72738000D03*
X111500000Y-74262000D03*
D16*
X101062000Y-62300000D03*
X99538000Y-62300000D03*
D13*
X111500000Y-78662000D03*
X111500000Y-77138000D03*
D16*
X102062000Y-59800000D03*
X100538000Y-59800000D03*
X121862000Y-81300000D03*
X120338000Y-81300000D03*
D13*
X109400000Y-60162000D03*
X109400000Y-58638000D03*
X124700000Y-71438000D03*
X124700000Y-72962000D03*
X110200000Y-63938000D03*
X110200000Y-65462000D03*
D16*
X116438000Y-68100000D03*
X117962000Y-68100000D03*
D13*
X105900000Y-68738000D03*
X105900000Y-70262000D03*
D16*
X116438000Y-66500000D03*
X117962000Y-66500000D03*
X101062000Y-65500000D03*
X99538000Y-65500000D03*
D19*
X105000000Y-58000000D03*
X106000000Y-58000000D03*
X105000000Y-54600000D03*
X106000000Y-54600000D03*
D20*
X135300480Y-75200000D03*
X132699520Y-75200000D03*
X135300480Y-79600000D03*
X132699520Y-79600000D03*
X135400480Y-84000000D03*
X132799520Y-84000000D03*
X135100480Y-88400000D03*
X132499520Y-88400000D03*
D16*
X125338000Y-63900000D03*
X126862000Y-63900000D03*
D20*
X113200000Y-97300480D03*
X113200000Y-94699520D03*
X117600000Y-97300480D03*
X117600000Y-94699520D03*
X122000000Y-97300480D03*
X122000000Y-94699520D03*
X126400000Y-97300480D03*
X126400000Y-94699520D03*
D21*
X106550000Y-83550000D03*
X106550000Y-82450000D03*
X107650000Y-83550000D03*
X107650000Y-82450000D03*
X106550000Y-84650000D03*
X107650000Y-84650000D03*
X106550000Y-81350000D03*
X107650000Y-81350000D03*
D22*
X109200000Y-84200000D03*
D23*
X109200000Y-83400000D03*
X109200000Y-82600000D03*
X109200000Y-81800000D03*
X105000000Y-81800000D03*
X105000000Y-82600000D03*
X105000000Y-83400000D03*
X105000000Y-84200000D03*
D24*
X98049760Y-73849960D03*
D25*
X99350240Y-73849960D03*
X99350240Y-71950040D03*
X98049760Y-71950040D03*
D26*
X120850000Y-70550000D03*
D27*
X120350000Y-70550000D03*
X119850000Y-70550000D03*
X119350000Y-70550000D03*
X118850000Y-70550000D03*
X118350000Y-70550000D03*
X117850000Y-70550000D03*
X117350000Y-70550000D03*
X116850000Y-70550000D03*
X116350000Y-70550000D03*
X115850000Y-70550000D03*
X115350000Y-70550000D03*
D28*
X113850000Y-72050000D03*
X113850000Y-72550000D03*
X113850000Y-73050000D03*
X113850000Y-73550000D03*
X113850000Y-74050000D03*
X113850000Y-74550000D03*
X113850000Y-75050000D03*
X113850000Y-75550000D03*
X113850000Y-76050000D03*
X113850000Y-76550000D03*
X113850000Y-77050000D03*
X113850000Y-77550000D03*
D27*
X115350000Y-79050000D03*
X115850000Y-79050000D03*
X116350000Y-79050000D03*
X116850000Y-79050000D03*
X117350000Y-79050000D03*
X117850000Y-79050000D03*
X118350000Y-79050000D03*
X118850000Y-79050000D03*
X119350000Y-79050000D03*
X119850000Y-79050000D03*
X120350000Y-79050000D03*
X120850000Y-79050000D03*
D28*
X122350000Y-77550000D03*
X122350000Y-77050000D03*
X122350000Y-76550000D03*
X122350000Y-76050000D03*
X122350000Y-75550000D03*
X122350000Y-75050000D03*
X122350000Y-74550000D03*
X122350000Y-74050000D03*
X122350000Y-73550000D03*
X122350000Y-73050000D03*
X122350000Y-72550000D03*
X122350000Y-72050000D03*
D29*
X104600000Y-66350000D03*
D30*
X105100000Y-66350000D03*
X105600000Y-66350000D03*
X106100000Y-66350000D03*
X106600000Y-66350000D03*
D31*
X107550000Y-65400000D03*
X107550000Y-64900000D03*
X107550000Y-64400000D03*
X107550000Y-63900000D03*
X107550000Y-63400000D03*
D30*
X106600000Y-62450000D03*
X106100000Y-62450000D03*
X105600000Y-62450000D03*
X105100000Y-62450000D03*
X104600000Y-62450000D03*
D31*
X103650000Y-63400000D03*
X103650000Y-63900000D03*
X103650000Y-64400000D03*
X103650000Y-64900000D03*
X103650000Y-65400000D03*
D21*
X105050000Y-64950000D03*
X105050000Y-63850000D03*
X106150000Y-64950000D03*
X106150000Y-63850000D03*
D32*
X95500000Y-57500000D03*
X133500000Y-57500000D03*
X133500000Y-95500000D03*
X95500000Y-95500000D03*
D33*
X107100000Y-90925320D03*
X107100000Y-87074680D03*
D19*
X101100000Y-69200000D03*
X101100000Y-70200000D03*
X109700000Y-72000000D03*
X108700000Y-72000000D03*
X105000000Y-55800000D03*
X105000000Y-56800000D03*
D34*
X129184000Y-76089000D03*
X129184000Y-74311000D03*
X131216000Y-75200000D03*
X129184000Y-80489000D03*
X129184000Y-78711000D03*
X131216000Y-79600000D03*
X129184000Y-84889000D03*
X129184000Y-83111000D03*
X131216000Y-84000000D03*
X129184000Y-89289000D03*
X129184000Y-87511000D03*
X131216000Y-88400000D03*
X112311000Y-91184000D03*
X114089000Y-91184000D03*
X113200000Y-93216000D03*
X116711000Y-91184000D03*
X118489000Y-91184000D03*
X117600000Y-93216000D03*
X121111000Y-91184000D03*
X122889000Y-91184000D03*
X122000000Y-93216000D03*
X125511000Y-91184000D03*
X127289000Y-91184000D03*
X126400000Y-93216000D03*
D35*
X127600000Y-75950000D03*
X127600000Y-74450000D03*
X127600000Y-80350000D03*
X127600000Y-78850000D03*
X127600000Y-84750000D03*
X127600000Y-83250000D03*
D36*
X125650000Y-87600000D03*
X127150000Y-87600000D03*
X123450000Y-63900000D03*
X121950000Y-63900000D03*
X112450000Y-89600000D03*
X113950000Y-89600000D03*
X116850000Y-89600000D03*
X118350000Y-89600000D03*
X121250000Y-89600000D03*
X122750000Y-89600000D03*
X125650000Y-89600000D03*
X127150000Y-89600000D03*
X106350000Y-75500000D03*
X107850000Y-75500000D03*
X107850000Y-73900000D03*
X106350000Y-73900000D03*
D35*
X104500000Y-94350000D03*
X104500000Y-95850000D03*
X100700000Y-95850000D03*
X100700000Y-94350000D03*
D36*
X101050000Y-63900000D03*
X99550000Y-63900000D03*
D35*
X95900000Y-63950000D03*
X95900000Y-65450000D03*
X95900000Y-67550000D03*
X95900000Y-69050000D03*
D37*
X93700000Y-84900000D03*
X129000000Y-55800000D03*
D38*
X119600000Y-68200000D03*
X109500000Y-68900000D03*
X103596000Y-68555700D03*
D39*
X117000000Y-84200000D03*
D40*
X119540000Y-84200000D03*
X122080000Y-84200000D03*
D39*
X122100000Y-87000000D03*
D40*
X119560000Y-87000000D03*
X117020000Y-87000000D03*
X114480000Y-87000000D03*
D39*
X135200000Y-77400000D03*
D40*
X132660000Y-77400000D03*
D39*
X135200000Y-81800000D03*
D40*
X132660000Y-81800000D03*
D39*
X135200000Y-86200000D03*
D40*
X132660000Y-86200000D03*
D39*
X135200000Y-90600000D03*
D40*
X132660000Y-90600000D03*
D39*
X135400000Y-64034000D03*
D40*
X135400000Y-66574000D03*
X135400000Y-69114000D03*
X135400000Y-71654000D03*
D39*
X115400000Y-97200000D03*
D40*
X115400000Y-94660000D03*
D39*
X119800000Y-97200000D03*
D40*
X119800000Y-94660000D03*
D39*
X124200000Y-97200000D03*
D40*
X124200000Y-94660000D03*
D39*
X128600000Y-97200000D03*
D40*
X128600000Y-94660000D03*
D39*
X93500000Y-88200000D03*
D40*
X93500000Y-90740000D03*
D39*
X93600000Y-75000000D03*
D40*
X93600000Y-77540000D03*
X93600000Y-80080000D03*
D39*
X93600000Y-64000000D03*
D40*
X93600000Y-66540000D03*
X93600000Y-69080000D03*
X93600000Y-71620000D03*
D41*
X114100000Y-65600000D03*
X114100000Y-63400000D03*
X112500000Y-63400000D03*
X112500000Y-65600000D03*
M02*
